<?xml version="1.0" encoding="UTF-8"?><svg xmlns="http://www.w3.org/2000/svg" viewBox="0 0 906.86 565.48"><defs><style>.cls-1{fill:#6d6e71;}.cls-1,.cls-2{stroke-width:0px;}.cls-2{fill:#f15a29;}.cls-3{fill:none;stroke:#6d6e71;stroke-miterlimit:10;stroke-width:5px;}</style></defs><g id="OuterFrame"><polyline class="cls-3" points="298.87 525.78 2.5 525.78 2.5 39.7 271.21 39.7"/><polyline class="cls-3" points="634.01 39.7 901.62 39.7 901.62 525.78 606.73 525.78"/><path class="cls-1" d="m285.02,39.65c0-11.5,9.77-17.9,21.42-17.9,5.7,0,11.5,1.78,14.97,5.21l-2.53,3.17h-.89c-2.97-3.07-7.04-4.41-11.55-4.41-6.1,0-10.51,2.68-10.51,9.32v9.32c0,6.64,4.41,9.32,10.51,9.32,4.21,0,8.68-1.24,11.75-4.11h.89l2.33,2.88c-3.97,3.42-9.27,5.21-14.97,5.21-11.65,0-21.42-6.54-21.42-18Z"/><path class="cls-1" d="m325.92,39.7c0-11.55,8.97-17.95,20.72-17.95s20.67,6.4,20.67,17.95-8.92,17.95-20.67,17.95-20.72-6.44-20.72-17.95Zm30.54,5.55v-11.1c0-6-3.72-8.43-9.82-8.43s-9.82,2.43-9.82,8.43v11.1c0,6,3.72,8.43,9.82,8.43s9.82-2.43,9.82-8.43Z"/><path class="cls-1" d="m407.53,53.08l-1.74,3.97h-29.1V22.35h9.92v30.74h20.92Z"/><path class="cls-1" d="m448.38,45.35c0,6.35-3.07,12.29-15.96,12.29s-18.05-5.95-18.05-12.34v-22.95h9.92v22.95c0,6.35,4.56,8.33,10.11,8.33,5.25,0,9.87-1.98,9.87-8.28v-23h4.11v23Z"/><path class="cls-1" d="m508.18,22.35v34.7h-9.92v-27.37l-15.47,27.37h-2.83l-15.37-27.27v27.27h-4.26V22.35h11.4l13.04,23.05,12.99-23.05h10.41Z"/><path class="cls-1" d="m557.26,47.73c0,6.69-5.11,9.32-16.61,9.32h-20.52V22.35h19.73c10.61,0,15.27,2.48,15.27,8.77,0,4.41-2.78,6.69-7.63,7.68,6.5.99,9.77,3.77,9.77,8.92Zm-27.22-10.81h9.82c3.32,0,5.06-1.54,5.06-4.41v-1.88c0-2.92-1.79-4.31-5.06-4.31h-9.82v10.61Zm16.41,9.07c0-3.47-2.23-5.11-5.8-5.11h-10.61v12.2h10.61c3.57,0,5.8-1.44,5.8-4.91v-2.18Z"/><path class="cls-1" d="m566.88,22.35h9.92v34.7h-9.92V22.35Z"/><path class="cls-1" d="m612.4,50.8h-19.63l-3.22,6.25h-4.66l17.95-34.7h5.95l17.95,34.7h-11.1l-3.22-6.25Zm-2.03-3.97l-7.78-15.07-7.78,15.07h15.57Z"/><path class="cls-1" d="m349.23,517.95c0,6.99-4.96,10.61-16.61,10.61h-10.61v14.58h-9.92v-34.7h20.52c11.65,0,16.61,2.63,16.61,9.52Zm-10.81-.64c0-3.47-2.23-4.91-5.8-4.91h-10.61v12.2h10.61c3.57,0,5.8-1.64,5.8-5.11v-2.18Z"/><path class="cls-1" d="m384.58,543.14l-7.98-14.58h-8.13v14.58h-9.92v-34.7h20.52c11.65,0,16.61,2.63,16.61,9.52,0,5.06-2.58,8.33-8.38,9.77l9.72,15.42h-12.44Zm-16.11-18.54h10.61c3.57,0,5.8-1.64,5.8-5.11v-2.18c0-3.47-2.23-4.91-5.8-4.91h-10.61v12.2Z"/><path class="cls-1" d="m403.37,525.79c0-11.55,8.97-17.95,20.72-17.95s20.67,6.4,20.67,17.95-8.92,17.95-20.67,17.95-20.72-6.44-20.72-17.95Zm30.54,5.55v-11.11c0-6-3.72-8.43-9.82-8.43s-9.82,2.43-9.82,8.43v11.11c0,6,3.72,8.43,9.82,8.43s9.82-2.43,9.82-8.43Z"/><path class="cls-1" d="m448.14,541.7l1.49-3.62h.94c1.59,1.19,3.22,1.74,5.75,1.74,2.97,0,5.26-1.54,5.26-5.35v-26.03h9.92v25.08c0,6.94-5.4,10.21-13.34,10.21-4.66,0-7.78-.94-10.01-2.03Z"/><path class="cls-1" d="m483.44,508.43h29.35l1.74,3.97h-21.07v10.61h15.62v3.97h-15.62v12.2h22.56l-1.74,3.97h-30.84v-34.7Z"/><path class="cls-1" d="m520.93,525.74c0-11.5,9.77-17.9,21.42-17.9,5.7,0,11.5,1.78,14.97,5.21l-2.53,3.17h-.89c-2.97-3.07-7.04-4.41-11.55-4.41-6.1,0-10.51,2.68-10.51,9.32v9.32c0,6.64,4.41,9.32,10.51,9.32,4.21,0,8.68-1.24,11.75-4.12h.89l2.33,2.88c-3.97,3.42-9.27,5.21-14.97,5.21-11.65,0-21.42-6.54-21.42-18Z"/><path class="cls-1" d="m585.33,512.4v30.74h-9.87v-30.74h-13.98l1.79-3.97h34.31l1.73,3.97h-13.98Z"/></g><g id="CenterText"><path class="cls-2" d="m103.23,155.21c0-6.39,2.42-8.81,7.05-8.81s6.83,2.2,6.83,9.03c0,8.81-1.98,18.95-1.98,29.53,0,6.39,1.98,25.34,1.98,27.76,0,7.93-2.64,10.36-6.83,10.36-4.41,0-7.05-2.42-7.05-10.58,0-4.41.88-7.71.88-11.46,0-6.17-3.53-9.48-9.03-9.48h-9.25c-2.86,0-4.19,1.54-4.19,5.95v17.41c0,31.29,1.76,33.05,6.61,33.05,2.42,0,5.07-.88,9.48-.88,4.63,0,7.93,3.31,7.93,7.49,0,5.07-3.75,9.04-8.81,9.04-6.17,0-17.41-2.64-23.36-2.64-4.41,0-17.85,2.64-21.15,2.64-4.63,0-8.59-3.97-8.59-9.04,0-4.41,3.31-7.49,7.71-7.49,2.42,0,4.85.88,7.27.88,1.76,0,3.08-.44,3.75-1.32,1.76-1.98,2.86-8.81,2.86-34.82v-50.9c0-35.92-1.98-35.92-6.61-35.92-2.42,0-4.85.88-7.49.88-4.19,0-7.49-3.08-7.49-7.49,0-5.07,3.97-9.03,8.59-9.03,3.75,0,17.85,2.64,27.32,2.64,8.37,0,45.83-2.64,52.44-2.64,10.58,0,12.12,2.42,12.12,12.34,0,4.63-1.32,11.24-1.32,19.83s1.32,15.87,1.32,22.7c0,7.71-2.64,10.36-7.27,10.36s-7.27-3.08-7.27-10.36c0-5.95.88-11.24.88-16.31,0-19.83-7.93-20.93-18.73-20.93h-17.19c-12.12,0-13,4.41-13,21.59v20.71c0,6.83,1.32,7.27,6.83,7.27h4.41c2.64,0,11.24-.22,11.24-10.58,0-3.53-.88-7.49-.88-10.8Z"/><path class="cls-2" d="m240.29,206.33c0,36.14-15.87,58.61-40.32,58.61s-40.77-22.48-40.77-58.61,16.53-58.61,40.54-58.61,40.54,22.26,40.54,58.61Zm-40.1,43.41c14.98,0,24.02-17.41,24.02-43.63s-9.7-43.19-24.24-43.19-24.68,16.09-24.68,43.41,10.14,43.41,24.9,43.41Z"/><path class="cls-2" d="m335.04,155.87c0,5.95-1.76,11.02-1.76,16.09s1.76,9.7,1.76,14.1c0,5.07-3.75,7.71-6.61,7.71-4.63,0-7.27-3.08-7.71-13.88-.44-10.8-7.93-18.07-18.95-18.07-9.92,0-17.63,7.49-17.63,17.41,0,11.68,7.27,13.44,21.81,17.19,16.75,4.19,21.37,5.95,26.66,11.24,5.73,5.73,7.71,13,7.71,21.15,0,19.61-13.88,35.04-35.04,35.04-9.03,0-15.42-2.42-24.02-10.36,0,9.25-2.42,11.9-6.83,11.9s-7.93-3.75-7.93-9.03c0-6.17,1.76-11.68,1.76-17.63,0-6.39-1.76-11.9-1.76-16.97,0-3.75,1.98-7.27,7.05-7.27,7.05,0,7.71,5.51,7.71,13.44,0,12.34,12.56,21.59,24.24,21.59,10.36,0,18.95-7.27,18.95-17.85s-6.17-16.09-20.93-18.29c-26.44-3.97-35.7-13.44-35.7-31.29,0-20.71,15.42-34.38,33.27-34.38,7.05,0,13,1.98,20.27,7.93v-.66c0-5.51,2.2-8.37,6.61-8.37s7.05,2.42,7.05,9.25Z"/><path class="cls-2" d="m388.37,125.02v20.93c0,2.64,1.32,3.75,5.07,3.75,4.63,0,8.81-.88,13.88-.88,5.95,0,9.48,2.42,9.48,8.37,0,5.51-4.19,8.59-9.25,8.59-3.53,0-11.46-1.54-14.98-1.54-3.75,0-4.19,1.54-4.19,6.17v48.7c0,21.81,2.2,28.87,9.92,28.87s10.36-6.17,10.36-25.34c0-14.1,1.76-15.65,7.27-15.65,5.95,0,7.71,4.41,7.71,13.88,0,28.87-8.37,43.41-26.22,43.41s-24.68-11.24-24.68-35.92v-58.83c0-1.54,0-4.41-2.64-4.41-1.54,0-3.75.66-4.85.66-4.63,0-7.05-3.08-7.05-8.59,0-4.63,3.31-8.37,7.05-8.37,1.1,0,3.31.88,4.85.88,1.76,0,2.64-1.32,2.64-5.51v-18.95c0-6.39,2.64-9.7,7.93-9.7,4.63,0,7.71,2.64,7.71,9.48Z"/><path class="cls-2" d="m517.06,196.63c0,10.58-.66,12.56-5.73,12.56h-47.38c-6.39,0-7.49.66-7.49,6.17,0,20.49,9.03,34.15,23.14,34.15,9.48,0,17.85-7.49,20.05-20.27,1.1-6.39,4.19-9.7,8.81-9.7,5.07,0,7.27,3.97,7.27,8.37,0,14.1-12.12,37.02-36.58,37.02s-39.44-23.14-39.44-57.73c0-36.8,18.07-59.5,41.21-59.5,21.37,0,36.14,21.15,36.14,48.92Zm-53.99-2.42h32.61c2.86,0,4.63-1.54,4.63-3.97,0-15.87-7.93-27.1-20.27-27.1-14.98,0-22.48,16.75-22.48,27.1,0,3.75,2.87,3.97,5.51,3.97Z"/><path class="cls-2" d="m617.98,177.9c0,13.22-6.17,22.7-14.32,22.7-6.17,0-11.02-4.85-11.02-11.24,0-5.95,3.08-9.48,9.92-10.36.22-.88.44-2.2.44-3.75,0-6.39-5.29-13.22-12.56-13.22-13.88,0-19.61,13.22-19.61,36.14v27.98c0,21.59,1.76,21.59,5.73,21.59,2.64,0,5.73-.44,8.37-.44,4.41,0,6.61,4.19,6.61,7.93,0,4.41-3.53,7.49-7.27,7.49-3.3,0-12.78-1.76-20.93-1.76-7.05,0-12.34,1.76-16.97,1.76-3.75,0-7.27-3.08-7.27-7.49s2.64-7.93,6.39-7.93c1.54,0,2.86.44,4.41.44,4.41,0,5.29-1.1,5.29-27.76,0-32.61-.22-44.73-.66-49.36s-1.98-6.83-4.41-6.83c-1.54,0-3.08.44-4.63.44-4.19,0-6.61-3.08-6.61-7.27s2.87-8.15,7.05-8.15c2.86,0,6.61,1.76,10.14,1.76,3.31,0,7.49-1.76,10.14-1.76,2.42,0,2.86,2.64,3.08,9.7,5.95-7.49,12.78-10.8,21.81-10.8,16.09,0,26.88,12.56,26.88,30.19Z"/><path class="cls-2" d="m774.21,134.27c0,16.53-7.71,29.31-26.22,42.53,8.15,17.19,12.12,24.46,20.27,38.12l11.46-35.48c6.61-20.71,19.39-31.73,33.27-31.73,15.42,0,25.34,11.9,25.34,27.1,0,16.09-8.81,29.75-23.58,29.75-9.04,0-16.09-6.61-16.09-15.2,0-6.39,3.53-11.24,9.03-11.24,5.07,0,7.71,3.75,7.71,7.27,0,2.42-.88,2.64-.88,3.53,0,.44.88.66,1.98.66,4.19,0,7.05-5.51,7.05-12.56,0-8.15-4.19-14.32-11.9-14.32-9.7,0-14.98,8.81-21.59,29.53l-12.12,38.12c10.58,15.65,16.75,18.51,26.44,18.51,3.3,0,6.39-.88,9.25-.88,5.07,0,7.71,3.75,7.71,8.15s-1.98,8.15-8.81,8.15h-11.24c-5.73,0-11.24-.88-16.31-2.87-4.19-1.76-9.7-6.39-16.53-14.98-8.59,12.56-20.49,19.17-34.38,19.17-22.7,0-38.34-18.51-38.34-45.17,0-18.95,5.95-35.26,30.19-50.02-6.17-15.65-8.81-26-8.81-35.48,0-16.09,10.14-29.75,28.65-29.75s28.43,11.68,28.43,29.09Zm-39,114.8c9.92,0,16.97-4.63,23.8-16.75-11.68-19.17-16.09-27.54-25.78-47.16-13.44,6.39-20.49,18.51-20.49,35.04s9.03,28.87,22.48,28.87Zm6.39-87.04c12.12-7.71,16.31-16.09,16.31-26.88,0-8.59-4.85-14.98-12.78-14.98-6.39,0-11.24,5.95-11.24,14.54,0,6.83,1.98,13.88,7.71,27.32Z"/><path class="cls-2" d="m89.79,376.77c-5.07,0-5.73,1.98-7.49,8.81l-4.41,17.41c-.88,3.75-1.1,6.17-1.1,8.15s1.1,4.85,3.97,4.85c1.76,0,3.08-.88,5.51-.88,4.19,0,7.05,2.64,7.05,7.93s-3.53,8.59-7.71,8.59c-4.63,0-13.66-2.64-18.95-2.64-4.63,0-17.63,2.64-21.37,2.64-4.63,0-8.37-2.87-8.37-8.37s2.86-8.15,7.05-8.15c2.42,0,4.19.88,7.05.88,4.85,0,7.71-3.75,15.2-31.29l23.8-87.92c4.19-15.65,5.95-20.93,13.66-20.93,10.14,0,10.58,6.39,14.1,20.05l25.12,100.04c1.1,4.19,3.31,12.34,5.51,16.31,1.32,2.42,3.31,3.75,5.29,3.75,2.42,0,5.07-.88,6.83-.88,3.97,0,7.27,2.2,7.27,7.71s-3.53,8.81-7.71,8.81c-2.42,0-15.65-2.64-20.49-2.64-3.31,0-17.85,2.64-20.71,2.64-4.41,0-8.37-3.75-8.37-8.37,0-4.19,2.86-8.15,7.49-8.15,1.54,0,2.86.88,4.85.88,3.53,0,5.07-2.42,5.07-7.93,0-2.64-.88-7.49-2.64-14.76l-2.86-12.34c-.66-2.64-1.76-4.19-5.29-4.19h-27.32Zm14.1-76.68l-14.1,57.07c-.22.66-.44,1.54-.44,2.2,0,2.64,2.2,3.08,3.75,3.08h20.05c2.86,0,4.19-.88,4.19-2.64,0-.66-.22-1.76-.44-2.86l-12.56-56.85h-.44Z"/><path class="cls-2" d="m243.81,279.16c4.19,0,8.37-1.76,11.68-1.76,2.86,0,3.75,1.32,3.75,6.61,0,8.81-.66,26-.66,32.61v70.73c0,28.43,1.54,28.43,4.85,28.43,1.76,0,3.08-.44,5.07-.44,3.53,0,6.17,3.75,6.17,7.93,0,4.63-3.75,7.49-7.05,7.49-2.86,0-6.39-1.76-11.02-1.76-4.19,0-6.83,1.76-9.7,1.76-2.42,0-3.75-.88-3.75-4.19,0-1.54.22-3.53.22-5.51l-.44-.44c-6.83,8.59-14.32,12.34-22.92,12.34-20.27,0-37.9-20.27-37.9-57.07s16.31-60.16,39.66-60.16c8.59,0,15.42,2.86,20.71,9.92h.44v-9.25c0-.88-.22-9.48-.22-10.36-.44-6.39,0-13.66-4.85-13.66-1.54,0-3.08.44-4.63.44-4.19,0-6.61-2.86-6.61-7.27,0-3.97,2.86-8.15,7.05-8.15,2.86,0,6.61,1.76,10.14,1.76Zm-22.7,137.28c13.44,0,21.81-15.2,21.81-42.31s-6.39-42.09-22.04-42.09c-12.34,0-22.26,16.09-22.26,40.77,0,28.87,8.15,43.63,22.48,43.63Z"/><path class="cls-2" d="m374.04,374.35c0,36.14-15.87,58.61-40.32,58.61s-40.77-22.48-40.77-58.61,16.53-58.61,40.54-58.61,40.54,22.25,40.54,58.61Zm-40.1,43.41c14.98,0,24.02-17.41,24.02-43.63s-9.7-43.19-24.24-43.19-24.68,16.09-24.68,43.41,10.14,43.41,24.9,43.41Z"/><path class="cls-2" d="m482.02,372.37c0,38.78-17.19,60.6-39.22,60.6-9.25,0-16.09-3.97-20.71-10.14h-.44c0,20.49.66,24.46,1.32,26.88s1.76,2.87,3.97,2.87c1.1,0,2.86-.44,4.41-.44,3.75,0,6.39,3.53,6.39,7.93,0,4.63-3.75,7.49-7.05,7.49-5.07,0-10.36-1.76-16.75-1.76s-12.34,1.76-16.75,1.76c-3.53,0-7.27-3.08-7.27-7.49s2.64-7.93,6.17-7.93c1.76,0,3.08.44,4.63.44,2.86,0,3.53-1.1,4.19-3.31.66-2.42,1.1-10.58,1.1-25.12v-59.27c0-17.41-.44-27.32-1.1-29.53-.88-2.42-2.2-3.53-4.19-3.53-1.54,0-2.86.44-4.41.44-3.97,0-6.61-2.87-6.61-7.27s2.86-8.15,7.05-8.15c2.86,0,6.61,1.76,10.14,1.76,4.19,0,8.37-1.76,10.8-1.76,3.08,0,3.75,1.76,3.75,5.95,0,1.76-.22,3.75-.22,5.51h.44c6.83-8.37,14.76-12.56,24.24-12.56,21.81,0,36.14,21.81,36.14,56.63Zm-39,44.95c12.12,0,22.7-13.66,22.7-43.19,0-27.54-7.93-42.31-21.81-42.31s-22.26,14.32-22.26,43.19,8.59,42.31,21.37,42.31Z"/><path class="cls-2" d="m529.39,293.04v20.93c0,2.64,1.32,3.75,5.07,3.75,4.63,0,8.81-.88,13.88-.88,5.95,0,9.47,2.42,9.47,8.37,0,5.51-4.19,8.59-9.25,8.59-3.53,0-11.46-1.54-14.98-1.54-3.75,0-4.19,1.54-4.19,6.17v48.7c0,21.82,2.2,28.87,9.92,28.87s10.36-6.17,10.36-25.34c0-14.1,1.76-15.65,7.27-15.65,5.95,0,7.71,4.41,7.71,13.88,0,28.87-8.37,43.41-26.22,43.41s-24.68-11.24-24.68-35.92v-58.83c0-1.54,0-4.41-2.64-4.41-1.54,0-3.75.66-4.85.66-4.63,0-7.05-3.08-7.05-8.59,0-4.63,3.3-8.37,7.05-8.37,1.1,0,3.31.88,4.85.88,1.76,0,2.64-1.32,2.64-5.51v-18.95c0-6.39,2.64-9.7,7.93-9.7,4.63,0,7.71,2.64,7.71,9.48Z"/><path class="cls-2" d="m602.11,318.6c4.19,0,8.37-1.76,11.68-1.76,2.87,0,3.75,1.1,3.75,6.61,0,8.37-.66,26.44-.66,32.17v35.48c0,13.44.66,20.05,1.32,22.04.66,1.76,1.54,2.64,3.97,2.64,1.54,0,2.86-.44,4.41-.44,3.75,0,6.39,3.75,6.39,7.93,0,4.41-3.53,7.49-7.27,7.49-4.63,0-10.14-1.76-16.53-1.76-6.83,0-12.34,1.76-16.75,1.76-3.75,0-7.27-3.08-7.27-7.49s2.64-7.93,6.39-7.93c1.54,0,2.86.44,4.41.44,3.97,0,5.29,0,5.29-27.76,0-30.63-.22-44.73-.66-49.36-.44-4.63-1.98-6.83-4.41-6.83-1.54,0-3.08.44-4.63.44-4.19,0-6.61-2.87-6.61-7.27s2.87-8.15,7.05-8.15c2.86,0,6.61,1.76,10.14,1.76Zm14.98-24.24c0,7.71-5.07,13.44-11.02,13.44s-11.24-5.73-11.24-13.44,5.07-13.66,11.24-13.66,11.02,5.95,11.02,13.66Z"/><path class="cls-2" d="m733.44,374.35c0,36.14-15.87,58.61-40.32,58.61s-40.77-22.48-40.77-58.61,16.53-58.61,40.54-58.61,40.54,22.25,40.54,58.61Zm-40.1,43.41c14.98,0,24.02-17.41,24.02-43.63s-9.7-43.19-24.24-43.19-24.68,16.09-24.68,43.41,10.14,43.41,24.9,43.41Z"/><path class="cls-2" d="m787.21,365.54v29.75c0,20.49,1.98,20.49,5.29,20.49,1.54,0,2.86-.44,4.41-.44,3.75,0,6.39,3.75,6.39,7.93,0,4.41-3.53,7.49-7.27,7.49-4.63,0-10.14-1.76-16.53-1.76-6.83,0-12.34,1.76-16.75,1.76-3.75,0-7.27-3.08-7.27-7.49s2.64-7.93,6.39-7.93c1.54,0,2.86.44,4.41.44,4.41,0,5.29-.88,5.29-27.76,0-32.61-.22-44.73-.66-49.36-.44-4.63-1.98-6.83-4.41-6.83-1.54,0-3.08.44-4.63.44-4.19,0-6.61-2.87-6.61-7.27s2.87-8.15,7.05-8.15c2.86,0,6.61,1.76,10.14,1.76,4.41,0,8.15-1.76,10.8-1.76,2.2,0,3.53.44,3.53,7.27v2.86l.44.44c6.83-8.59,15.42-11.68,26.22-11.68,23.58,0,32.83,11.9,32.83,44.51,0,37.46.22,44.51.66,49.36s1.76,6.17,4.63,6.17c1.54,0,2.87-.44,4.41-.44,3.75,0,6.39,3.75,6.39,7.93,0,4.41-3.53,7.49-7.27,7.49-4.63,0-10.14-1.76-16.53-1.76s-12.34,1.76-16.75,1.76c-3.75,0-7.27-3.08-7.27-7.49s2.64-7.93,6.39-7.93c1.54,0,2.87.44,4.41.44,4.63,0,5.29-2.2,5.29-27.99v-26.66c0-17.85-3.75-31.29-20.05-31.29-14.98,0-23.36,14.32-23.36,35.7Z"/></g></svg>