<?xml version="1.0" encoding="UTF-8"?><svg id="Layer_2" xmlns="http://www.w3.org/2000/svg" xmlns:xlink="http://www.w3.org/1999/xlink" viewBox="0 0 154.83 135.61"><defs><style>.cls-1{fill:url(#linear-gradient);opacity:.5;}.cls-1,.cls-2{stroke-width:0px;}.cls-2{fill:url(#linear-gradient-2);}</style><linearGradient id="linear-gradient" x1="551.16" y1="718.36" x2="633.89" y2="737.72" gradientTransform="translate(-685.94 -516.69) rotate(-12.36)" gradientUnits="userSpaceOnUse"><stop offset="0" stop-color="#ff1400"/><stop offset="1" stop-color="#b00000"/></linearGradient><linearGradient id="linear-gradient-2" x1="551.48" y1="718.04" x2="634.21" y2="737.39" xlink:href="#linear-gradient"/></defs><g id="Calque_1"><path class="cls-1" d="m59.91,18.91c.31-.32.46-.66.48-1.02.01-.37-.12-.89-.39-1.56l-.38-.92c-.27-.66-.51-1.14-.71-1.42-.2-.29-.45-.5-.74-.64-.29-.14-.67-.19-1.12-.14-.45.05-1.05.22-1.8.53l-2.77,1.13.21.51s.06.07.09.11c.08-.06.15-.13.23-.19.66.98.67.86.58,1.66-.16-.1-.26-.18-.34-.23l3.56,8.73.6-.24.07-.06s0,.02,0,.03l2.08-.85-1.74-4.26.74-.3c.6-.25,1.06-.53,1.36-.85Zm-5.39-.52c.07-.4-.02-.14.25-.63.07.09.14.17.2.26-.15.12-.3.25-.45.38Zm1.56,1.96c-.13-.17-.27-.34-.41-.51.07-.06.15-.12.23-.19.21.56.16.29.19.7Zm-.16-1.41c-.21-.25-.41-.51-.62-.77.15-.13.3-.25.45-.38.47.99.44.29.17,1.15Zm1.8-1.18h0c-.05.17-.2.3-.45.4-.06.02-.13.05-.21.08l-1.1-2.69c.36-.15.62-.19.77-.12.09.03.17.11.25.23.3.02.38.15.86.24.43.64.66-.58.73-.12-.09.4-.08.34-.47.82-.41-.19-.56-.2-.83-.36l.28.69c.08.18.13.34.16.48.06.07.12.15.18.22-.05.05-.11.09-.16.14Zm4.65-6.28l2.63,10.96,2.89-.69-1.74-7.24c-.29-.2-.52-.41-.95-.88.08-.07.15-.13.23-.19.23.16.42.28.57.4l-.66-2.76s-.04-.05-.06-.08c.01-.01.02-.02.04-.03l-.08-.34-1.72.41s.04.06.07.08c-.6.32-.88.35-1.2.35Zm3.83,5.27c.21.56.16.29.19.69,0,0,0,0,0,0-.14-.17-.27-.34-.4-.51.07-.06.15-.12.22-.19Zm-37.28,11.76c.18-.22.37-.44.55-.66-.2-.01-.41-.02-.61-.03-.01.22-.03.44-.05.65.04.01.07.03.1.04Zm14.37-14.07c-.44-.09-.88-.09-1.24-.2-3.45,2.27-6.66,4.85-9.57,7.7.16.11.32.22.48.33-.08.15-.17.29-.25.44-.5-.35-.4-.2-.63.1-.09-.06-.18-.13-.27-.19-.77.77-1.52,1.56-2.25,2.37.02.07.04.14.08.23.22-.05.45-.1.67-.15.32.47.43.63.49.99-.2.23-.37.46-.51.84,4.65-5.34,10.23-9.91,16.55-13.44-.16-.14-.31-.25-.46-.32-.56.1-1.12.21-1.69.31.11-.2.19-.45.26-.9-.06,0-.12,0-.18,0-.52.31-1.04.63-1.55.95.01.03.03.07.05.09-.14.21-.12.25-.2.77.08,0,.16,0,.25,0-.01.03-.02.06-.03.09Zm-10.8,8.66c-.06-.04-.12-.08-.18-.13.12,0,.18,0,.3-.09-.04.07-.08.14-.12.21Zm3.8,3.05l5.02,5.57s.03,0,.04,0c.41.39.49.47.93.5.15.34.21.6.22.84l1.43,1.59,1-.9c-.12.05-.25.08-.42.13-.08-.33-.17-.61-.28-.99-.58-.17-.32-.05-.67-.27-.17,0-.33,0-.5.02.2-.25.24-.3.29-.5.17,0,.35-.01.52-.02.52-.57.38,1.17,1.12.89.29.19.7-2.05,1.04-1.95-.01.86-.2,1.55-.75,2.35,0,.02-.02.04-.03.06l2.52-2.27-1.53-1.7-1.62,1.46-1.54-1.72s0,0,0,0c.2.87.03.99-.5,1.71-.52-.45-.46-.45-.84-.58-.03-.04-.06-.08-.09-.12.13.02.28.03.49.05.18-.52.05-.29.3-.6-.04-.15-.09-.31-.13-.46.09-.03.2-.06.35-.08.15-.12.3-.25.45-.38,0,.06,0,.11,0,.14l1.22-1.09-.43-.47c-.01.19-.03.38-.04.56.04,0,.08,0,.12,0-.1.1-.21.2-.34.32-.4-.02-.13-.05-.65.12-.56-.76-.67-1.37-.5-1.81l-1,.9-1.45-1.61,1.47-1.33-1.53-1.7-2.04,1.83c.04.07.08.13.13.19-.06-.03-.13-.08-.2-.12l-1.58,1.42ZM54.04,5.17c2.87-1.06,5.84-1.95,8.91-2.62,2.14-.47,4.28-.82,6.42-1.07.1-.09.21-.18.31-.28.03.07.05.15.07.23.9-.1,1.81-.19,2.71-.25,0-.12.02-.24.03-.37.35.02.71.04,1.06.06,0-.13,0-.25,0-.37-.38.02-.76.05-1.15.08,0,.06-.02.1-.03.17-.16,0-.32-.02-.48-.03-.05-.04-.09-.06-.13-.1-2.97.25-5.95.68-8.94,1.34-3.1.68-6.1,1.58-9,2.65.07.15.13.31.16.49.02.02.04.05.06.07ZM78.57.64c.07.08.13.17.2.25-.03.04-.05.08-.08.12,2.56.05,5.09.26,7.6.6-.28-.18-.4-.26-.86-.71,0,0,0,0,0,0-2.94-.36-5.92-.54-8.93-.5-.06.2-.14.41-.24.61.62,0,1.24,0,1.86,0,.15-.13.29-.24.43-.37Zm1.35,4.94c1.15.05,2.29.12,3.42.23,0-.23,0-.47,0-.74l.55-.37c.04.09.1.2.16.35.06,0,.11-.01.16-.02l-.07.87c.39.04.78.09,1.17.14l-.1-.16,1.36-.92.64.95c-.1.14-.18.26-.25.37,3.47.55,6.86,1.38,10.15,2.49.37.03.71.14.99.34.94.33,1.86.69,2.78,1.07.52-.44,1.04-.87,1.55-1.31-4.04-1.72-8.26-3.04-12.61-3.91.14.17.27.34.41.51-.16.27-.31.55-.47.82-.21-.56-.16-.29-.19-.7-.07-.09-.14-.17-.2-.26.15-.13.3-.25.44-.38-4.05-.81-8.22-1.23-12.44-1.24.04.05.09.1.13.15-.19.17-.39.33-.59.5,1.04-.21,2.41.29,3,1.21ZM15.2,60.91c1.24-10.8,5.3-20.97,11.55-29.59,0-.04-.01-.07-.02-.11.04,0,.07,0,.11-.01.43-.59.87-1.17,1.32-1.75-.1-.23-.23-.48-.41-.78.59-.5,1.18-1,1.77-1.49-.17,0-.34.02-.5.04-.32-.48-.47-.75-.55-.98-2.43,2.85-4.61,5.89-6.52,9.11.08.06.16.13.26.23-.12,0-.25,0-.39-.01-4.57,7.8-7.52,16.58-8.48,25.77l1.86-.41ZM88.08,20.18c-.09.43,1.38,1.11,1.17,1.49-.48-.21-.76-.17-1.09-.06-.04-.14-.09-.28-.13-.45-.58-.17-.32-.05-.67-.27-.01,0-.02,0-.03,0l-.2.73,2.51.7s.09-.09.14-.13c.09.09.17.17.25.24l.71.2c.69.19,1.21.3,1.57.32.36.02.68-.03.97-.16.28-.12.52-.34.7-.65.19-.31.42-.96.69-1.95l1.07-3.86c.29-1.04.45-1.75.49-2.12.04-.37-.03-.74-.21-1.1-.11-.22-.27-.42-.47-.6-.06,0-.12,0-.17-.01-.06-.09-.1-.16-.15-.23-.05-.03-.09-.06-.14-.09-.33-.19-.92-.42-1.74-.67.18.43.09.76-.26,1.37-.14-.23-.27-.47-.41-.7.01-.03.02-.06.04-.1-.03,0-.07,0-.1,0-.18-.31-.36-.62-.54-.92,0,0,0,0,0-.01l-1.89-.53-2.05,7.38s.06-.04.09-.07c.17.86.28.33-.17.96.4.5-1.09,1.13.04,1.32Zm4.44-6.9c.31.09.52.18.61.28.09.1.14.22.13.37,0,.15-.08.47-.22.97l-1.19,4.28c-.2.74-.38,1.17-.52,1.31-.14.14-.42.15-.83.04l2.01-7.25Zm-38.67-3.21c-.09-.11-.19-.23-.28-.35.55-.1,1.09-.18,1.63-.17.99-.37,1.99-.72,3-1.05,0-.03,0-.05-.02-.07.71-.38.97-.36,1.39-.35,1.43-.42,2.87-.8,4.35-1.13.4-.09.8-.16,1.2-.24,0-.01,0-.02,0-.03-.18-.08-.38-.15-.59-.21.05-.2.12-.42.2-.64.43.1,0,.04.43.07.18.26.31.5.42.72,2.99-.57,5.97-.92,8.93-1.06.27-.31.73-.48,1.3-.45.15-.13.3-.26.45-.37.14.17.28.33.41.51.01.15.01.21.02.25.71,0,1.41,0,2.12.01-.03-.01-.06-.03-.09-.04l.04-.27-1.08-.17-.03.21c-.12-.01-.24-.03-.37-.04-.18-.22-.36-.45-.54-.67-.03.03-.06.05-.09.08-.33-.49-.5-.71-.57-.9-1.2.02-2.4.09-3.61.18-.03.06-.07.15-.13.31-.1-.06-.19-.13-.29-.2-.18.15-.35.3-.53.44-.71-.14-.96,0-1.57-.31-.66.08-1.32.16-1.98.26.07.16.05.1.07.4-.1-.12-.19-.24-.29-.37-1.39.21-2.78.46-4.18.76-1.64.36-3.26.79-4.84,1.26.03.03.06.07.08.1-.15.13-.3.25-.45.38-.6-.03-1.36.13-2.08.31-2.06.71-4.05,1.52-6,2.43.15.41.13.74.24,1.36-.38.31-.75.63-1.12.94-.39-.15-.72-.29-1.01-.43-.05-.35-.11-.61-.18-.87-.95.48-1.88.99-2.8,1.51,0,.1,0,.2.02.3.61.35,1.06.67,1.52.91,2.22-1.24,4.54-2.35,6.94-3.32Zm22.57,3.68c.07-.34.09-.79.04-1.37-.08-.97-.29-1.67-.64-2.09-.35-.42-.77-.66-1.28-.73-.5-.07-1.45-.05-2.85.06l-2.1.17.9,11.4,2.96-.24-.41-5.14c.41-.03.67.02.77.16.11.14.19.51.23,1.12l.3,3.79,2.75-.22-.24-3.01c-.06-.75-.12-1.25-.17-1.52-.07.1-.15.23-.25.38-.15-.4-.21-.52-.23-.63l-.57.51-.1-1.28.58.12c-.24-.19-.6-.32-1.13-.41.64-.11,1.06-.33,1.26-.65.06-.09.1-.22.13-.36l-1.03.04.92-.72h.08c-.02.21-.03.42-.05.62.03,0,.06-.02.09-.03Zm-2.73-1.44l.05.63c.04.5,0,.8-.13.91-.11.09-.32.14-.58.18-.04,0-.06.01-.1.02v-.13c-.13-.11-.07-.05-.26-.46.07,0,.14,0,.21,0l-.15-1.93c.34-.03.58,0,.72.11.14.1.22.33.25.7Zm6.09,7.73c.12-.03.27-.06.6-.12-.01-.05-.02-.08-.04-.12.15.18.31.36.47.55-.05-.14-.1-.29-.16-.48.52-.44.75-.71,1.03-.77,0,.25,0,.51.01.79.26.3.21.27.38.87.15,0,.3,0,.44-.01-.04.09-.09.19-.13.28l1.77.17c-.08-.31,0-.31-.06-.78.08-.06.15-.13.23-.18.14.17.27.35.41.51-.09.16-.18.32-.27.48l.38.04.22-2.28-2.17-.21.24-2.5,1.85.18.21-2.17-.36-.03s.05.09.07.12c0,0,0,0,0,0,0,.11-.01.22-.02.33-.08.11-.13.21-.18.32-.25-.17-.13-.11-.46-.2-.19-.23-.37-.46-.55-.69l-.34-.03.21-2.16,1.98.19.02-.21c-.36-.35-.32-.05.04-.91.02.01.03.02.04.03l.11-1.18-4.93-.47-1.01,10.67Zm4.71-8.99c.07.09.13.17.21.26-.15.13-.3.26-.45.38.06-.4-.02-.14.24-.64Zm-1.99-1.29c0,.1.02.22.04.41h-.02c-.04-.16-.07-.27-.09-.36.02-.02.05-.03.07-.05Zm.44,7.33c-.14-.17-.27-.35-.41-.51.07-.06.15-.12.22-.19.21.57.16.29.18.71Zm.52-2.16c-.27-.34-.55-.68-.83-1.02.59.25.71.37.83,1.02Zm-1.75-4.42c.03-.13.14-.26.36-.43,0,.01,0,.02,0,.03-.12.14-.05.06-.24.52.06,0,.13,0,.19,0-.03.34-.06.68-.09,1.02.02,0,.05,0,.07,0-.01.02-.02.04-.04.07-.76-.38-1.03-.16-1.26-1.1.07-.4-.02-.14.25-.63.25.17.5.35.75.52ZM11.09,57.74c-.16,0-.31.01-.47.02-.04.11-.09.2-.14.29-.02,0-.03,0-.05-.01-.09.63-.19,1.27-.26,1.91,0,0,.02-.02.02-.03l.26.38-.34.23c-.06.51-.12,1.02-.17,1.54l.62-.14c.13-1.41.31-2.8.53-4.19Zm5.47-18.7c-.1,0-.19,0-.29-.01,0-.02,0-.05,0-.07-.17.36-.33.72-.49,1.08.3-.23.57-.54.78-.99Zm-1.72,4.76c-.31.42-.54.74-1.11,1.25-1.1,3.04-2,6.17-2.66,9.37.15.01.35.03.6.07.76-3.66,1.82-7.24,3.16-10.69Zm.16-.4c.43-1.1.9-2.18,1.39-3.25-.25-.01-.09-.03-.56.12-.03-.06-.06-.1-.09-.15-.37.81-.72,1.63-1.06,2.46.06.07.12.15.18.22.03.39-.02.18.14.59Zm2.12-4.8c.99-2.03,2.09-4.01,3.28-5.93-.17-.1-.34-.2-.53-.3-1.2,1.94-2.3,3.94-3.31,6,.07-.06.15-.12.22-.18.11.14.23.28.34.42Zm118.25-4.03l.62-.14C125.86,16.74,108.15,4.57,88.18,1.28l-.07.42-.33-.49s-.08-.02-.12-.02c.08.18-.07.39-.08.49-.07.05-.12.07-.17.08,20.01,3.08,37.8,15.16,47.97,32.81Zm-1.39,12.07c-.33-.09-.91-.05-1.73.13l3.78,17.26c1.08-.24,1.7-.58,1.87-1.03.16-.45.05-1.55-.33-3.3l-2.23-10.19c-.26-1.19-.47-1.94-.62-2.26-.16-.32-.4-.52-.73-.61Zm2.2,14.67c-.14-.17-.28-.34-.41-.51.52-.16.26-.13.65-.12.07-.06.15-.12.22-.19-.09.4-.08.34-.46.82ZM20.48,32.5s.01.01.02.02c.03-.05.06-.1.09-.15-.03.04-.07.08-.11.14Zm89.31-4.44l-.97.59c.14.49.08.83.08,1.27l1.37.11c-.32-.39-.63-.78-.94-1.17.37-.48.38-.44.46-.8Zm-81.2-1.97s.09.01.14.03c-.02-.05-.04-.08-.06-.12-.03.03-.05.06-.08.1Zm51.83-5.25l.77.07c-.21-.04-.45-.08-.75-.1,0,.01-.01.02-.02.03Zm-37.4-10.41s.07-.04.1-.06c.15-.2.21-.28.32-.37.11,0,.23,0,.36-.02.19-.11.38-.22.58-.33-.1-.19-.2-.37-.31-.52-.56.31-1.11.63-1.66.96.02.09.05.18.08.31.18.01.35.02.53.03Zm-22.12,21.47c.64-1,1.31-1.98,2-2.95,0,0,0-.01,0-.02.02-.01.03-.02.04-.03.44-.61.89-1.21,1.35-1.81-.08,0-.16,0-.23,0-.09-.11-.18-.22-.27-.34-1.38,1.79-2.68,3.65-3.87,5.57.35-.22.7-.44,1.05-.65-.02.09-.04.16-.05.22Zm8.95-4.74c.02.06.03.12.05.19.05-.06.1-.12.15-.18-.07,0-.13,0-.2,0Zm5.95-11.75c-.04-.05-.09-.1-.13-.16.15-.12.3-.25.45-.38.09.03.17.06.25.08,1.82-1.41,3.72-2.72,5.69-3.94-.12-.17-.24-.33-.37-.48-6.88,4.27-12.86,9.71-17.73,15.98.28-.05.57-.09.85-.11,3.21-4.06,6.89-7.76,10.99-11ZM86.59,1.65c.23.03.46.06.69.09-.09-.09-.04-.37.04-.6-.37-.06-.73-.1-1.1-.14.24.12.48.24.71.37-.11.09-.23.19-.35.29Zm-33.54,3.89c-.14-.16-.26-.32-.37-.5-2.64,1.03-5.19,2.22-7.64,3.55.15.14.3.29.46.44,2.42-1.31,4.95-2.47,7.56-3.48Zm-9.79,14.71l-.32.21,2.65,2.69c-.04-.07-.08-.14-.11-.2.64-.1.71-.15,1.18-.32,0-.2-.02-.39-.03-.58-.43.2-.86.42-1.29.62,0,0,0,0,0,0-.05-.11-.09-.23-.15-.38h.08s0-.15,0-.15c.46-.31.59-.41.99-.42.06-.05.11-.09.17-.14.08,0,.15,0,.23,0,.17.26.43.55.55.38.04.05.09.11.13.16-.31.4-.62.8-.93,1.2-.37-.01-.17-.04-.57.09l.72.73,2.06,4.88.42-.28s-.08-.1-.12-.15c.08-.07.17-.14.25-.21.19.1.4.2.64.29,0,.02-.02.03-.03.05-.36-.01-.18-.04-.54.08l-.21,1.19.04.09,2.44-1.56-.77-1.72c-.32-.75-.65-1.46-.97-2.11.66.73,1.27,1.37,1.85,1.94-.05-.13-.09-.25-.14-.34.06-.04.11-.07.17-.11l-.28-.42.91-.62.64.95-.91.61-.17-.26c-.04.05-.1.13-.17.21.39.38.76.73,1.11,1.04l2.32-1.48-4.76-4.53-1.65-4.32c-.04.06-.09.12-.13.21-.36-.01-.12-.05-.63.12-.07-.09-.13-.17-.2-.26.14-.11.27-.23.41-.35l-1.74,1.11.79,2.07c.11.12.23.26.36.4-.05.04-.1.09-.16.13l.14.37c-.08-.09-.17-.18-.25-.27-.01,0-.02.02-.03.03l-.61-.65s.01-.01.02-.02c-.07-.07-.14-.14-.22-.22-.29-.29-.52-.54-.71-.74,0,.02,0,.04,0,.06-.03-.03-.05-.06-.08-.09.02,0,.04.01.05.02-.15-.16-.28-.3-.37-.4l-1.13.72c.44.28.22.19.59.3,0,.45-.06.85-.18,1.24l-1.38-.92Zm3.63,1.04s-.08.07-.12.1c-.01,0-.03,0-.04.01,0-.04,0-.08,0-.12h.17Zm-.73-.61c.15-.1.26-.18.36-.24l-.03.56s-.08,0-.13,0c-.09-.13-.15-.23-.2-.32,0,0,0,0,0,0Zm88.86,81.27c.22-.03.42-.06.64-.1.02.04.04.06.06.1.23-.39.45-.79.67-1.19,0-.09.01-.19.02-.28-.18,0-.37-.02-.54-.03-.28.5-.56,1-.85,1.5Zm2.55-17.49c.53-.36.64-.46,1.07-.47.05-.04.09-.08.14-.12-.38-.12-.68-.17-.99-.25-.07.28-.14.57-.22.85Zm-5.45,13.48c-.04.06-.07.13-.11.19.43.18.85.44,1.48.5.1.05.17.08.24.11,2.31-4.23,4.14-8.72,5.46-13.4-.36-.14-.49-.15-1.02-.54-.08.07-.15.12-.22.19-.13-.16-.26-.32-.39-.48-.53,1.91-1.15,3.79-1.86,5.64.03.03.05.07.08.1-.47,1.21-.51,2.22-.62,3.19-.24-.01-.52-.02-.8-.03-.48,1.08-1,2.15-1.55,3.2.05.05.1.1.15.17-.07.17-.13.34-.19.51-.15.45-.28.46-.65.66Zm5.99-10.26c0,.09,0,.21.02.37-.1-.12-.2-.24-.29-.36.09,0,.18,0,.27,0Zm-1.55,1.69c.41.2.67.33,1.07.39-.08.4-.08.34-.47.82-.57-.55-.52-.31-.59-1.21Zm6.44-8.21c.08.06.18.12.31.2-.09.45-.09.42-.04.89-.19.1-.37.17-.55.24-.24,1.09-.52,2.17-.81,3.24.39-.09.54-.13.7-.27,1.01-3.75,1.71-7.6,2.06-11.52l-.62.14c-.22,2.39-.58,4.75-1.05,7.08Zm-1.74-6.47l-1.86.41c-.28,2.42-.7,4.82-1.25,7.17.07,0,.14,0,.22,0,.53.55.63.69,1.05.84-.07.32-.08.35-.28.59.16.25.28.43.36.57.13-.51.26-1.02.38-1.54-.03-.04-.06-.08-.1-.12.06-.07.12-.14.18-.2.58-2.53,1.02-5.1,1.3-7.71Zm-38.42,33.23l-4.33,2.41,2.68,4.83c.6-.03,1.2.08,1.8.31.08-.06.15-.13.22-.19.07.09.14.17.21.26-.15.13-.3.25-.45.38-.38-.02-.83.05-1.28.14l2.37,4.27,3.08-1.71s-.07-.08-.1-.12c.23-.19.45-.38.68-.57.07.09.14.17.21.25l.64-.36-1.11-2-1.91,1.06-1.22-2.2,1.2-.67s-.05-.03-.09-.04c-.13-.44-.22-.69-.38-.88.02-.05.02-.08.06-.29.07-.06.14-.11.21-.16l-.43-.77-1.62.9-1.05-1.9,1.73-.96-1.11-2Zm12.19.84l-2.51-3.12c-.68-.85-1.16-1.39-1.44-1.64-.28-.25-.62-.41-1.02-.48-.39-.07-.83,0-1.31.22-.48.21-1.27.77-2.4,1.67l-1.73,1.39,7.16,8.92,2.92-2.35c.06-.05.11-.09.16-.13-.18-.06-.39-.16-.66-.35-.08.06-.15.12-.23.18-.36-.85-.34-1.29-.57-2.1.58-.52,1.44-1.29,1.99-1.74-.11-.15-.24-.31-.37-.48Zm-2.38,5.01c-.13-.17-.27-.34-.41-.51.08-.06.15-.12.23-.19.21.57.16.29.18.71Zm.23-1.43l-4.71-5.87c.25-.2.45-.31.58-.33.13-.02.26.02.38.11.12.09.34.34.66.75l2.78,3.46c.48.59.73.99.76,1.19.03.2-.12.43-.45.7Zm-24.14-3.92s0,.06.01.11c-.02-.03-.05-.06-.07-.09-.79.22-1.58.42-2.38.6-.53.12-1.06.22-1.6.32-.03.03-.07.06-.1.09-.03-.02-.07-.04-.1-.05-3.96.69-7.9.79-11.73.38.04.03.07.05.12.08.4.19.46.31.63.64-.2-.06-.44-.11-.74-.16.04.41.08.81.13,1.22-.02.02-.04.04-.07.06.58.06,1.17.11,1.75.14-.06-.18-.12-.35-.19-.49,1.33-.5,2.03.47,3.38.48.02.03.05.06.07.09.07,0,.14,0,.21,0,.2-.55.08-.74.3-1.25.25.38.43.8.62,1.23,1.01-.04,2.03-.11,3.04-.23-.11-.04-.21-.08-.32-.12.28-.58.88-.48,1.11-.5.15-.12.29-.25.44-.37.22.66.18.58-.11.85,1.18-.16,2.37-.36,3.55-.62,5.39-1.18,10.32-3.32,14.67-6.18-.17-.21-.33-.44-.7-.94.83-.35,1.21-.27,1.96-.37.08.09.17.18.25.27,4.83-3.48,8.87-7.9,11.91-12.93,0-.1,0-.21-.02-.32.06.02.11.06.16.08,2.03-3.41,3.61-7.1,4.66-10.96l-2,.44c-3.99,13.44-14.6,24.52-28.84,28.54Zm37.21-13.7l.19-.57c-.1.09-.2.19-.28.29l.09.28Zm8.66,7.94c-2.5,4.13-5.43,7.99-8.76,11.5.03.23.05.48,0,.81,0,.01.01.02.02.03,1.53-1.59,2.99-3.25,4.36-4.98-.05-.05-.1-.09-.15-.15.08-.07.15-.13.23-.19.04.02.09.05.13.07,1.57-2.01,3.04-4.1,4.37-6.27-.25-.43-.26-.45-.21-.81Zm-79.03-2.67c0,.11,0,.23-.01.37.24.21.43.47.6.74,8.46,5.41,18.98,7.6,29.55,5.29,13.94-3.05,24.54-13.21,28.81-25.84l-.69.15c-.15.43-.31.85-.47,1.27.17.09.34.17.51.26-.12.22-.17.34-.26.48-.09-.22-.19-.44-.28-.65-4.56,11.64-14.65,20.87-27.75,23.75-9.47,2.08-18.91.47-26.81-3.86-.55.09-.86-.21-1.31-.46,0-.1,0-.19,0-.29-.64-.38-1.27-.78-1.88-1.2Zm-23.97-52.7l2.34-1.68-4.11-.02-1.25-3.92-1.29,3.9-4.11-.02,3.31,2.43-1.29,3.9,3.34-2.4,3.31,2.43-1.12-3.5c-.11-.09-.23-.21-.41-.38.38-.31.75-.63,1.12-.94.05.06.11.13.16.2Zm89.94,66.12s.04-.06.06-.09c.38-.07.8-.04,1.21.06.3-.3.6-.6.9-.91-.34-.37-.66-.67-.95-.83-.02-.26-.05-.5-.08-.72-8.16,8.65-18.85,15.07-31.25,17.95.24.21.49.47.78.81-.3.25-.6.51-.9.76-.57-.85-.66-.88-.61-1.39-.01,0-.02,0-.03,0-7.64,1.67-15.26,1.86-22.56.77.29.33.5.67.57,1.09.14.17.28.34.41.51-.12.1-.24.2-.36.3,7.25.98,14.78.74,22.33-.91,7-1.54,13.49-4.17,19.32-7.67-.09-.09-.2-.19-.32-.31,0-.02,0-.04,0-.06-.06-.04-.11-.07-.16-.11-.02-.03-.04-.05-.07-.08.08-.07.15-.13.23-.19.3.21.52.34.68.51,3.08-1.88,5.98-4.01,8.66-6.35-1.1-1.57-.33-2.51.99-2.46-.01.22-.03.43-.04.64.26-.32.11-.08.34-.64-.08,0-.17,0-.25-.01.15-.12.29-.25.44-.36.14.17.28.33.41.51.03.36-.02.2.12.52.2-.19.4-.37.59-.56-.04,0-.08,0-.12-.01-.21-.25-.41-.52-.62-.77.02,0,.04-.01.06-.02.07,0,.13.01.21.02Zm-19.46,13.56c-.09-.11-.18-.23-.27-.34.01,0,.03,0,.04,0-.03-.09-.06-.17-.09-.25.02-.02.04-.03.06-.05.1,0,.21,0,.31-.01.24.15.2.15.33.18.02.03.05.06.08.09-.15.12-.3.25-.45.38Zm-52.68-31.32c1.7,1.71,3.56,3.26,5.53,4.63-.07-.12-.15-.27-.29-.48.1-.08.2-.16.29-.25-1.74-1.24-3.39-2.62-4.91-4.13-.06.08-.12.16-.2.26-.14-.03-.29-.03-.43-.04Zm-27.4,5.18c.82,1.37,1.68,2.7,2.59,4,.04-.01.08-.03.12-.04.1.18.17.35.22.52,2.68,3.75,5.74,7.17,9.12,10.23.06.03.14.07.23.1.08.17.12.16.11.2.31.27.62.54.93.81.22.1.39.22.61.52.09.08.18.16.28.23.14-.24.28-.49.42-.73.4.2.66.33,1.06.4.2.87.25.09-.03.89-.22-.11-.43-.22-.64-.33-.04-.51-.09-.15-.33.17,4.34,3.53,9.13,6.49,14.24,8.79.14,0,.31,0,.51-.01.03.04.06.07.09.11-.02.05-.04.1-.05.15.05.02.1.04.16.07.02,0,.04-.01.06-.02.02.02.04.05.06.07,3.47,1.51,7.08,2.72,10.8,3.6-.02-.03-.05-.06-.07-.09.15-.12.3-.25.45-.38.34.29.59.5.86.75,1.4.3,2.81.57,4.24.78-.56-.54-1-1.27-1.14-2.02-17.78-3.03-33.58-13.7-43-29.19l-1.86.41Zm25.81-2.93c-.47-.46-.93-.94-1.38-1.43-.27.28-.29.24-1,.76-.46-.65-.59-.92-.77-1.37l-.99.22c1.73,2.07,3.66,3.97,5.73,5.67.14-.03.28-.05.4-.02-.02.1-.06.19-.1.27.56.46,1.14.9,1.72,1.33.01,0,.03,0,.04,0,.9.27,1.31,1.06,1.69,1.16.01.01,0,.02-.04.01,4.23,2.8,8.93,4.88,13.91,6.09,0-.07,0-.14-.01-.21-.12-.05-.21-.09-.28-.13.01-.17-.05-.31-.14-.73.15-.12.3-.25.45-.38.63.69,1.24,1.24,1.7,1.83,1.32.26,2.66.47,4.01.61-.12-.1-.24-.2-.35-.3.24-.08-.03.13.32-.48-.3-.32-.03.02-.27-.35-.1,0-.2,0-.29-.01-.02.2-.03.39-.04.59-.37-.33-.73-.7-1.19-1.27.13-.07.24-.13.34-.19-6.84-1-13.27-3.67-18.75-7.68-.05.08-.09.16-.14.25-.15-.4-.17-.38-.17-.48-.84-.63-1.66-1.28-2.46-1.97.03.07.06.15.12.26-.39-.01-.13-.05-.66.12-.2-.25-.41-.51-.62-.77.08-.06.15-.13.23-.19.06.09.13.17.2.26.2.03.33.05.42.06-.41-.36-.81-.74-1.21-1.11-.09.07-.18.15-.26.22-.43-.61-.44-.35-.16-.64Zm5.47,5.13c.07.01.14.03.21.04.04.05.09.11.13.17.05-.04.11-.09.16-.13.02,0,.04,0,.06,0-.07.32-.09.3-.45.76-.51-.32-.25-.21-.64-.33-.07-.08-.14-.17-.21-.25.25-.09.49-.17.74-.26Zm-6.17-4.63c-.14-.17-.28-.34-.42-.51.08-.06.15-.12.23-.19.21.57.16.29.19.7Zm94.89-12.08c-.07-.08-.14-.17-.2-.25-1.32,4.67-3.13,9.18-5.4,13.43.04.29.02.5.16.96,2.35-4.28,4.25-8.82,5.63-13.54-.14-.25-.15-.29-.19-.6Zm-21.46-65.84c-.06,0-.13-.02-.21-.02.02-.03.06-.06.08-.09-1.53-1.38-3.11-2.68-4.76-3.9-.14.05-.19-.02-.2-.14-3.98-2.93-8.29-5.41-12.84-7.37-.12.26-.21.58-.26.98.39.18.35.13.44.23,0,.28-.02.55-.04.83,9.77,4.38,18.35,11.22,24.79,19.91-.09-.21-.18-.43-.26-.64.48-.27.96-.54,1.43-.81-2.45-3.26-5.19-6.25-8.18-8.97Zm-15.92-9.15c-.2-.26-.41-.51-.62-.77.08-.06.15-.12.22-.19.43.1,0,.04.43.07.21.87.25.09-.04.89Zm28.4,88.67c-.77-.51-2.61,1.65-2.54.97-.1.09-.21.19-.32.28-1.95,3.1-4.17,6.03-6.63,8.75.1.13.2.25.3.38-.14.18-.28.37-.42.55,0,.02,0,.04,0,.07.14.17.27.34.41.51.25-.49.18-.23.25-.64.72-.38,1-.37,1.36-.28,2.89-3.27,5.43-6.83,7.6-10.6Zm-15.3-69.39l-3.13-2.66,1.3-3.14s-.12.04-.28.1c-.02,0-.05,0-.07,0-.06-.08-.12-.16-.19-.24.02-.02.04-.04.07-.05l-2.75,1.69-3.13-2.66.97,3.99-.33.2c0,.34,0,.69-.01,1.08.68.13.72.19,1.15.39.01-.22.03-.44.05-.66.37-.45.56-1.01.67-1.7.18.13.1.08.4.17-.01.83-.19,1.5-.69,2.26l-1.03-.05-.04.7s-.07.03-.1.04l.51.04.96,3.99,1.45-3.51s-.08.03-.13.05c-.41-.65-.41-.73-.6-1.22.57-.38.67-.48,1.1-.5.15-.13.3-.25.45-.38.21.25.41.52.62.77-.26.34-.53.69-.79,1.03l3.56.28Zm14.87,4.58c-1.12-1.88-2.33-3.68-3.63-5.42-.27.45-.63.88-1.22,1.39,1.05,1.43,2.05,2.91,2.98,4.45l1.86-.41Zm-92.52,20.27l.69-.15c3.74-10.7,12.1-19.55,23.19-23.62-.07-.19-.15-.39-.23-.56-11.38,4.18-19.92,13.31-23.66,24.33Zm28.81-25.84c-1.69.37-3.34.85-4.93,1.42.09.19.16.38.2.57,1.57-.57,3.19-1.04,4.86-1.4,13.6-2.98,27.13,1.63,36.16,10.98l.69-.15c-9.17-9.68-23.03-14.47-36.98-11.42Zm39.86,10.38c.55-.28.48-.3.88-.31.33.11.34.12.63.39l.66-.15c-10.08-12.03-26.3-18.24-42.66-14.79-.13.11-.27.22-.4.33,0-.1,0-.18,0-.25-2.64.58-5.17,1.4-7.57,2.41.02.02.03.04.05.06-.07.06-.15.13-.22.19.14.17.28.34.41.52-.23.19-.45.38-.67.56-.32-.47-.46-.66-.54-.91-2.54,1.14-4.93,2.52-7.16,4.09.16.19.31.38.47.58-.15.13-.3.25-.45.38-.23-.16-.46-.32-.69-.47-1.96,1.43-3.78,3.02-5.46,4.74,0,.04.02.07.06.17h-.21c-.25.25-.5.52-.75.79l-.04.82c-.08.07-.16.15-.25.23-.4-.01-.13-.05-.66.12-.02-.02-.02-.04-.04-.06-3.58,4.16-6.36,8.98-8.18,14.18.11-.1.19-.17.23-.17.15-.13.29-.25.44-.38.13.15.25.3.37.46-.01.03-.02.06-.03.09-.09.15-.11.34-.1.56-.09.08-.17.16-.26.25-.45-.12-.33-.09-.74-.48-.01,0-.02,0-.03.01-.3.87-.57,1.74-.81,2.63l2-.44c.81-2.74,1.9-5.37,3.24-7.88-.11-.09-.23-.21-.41-.39.38-.31.75-.63,1.12-.94,0,0,.01.02.02.02,2.08-3.59,4.69-6.87,7.75-9.72-.21-.76-.15-.62.06-1.3.07.09.14.17.2.26.08-.06.15-.13.23-.19.07.09.14.17.21.26-.19.36-.23.47-.51.8,2.44-2.25,5.17-4.22,8.13-5.85-.07-.08-.13-.16-.19-.24.07-.06.14-.13.22-.19.07.19.11.28.14.34,1.25-.68,2.54-1.3,3.87-1.86,0-.05,0-.1,0-.15-.07-.08-.14-.17-.21-.25.08-.06.15-.13.23-.19.25.1.5.19.75.27.14-.05.27-.11.41-.16-.06-.28-.08-.62-.15-1.06.3-.25.59-.5.9-.76.5.32.25.21.64.32.25.39.37.64.44.84.19-.06.39-.12.58-.18-.11-.37-.14-.71-.25-1.22,1.61-1.54,1.18-1.06,1.14.95.89-.26,1.79-.49,2.71-.69,10.19-2.23,20.34-.54,28.88,4.06.27-.16.53-.28.8-.37.28.48.42.8.47,1.09,3.85,2.25,7.33,5.1,10.31,8.46,0-.06-.01-.12-.02-.21Zm-65.81,62.09l-.7,1.53c.28,0,.62,0,1.01.01l-.31-1.54Zm27.06,22.19c.23-.79.43-1.53.6-2.25.07,1.66.2,3.08.38,4.25l2.73.34-.53-4.44c-.1,0-.19,0-.29,0-.1-.15-.22-.5-.64-.23.04.08.1.17.17.26-.35.03-.72.08-1.13.14-.27-.34-.55-.68-.83-1.02,1-.77,1.79-.84,2.54-.7l-.06-.53.7-2.06c-.36.02-.73.09-1.1.25-.18-1.13.74-1.8.56-3.05.04-.02.08-.03.12-.05.02.38.04.77.06,1.15.13,0,.26,0,.39-.01.15.12.26.2.46.28l.44-1.3c-.2-.04-.39-.08-.59-.11-.07-.03-.16-.06-.27-.11l-1.58-.2-.14.4s0,0,.01-.01c.01.02.02.04.03.05-.02,0-.04,0-.06,0l-.14.42c.17.07.1.03.31.24.08-.03.14-.06.2-.07.02.08.04.16.05.31-.19-.14-.39-.27-.59-.41l-.7,2.07c-.02-.48-.06-1-.11-1.57-.06-.75-.1-1.28-.11-1.6l-2.85-.36.45,5.15-1.86,6.19,2.87.36.51-1.82Zm.12-5.25c.07.09.14.17.21.26.07-.07.14-.12.22-.19.18.92.3.26-.26,1.08-.97-.65-.66-.18-.17-1.15Zm6.87,4.31l.16,3.36,2.97-.14-.22-4.6.8-.04c.65-.03,1.17-.15,1.56-.34.39-.2.66-.47.79-.81.13-.34.18-.88.15-1.6l-.05-1c-.03-.71-.1-1.24-.19-1.58-.03-.12-.09-.23-.14-.34-.3-.23-.61-.51-.94-.88-.13-.05-.26-.1-.41-.13-.44-.11-1.07-.14-1.87-.1l-.42.02s0,.08-.02.14c-.32.21-.5.34-.66.41,0-.04,0-.07.01-.11-.3-.17-.48-.27-.61-.38l-1.29.06.31,6.58c.42.54.76,1.06.83,1.51.07.09.14.17.21.26-.08.07-.15.13-.23.19-.26-.17-.5-.33-.74-.47Zm5.13-6.24c-.08.4-.08.34-.46.82.08-.4.08-.34.46-.82Zm-2.45-.01c.38-.02.64.03.77.14.13.11.2.36.22.75l.05.94c.02.42-.02.7-.12.84-.1.14-.29.21-.56.23-.06,0-.13,0-.22,0l-.14-2.9Zm7.02,6.11l.51,2.62,2.92-.57-.06-.32c-.29,0-.59,0-.88.01-.14-.17-.28-.34-.41-.51.46-.27.8-.38,1.11-.44l-1.94-9.97-2.92.57,1.4,7.2c.44.15.86.38,1.35.46.47.99.45.29.17,1.15-.44-.09-.88-.09-1.25-.2Zm1.99-5.15c.25.5-.23.55-.34.64-.62-.11,0-.5.34-.64Zm-46.61-8.19l3.03,2.78-.82-4.03,1.14-.64c-.45-.29-.23-.19-.61-.3-.07-.09-.14-.17-.21-.25.15-.13.3-.26.45-.38.32.58.34.55.39.92l2.41-1.36-4.08-.47-.44-2.15c-.24.6-.73,1.47-1.28,2.14-.32-.51-.39-.67-.5-.95l-.31.67-3.26-.37v.26c-.09.08-.18.12-.33.1l1.85,1.7c.07-.21.11-.42.12-.67.15-.12.3-.25.45-.38.14.56.06,1-.13,1.45l.24.22-1.7,3.74,3.58-2.02Zm22.47,10.47l.61-2.09-1.78-.52.61-2.08,1.9.56.64-2.2-4.76-1.39-.83,2.84c.06,0,.13,0,.19,0,.03.11.05.23.08.34.6-.31.37-.04.47-.32.1,0,.2.01.3.02-.24.25-.51.5-.84.78-.14-.03-.29-.03-.44-.05l-2.15,7.35,4.95,1.45.64-2.2-2.09-.61.71-2.41,1.78.52Zm25.95-6.1l3.58,10.09,2.8-.99-1.72-4.86c.39-.14.65-.15.79-.05.14.11.31.45.51,1.02l1.27,3.58,2.6-.92-1.01-2.84c-.31-.87-.52-1.39-.64-1.57-.12-.18-.31-.35-.58-.51-.27-.16-.71-.22-1.31-.16.59-.27.94-.59,1.05-.96.11-.36.01-.96-.29-1.8-.33-.92-.71-1.54-1.15-1.85-.44-.31-.92-.44-1.42-.38-.51.06-1.42.33-2.74.8l-1.57.56c.15,0,.31,0,.51-.01.29.19.56.39.85.58-.15.12-.3.25-.45.38-.45-.1-.71-.16-1.08-.11Zm5-.62c-.15.12-.3.25-.45.38.11-.62-.14-.56.45-.38Zm-1.07.7c.16.06.3.27.42.61l.21.59c.17.47.21.78.11.91-.1.13-.3.25-.62.37l-.85-2.4c.32-.12.57-.14.73-.08Zm-44.64-18.95c.07-.01.13-.02.18-.03-.06-.06-.13-.13-.19-.19,0,.07,0,.15.01.22Zm74.94-4.56l1.08,3.4c.05-.12.08-.24.1-.34.12-.02.24-.02.35-.02l1-3.03h2.2c-.54-.24-.61-.17-1.24-.62.04-.03.08-.06.12-.09.15.1.12.09.29.13,0,.01.02.02.03.03,0,0,.02-.01.02-.02.06.01.13.04.24.07.11-.05.22-.11.33-.16.18.32.2.35.24.68h.46c0-.11,0-.22,0-.37.14-.12.28-.24.43-.36l-2.31-1.7,1.29-3.9-3.34,2.4-3.1-2.28c-.03.08-.06.15-.09.23l1.13,3.53-3.34,2.4,4.11.02Zm23.4-53.84c-.18-.12-.36-.24-.53-.37.06-.1.11-.19.16-.29-.99-1.46-2.79-2.25-4.61-1.85l-12.91,2.83s0,.1.01.24c-.05-.07-.11-.14-.16-.21l-27.54,6.04.24.35-1.36.92.52-1.14-28.99,6.35c-.17.25-.43.58-.84,1.03l-1.55-.33c-.02-.06-.04-.11-.06-.16l-6.49,1.42s-.01,0-.02.01c.08.33.16.65.23.98h-.08s-.53-.77-.53-.77c0-.04.01-.09.02-.13l-2.4.53.13.2-2.06.65c.03-.13.06-.28.09-.45l-22.73,4.98c.15.04.28.08.41.1.11.17.22.35.33.52.22.09.44.18.67.27.04-.05.08-.09.11-.13.03.04.07.08.1.12-.62.44-.85.53-1.32.68-.29-.19-.57-.39-.85-.58.08-.21.16-.42.24-.64-.07-.08-.13-.16-.19-.24l-3.75.82c-.58.56-1.19,1.11-1.89,1.65.02-.16.35-.65.84-1.31.14-.06.28-.13.42-.2l-17.84,3.91c.06.05.13.11.22.19-.22.19-.45.38-.67.57-.13-.35-.16-.38-.17-.44l-.4-.09-9.38,2.06c-2.39.52-3.9,2.88-3.38,5.28l1.59,7.27s.07,0,.11,0c.04.21.03.37,0,.52l4.39,20.05c.43,1.96,2.1,3.33,4.01,3.47-.1-.14-.19-.27-.29-.41.07-.03.13-.05.19-.09.15.2.26.36.35.51.34,0,.68-.02,1.02-.1l27.37-6s0-.01,0-.02c-.06,0-.12,0-.17,0,.25-.34.47-.29.69-.09l2.27-.5c.03-.65.07-1.24.24-1.18.02.37.03.75.04,1.12l.9-.2s.07-.06.11-.09c.02.02.03.04.04.06l18.54-4.06s0,0,0-.01c.08-.07.15-.13.23-.19.04.04.07.09.11.13l5.44-1.19s-.05-.07-.08-.1c.15-.12.3-.25.44-.37.2.07.42.16.66.25l10.1-2.21c-.06-.07-.12-.15-.18-.22.07-.06.15-.12.22-.19.43.27.31.24.5.29l9.91-2.17-.67-.34-.08.49c-.4-.02-.79-.05-1.23-.04-.2-.25-.41-.51-.61-.77.69-.42,1.06-.46,1.42-.37,0,.03-.01.05-.02.08.09,0,.18,0,.27,0,.25.08.53.19.93.26.16.2.32.4.48.59l24.48-5.36c.13-.23.26-.42.47-.63,0-.02-.02-.04-.03-.05.13.13.3.29.49.48l33.73-7.39c1.25-1.54,2.7-3.21,3.32-3.8.08.03.17.05.26.08,0-.09,0-.18,0-.28,0,0,.02-.01.03-.01,0,0,.02-.01.02-.02.22-.08.39-.16.52-.23.18.21.35.43.52.64-.51.45-.98.89-1.42,1.32-.22-.15-.07-.06-.59-.22,0,.1,0,.2.02.3.17,0,.34,0,.51-.01-.67.67-1.28,1.32-1.88,1.96l1.31-.29c2.39-.52,3.9-2.89,3.38-5.27l-6.1-27.85c-.07-.31-.17-.6-.29-.88Zm-78.94,14.5c.26-.17,1.68.11,2.51.18-.04.18-.08.36-.12.54.22,0,.45-.01.67-.02l-.87.59c-2.14-.03-.84-.56-2.91.59.02-1.09-.56-1,.73-1.87Zm-3.66.4l.42-.29.51.76c-.27,0-.54.02-.81.03,0,.09,0,.18,0,.27l-.63.07c.13-.3.25-.59.51-.84Zm-3.31,4.98l.93.2.13-1.42s0,0,0,0c.02-.24.04-.48.05-.72l1.61.11.91-.61.31.46c.11.24.19.4.29.51l-1.99.85-2.15,1.92-.1-1.28Zm-3.43-1.13c.22.01.45.02.67.03.02-.22.03-.44.05-.66-.5-.76-.41-.93-.23-1.75l1.05.61-.45,1.58.87-.24c.03.06.07.13.11.18l-.96.88,1.12.59c-.58.32-.91.48-1.17.54-.5-.41-.84-.65-1.69-.77l-.26-.39.89-.6Zm-3.33-1.72c.07-.06.15-.13.22-.19.14.17.28.34.41.51-.3.25-.59.5-.9.76-.18-.26-.83-1.33.26-1.08Zm-10.66,6.39c-.15.13-.3.25-.45.38-.14-.17-.28-.34-.41-.51.15-.12.3-.25.45-.38.14.17.28.34.41.51Zm-1.39-3.13c.21.56.16.29.19.7-.14-.17-.27-.34-.42-.51.08-.06.15-.13.23-.19Zm.19,5.86c.04.06.08.12.12.18-.42.03-.83.12-1.31.48.94.45,1.07.95,1.25,1.45-.12.1-.25.21-.37.31-.98-.7-.98-.95-1.22-1.98.83-.45.83-.32,1.53-.43Zm2.99,15.69c.05.21.12.39.19.55,0,.15.05-.05-.39.32.94.97,1.18.87,1.22,1.99-.02,0-.04,0-.05-.02,0-.05,0-.1.01-.16-.1,0-.2-.01-.29-.02,0-.11.01-.22.02-.33-.53-.3-.75-.49-1.42-.73.02.48.04.68.09.89-.32-.04-.63-.07-.94-.05-.71-1.2-.51-1.54-.98-2.62.16-.67-.14-.1-.64-.33.04-.35,0-.54.03-.89,1.03.49,1.78.42,2.77,1.11.08.02.12.03.16.04-.02.05-.05.12-.09.21.1,0,.19,0,.3.02Zm-4.12-4.94s0,0,0,0c-.32-.31.03-.02-.34-.29,0,.17.02.33.02.49-.28-.13-.47-.38-.7-.67.09,0,.17.01.27.01.18-.52.05-.29.3-.59-.02-.22-.04-.41-.06-.58.02-.05.03-.1.05-.14.14.07.22.17.56.47-.22.19-.45.38-.67.57.19.24.39.48.58.72Zm2.49,1.53c-.42-.08-.7-.04-1.21.06-.03-.32,0-.56.02-.8.12.02.27.05.47.08-.02-.22-.03-.36-.04-.47.2.09.41.2.62.31,0,.22,0,.44.02.68.05.06.09.1.12.14Zm-1.05-5.63c.16.29.31.57.47.85-.1.17-.2.35-.3.52-.13-.03-.27-.05-.45-.07,0,.06,0,.11-.01.17-.33-.21-.41-.24-.53-.82.02-.2.1-.45.17-.69.22.01.44.02.65.03Zm-3.97-8.68s0,0,0,0c0,0,0,0,0,0,.02-.03.03-.06.06-.1.07.09.13.17.21.26-.15.12-.3.25-.45.38.06-.36,0-.19.18-.52Zm-4.11,1.24s.02.02.04.03c0,.15.02.29.02.44-.08-.07-.17-.16-.29-.27.08-.06.15-.13.23-.19Zm-6.33,1.02c.31.55.34.55.38.88-.04,0-.08-.01-.12-.02,0,0,0,0,0,0-.23-.16-.47-.32-.7-.48.15-.13.3-.25.45-.38Zm-12.03,1.11s.04-.05.07-.08c.4.65.41.72.61,1.22-.26.22-.52.44-.78.66.03-.6.07-1.19.11-1.79Zm-4.59,2.55c.07-.06.15-.12.23-.19-.09.39-.08.33-.47.82-.14-.17-.28-.34-.42-.51.52-.16.26-.13.66-.12Zm-5.55,1.53c-.09,0-.18,0-.27-.01,0,.13-.02.26-.03.39-.3-.11-.44-.15-.93-.51.92-.3,1.15-.34,1.23.13Zm0,.05c.02.12.03.28.04.47-.07-.03-.14-.06-.2-.08.03-.05.04-.11.16-.39Zm1.03,18.55c-.08.06-.15.12-.23.19.07.09.14.17.21.25-.44.23-.89.46-1.33.69-.42-.36-.84-.73-1.26-1.09,1.23-.85,1.5-.63,2.6-.04Zm-4.02-7.8c-.52.34-.33-.37-.19-.7.53.19.21.55.19.7Zm-.37-1.41c.06.09.14.17.21.26-.15.13-.3.25-.45.38.07-.4-.02-.14.24-.63Zm-.88.31c.07.08.14.17.21.26-.15.13-.3.25-.45.38.06-.4-.02-.14.24-.63Zm7.16,20.22c-.69,1.05-.17,1.36-.32,2.41.06.08.12.16.17.23-.09,0-.18-.02-.27-.03-.04-.05-.07-.1-.11-.16-.03-.12-.05-.24-.08-.36-.09-.04-.17-.08-.25-.11-.74-1.04-1.54-2.1-2.2-2.65h0c.19-.29.34-.48.47-.67.08.1.16.2.24.29.25-.49.18-.23.25-.64,1.12-.59,1.17-.23,2.16-.11.5.7.6.96.81,1.47-.54.29-.49.3-.88.31Zm-4.49-27.19c-.13-.32-.26-.64-.39-.96.08-.06.15-.13.22-.19.47.99.44.29.17,1.15Zm.95-2.09c.07.09.14.17.21.26.08-.06.15-.12.22-.19.17.76-.27,1.51-.52,2.16-.27-.49-.54-.98-.81-1.47,1.14-.15.49.3.9-.76Zm19.73,23.57l-3.57.78c.17.76.25.2-.28.99-.5-.38-.63-.34-.76-.76l-8.39,1.84-2.58-11.76c-.54-.22-1.08-.4-1.69-.38-.23-.76-.06-1.49.18-2.12.29-.03.54-.2.82-.62l-.04-.18s-.09,0-.14,0c-.07-.08-.13-.16-.2-.23.08-.2.15-.38.17-.53l-2.28-10.41,2.51-.55c-.06-.23-.12-.46-.18-.69-.07.06-.15.12-.22.19-.31-.74-.23-.77-.38-1.4.29-.1.59-.21.88-.31.69.42,1.28.76,1.91.98-.22.29-.44.57-.65.86-.22-.02-.37,0-.66.15-.1.03-.19.06-.27.09-.06,0-.12-.02-.19-.04-.07.05-.13.11-.2.17l9.97-2.18,1.15,5.25-5.01,1.1,1.09,4.97,1.57-.34c-.28-.12-.59-.2-.96-.25.19-.12.36-.19.56-.22,0,.1,0,.2,0,.31.31,0,.61-.02.91-.03,0,.03,0,.05-.01.08l2.62-.57,1.09,4.99-.49.11c.44.2.15.54.14.68-.5.33-.35-.31-.21-.66l-4.12.9.3,1.38s.04,0,.06-.01c.74-.12.05,1.33.71,1.45.56,1.13.74-.2,1.15.86-.38.31-.75.63-1.13.94.37.56.51.72.58,1.05l5.1-1.12,1.15,5.25Zm-7.8-16.07s0,.05-.01.08c-.1-.05-.2-.1-.3-.15.02-.02.04-.03.06-.05.04.04.08.09.12.14.05,0,.09,0,.13-.01Zm3.5,7.47c.37.13.32.35.26.52-.13.02-.27.04-.41.05,0-.17.09-.41.16-.57Zm-.62-.77c-.44-.29-.5-.29-1.05-.84.82-.12.06-.25.86.14.07-.06.15-.12.22-.19.21.87.25.09-.04.89Zm6.35,8.84s0,0,0-.01c0,0,0,0,0,0,0,0,0,0,0,0Zm-4.34-20.85c-.58-.27-.63-.18-1.28-.65-.08.07-.15.12-.22.19-.14-.17-.28-.34-.42-.51.57-.38.67-.49,1.11-.5.15-.13.3-.25.45-.38.74,1.14.64.93.36,1.85Zm5.79,22.65c-.21-.57-.16-.29-.19-.7-.14-.17-.27-.34-.41-.51.07-.06.15-.13.22-.19.07.09.14.17.21.26.14-.12.29-.25.45-.38.27.77.01.65-.28,1.53Zm5.97,2.28c-.09-.11-.18-.23-.27-.34,0-.1.02-.21.02-.31.02-.02.04-.03.06-.05.21.56.16.28.19.7Zm.81-4.08c-.28-.29-.12-.07-.36-.58.11,0,.22,0,.33,0,0,.19.02.39.03.58Zm1.23,1.94c-.27-.34-.55-.68-.82-1.03.59.25.71.38.82,1.03Zm7.13-4.71c-.48.11-.66,1.23-1.57,1.32-.15.02-.52-.29-.85-.48-.45-.44-.76-.98-1.08-1.49.02-.04.04-.09.06-.13-1.27-2.29-2.58-5.04-3.93-8.27.18,1.71.3,3.52.37,5.46l.23,4.43-7.3,1.6-.04-1.29c-.16-.04-.34-.13-.66-.33-.07.06-.15.12-.23.19-.35-.98-.05-1.16-.13-2.04.39-.28.68-.46.93-.6l-.19-5.88c-.06-.02-.12-.03-.19-.05-.05.77-.03,1.3.01,1.81-.36.01-.72,0-1.24.13-.28-.2-.56-.39-.84-.59-.03-.41.03-.13-.19-.7.38-.47.76-.93,1.14-1.39-.42-.63-.53-.76-.6-1.21-.14-.17-.27-.34-.41-.51.37-.32.75-.63,1.12-.95.28,1.11.16.81.79,1.92.12-.03.24-.06.36-.09l-.12-3.66-2.51-5.24c.04.22.02.33.21.83-.37.32-.75.63-1.12.94-.33-.6-.34-.54-.39-.96-.14-.17-.28-.34-.42-.51.78-.17.85-.17,1.15-.48,0,.03,0,.06,0,.09.17,0,.34-.01.52-.02l-1.29-2.69c-.56.13-1.12.21-1.79.4-.14-.17-.27-.34-.41-.51.51-.63.92-.93,1.5-1.35l-.72-1.51,7.25-1.59c.08.19.18.42.29.67,0,0,0-.01,0-.02.16,0,.33-.01.5-.02-.03.24-.11.21-.31.45.28.63.65,1.41,1.09,2.35.6,1.22,1.11,2.34,1.55,3.38l.03-7.51,1.22-.27c0-.1.01-.2.02-.29.02-.05.03-.09.04-.12.11.08.17.17.23.35l4.78-1.05-.05,6.3s.08.05.13.07c-.05,0-.09,0-.13,0l-.04,5.8,7.18,13.76-1.02.22c.1.57-.11.56.09,1.32-.42.06-.69.11-1.09.05-1.52,1.1-.91.33-1.95-.09Zm1.85,2.31c.1-.61-.14-.56.45-.37-.15.12-.3.25-.45.37Zm2.17-.1c-.49-.23-1.18-.59-1.7-.71-.14-.17-.28-.34-.41-.52,1.58-.97,1.49-.25,3.09-1.31.2.4.4.81.6,1.21-.52.44-1.05.88-1.57,1.32Zm-1.32-16.58c.05-.17.05-.31-.07-.49-.3-.92-.74-1.48-1.42-2.01-.32.24-.1.11-.62.3-.04-.05-.09-.11-.13-.17,1.04-.72,1.51-.66,2.26-.66-.28.22-.21.16-.47.81.28.2.67.45,1,.71,0,.04,0,.07,0,.11.08.02.14.04.2.06.07.06.14.12.19.18.08-.02.16-.05.24-.07.12.02.26.04.46.06-.46.48-.93.95-1.39,1.43-.08-.09-.16-.18-.25-.28Zm2.37,6.66c-.01-.06-.03-.11-.04-.16.15,0,.29.01.44.02-.09.03-.21.07-.4.13Zm-.06-3.39c-.05.05-.1.09-.16.13-.17-.24-.34-.48-.5-.72,0-.04.01-.09.02-.17.3.1.34.12.56.31,0,.16.02.3.08.44Zm1.15,3.33c-.09-.02-.16-.04-.22-.06.09,0,.18,0,.27.01-.02.01-.03.03-.05.04Zm-2.35-10.05c-.27.2-.34.06-.53.09-.01-.17,0-.26.07-.57-1.45-.8-1.58-.45-2.74-2,.23-.16.43-.27.59-.35l-.04.76,1.14.06-.86-.92c.63-.21.85.17,1.77.41.33.94.36.5-.05,1.33.5.48.8.66,1.13.88-.08,0-.17,0-.25,0,.08.18.12.26.14.31-.12,0-.25-.01-.37-.02Zm10.28,17.57c-.07-.09-.14-.17-.21-.26-.73-.06-.49.04-1.27-.65.37-.31.75-.63,1.12-.94.26.49.54.98.8,1.47-.15.12-.3.25-.45.38Zm1.41-14.87l-2.01.44,1.63,7.43c.1-.05.22-.11.36-.17-.59-1.1-.84-.62-.17-1.56.02,0,.03,0,.05,0,.13.16.26.32.38.48-.04,1.5,1.67,2.16-.04,3.88l.11.51-7.5,1.64-3.25-14.82c.02.28.08.52.17.86-.05.05-.09.09-.14.14-.06-.04-.16-.1-.3-.17-.1-.37-.2-.73-.31-1.1-.02,0-.04,0-.06,0,0-.08-.01-.16-.02-.24h0c0-.09-.01-.19-.02-.28.17.11.37.25.6.44l-1.01-4.59c-.38,0-.77,0-1.12.04-.16-.28-.26-.54-.32-.78.09-.06.2-.12.33-.18-.11-.26-.22-.52-.33-.77.13-.45.44-.81.82-1.13l-.8-3.66,7.55-1.66c2.04-.45,3.65-.65,4.81-.59,1.16.05,2.08.29,2.75.72.67.43,1.19,1.02,1.56,1.75.37.74.73,1.93,1.09,3.57l.5,2.29c.37,1.67.44,2.94.23,3.79-.08.32-.23.62-.4.9,0,.03.01.07.02.12-.09.4-.08.34-.47.83-.08-.04-.15-.08-.22-.11-.19.17-.4.34-.63.49-.93.63-2.21,1.13-3.85,1.49Zm7.2,11.07c.14.17.28.34.41.52-.15.12-.3.25-.45.38-.52-.73-.42-.19.04-.89Zm4.22,2.9c-1.88.58-1.79-.94-3.67-.35.2-1.06.82-1.35,1.38-2.02.74.28,1.39.39,2.15.34.49.45.97.9,1.46,1.35-.59.45-.86.67-1.33.69Zm4.05-3.84c-.83-.13-1.77.08-2.62.48-.21-.25-.41-.51-.62-.77.42-.06.69-.11,1.08-.05.27-.8.26-.02.04-.89.04-.17-1.44-1.04-2.12-1.23-.18-.75-.04-.75-.58-1.66.12-.21.24-.43.36-.64l.8.13.02-.14c.68.15,1.41.29,2.06.31l-1.86-8.51s-.05,0-.07,0c.01-.02.03-.03.04-.05,0-.02,0-.05,0-.08l-.24-1.09s-.1,0-.15,0c-.3.31-.53.45-.72.64-.32-.24-.67-.49-1.13-.55-.06-.23-.13-.46-.19-.7.57-.38.68-.48,1.1-.5.31-.24.54-.39.74-.49l-2.77-12.64,2.66-.58c-.09-.11-.18-.23-.28-.34.29-.11.59-.21.88-.31.06.3.11.42.13.49l4.1-.9,5.75,26.24-7.5,1.64-.04-.17c-.1.05-.21.1-.31.14.63.47,1.26.95,1.89,1.42-.16.28-.31.55-.47.83Zm7.79.33c-1.11-.02-3.21.78-4.18,1.36-.5-.32-.25-.21-.64-.33-.43-.63-.54-.76-.6-1.21.05-.39.31-.9.48-1.27,1.19.12,1.99.05,2.82.15l-.12.76,1.08.17.11-.7c.43.14.92.36,1.49.68-.16.12-.3.25-.45.38Zm-1.21-10.75c-.14-.17-.28-.35-.41-.51.15-.13.3-.25.45-.38.13.17.27.34.41.52-.15.13-.3.25-.45.38Zm.08-4.21c-.57-.72-.59-.14-.17-1.15.47.99.44.29.17,1.15Zm-2.73-12.75c-.33-.97-.09-.28.26-1.08.07.09.14.17.21.25.08-.06.15-.12.22-.19.07.09.13.17.2.26-.3.25-.6.5-.89.75Zm6.99,25.07c-.21-.26-.41-.51-.62-.77.08-.06.15-.12.22-.18.28.19.57.38.85.58-.15.13-.3.25-.45.38Zm62.53-40.19c.59,1.67.71,1.03-.41,2.34-.85-1.34-.44-1.35.41-2.34Zm-.95,1.14c.08.17.05-.1-.16.49l-.02-.02c.08-.16.13-.32.17-.47Zm2.05,8.64c.42.1,0,.04.43.07.94,1.36.86,2.12.3,3.18-1.33-.85-1.21-1.91-.73-3.25Zm-10.55-11.66c.31.73.22.77.37,1.41-.15.12-.3.25-.45.37-.27-.34-.55-.68-.83-1.03.3-.25.6-.5.9-.75Zm-29.67,4.74c-.07.06-.15.12-.22.19l-.19-.26c0-.1.06-.04.42.07Zm-4.56,5.56c.15-.12.3-.25.45-.38.38.98.41.94-.07,1.78-.28-.77-.25-.49-.17-1.15-.07-.08-.13-.17-.21-.26Zm1.73,11.01l.96,1.42-2.16.68,1.12.65c-.06,0-.18-.04-.42-.15-.09.4-.17.79-.27,1.18.17-.11.34-.22.51-.33l-.25.89,1.31-.37-1.29,1.18,1.12.59c-1.49.81-1.33.61-2.48.33l-.64-.95,1.36-.92-1.6-2.37,2.73-1.84Zm-2.62.05c.59-.09.32-.12.41.51-.14-.17-.28-.34-.41-.51Zm-21.22-12.76c.46.99.44.29.17,1.14-.5-.32-.25-.21-.64-.32-.21-.26-.41-.52-.62-.77.36-.02.73-.04,1.09-.05Zm10.7,33.92c-.14-.17-.27-.34-.41-.52.07-.06.15-.12.22-.19.21.57.16.29.19.71Zm4.59-.85c-.21-.57-.16-.29-.19-.7-.07-.08-.14-.17-.2-.26.07-.06.15-.13.22-.19.47.99.44.29.17,1.15Zm.87-1.5l-.64-.95.91-.61.64.95-.91.61Zm8.37-4.27l-.64-.95.91-.61.64.95-.91.61Zm-.08-2.53l-1.5,1.7-.96-1.42,2.16-.68-.66-1.02-2.14,1.45.45,2.07-6.97,1.53-1.91-8.72c-.31-1.4-.62-2.25-.94-2.53-.32-.28-.99-.31-2.03-.08l2.59,11.83-7.5,1.64-2.72-12.4s-.06.1-.2.36c-.44-.29-.5-.3-1.05-.84.54-.29.49-.3.88-.31.11.03.17.04.21.05l-2.87-13.1,5.31-1.16c.85-.19,1.63-.35,2.36-.49-.12-.19-.26-.42-.47-.71.63-.44.86-.53,1.33-.69.3.5.44.83.53,1.14,1.57-.28,2.75-.43,3.53-.45,1.31-.03,2.47.39,3.48,1.23.69.57,1.25,1.48,1.7,2.69l.57-.12.64.95-.86.25c.08.28.15.56.21.86.02.1.04.2.06.3.5.32.63-.12,2.14-1.08l.18,1.25-.91.61-1.35-.5c.17.91.25,1.68.23,2.32l.64-.61,2.03-.87.64.95-2.46.25c.37,1.06.36,1.29.35,1.53-.05.06-.13.15-.29.26.1,0,.2.01.29.02.02.21.1.54.34,1.21-1.81-.09-1.04.58-1.41-1.11l-.73.25c-.21.25-.48.48-.82.69l-.22.31-.53.09c-.33.15-.71.29-1.12.42,1.56,0,2.65.24,3.29.69.63.45,1.06.9,1.29,1.34.23.44.57,1.72,1.04,3.84l.67,3.04c.15.05.26.25.95.88l.95-1.46.46-.31.64.95c1.5.05.62-.3,1.87.81l-1.37.92Zm2.9,2.8c.08-.17.16-.33.24-.48l.15.22-.39.26Zm-.54-1.01l.29-.2.02.02c-.11.06-.21.11-.3.17Zm-.34-4.92l-.93-.2-.18-1.25,1.25-.05-.14,1.51Zm3.91,6.65l-.64-.95,1.37-.92.64.95-1.36.92Zm3.78-3.24l-.26-.83-5.9,1.29-1.44-6.57-.78.69-.1-1.28.79.17-.32-1.45-.65.03.56-.44-3.81-17.39,12.51-2.74.94,4.27c.46-.25.44-.27.81-.27.39.11.13,0,.64.32-.08.07-.15.13-.23.19-.06.4.02.14-.24.63-.41-.27-.5-.3-.95-.74l.18.84-5.01,1.1,1.09,4.97,4.69-1.03.43,1.97.22.32c-.04.06-.08.11-.11.17l.55,2.53-2.12.46s-.06.07-.09.1l-.19-.04-2.28.5.02.08c.65.03,1.76.24,2.32.25l.32.47-.91.61c-1.05-.02-1.27-.15-1.47-.15l.99,4.51,5.5-1.21,1.15,5.25-5.82,1.27c.19.1.34.19.34.19l-1.36.92Zm7.77,1.55l-.64-.95,1.37-.92.64.95-1.37.92Zm-5.35-34.19c.55-.29.48-.3.88-.31.4.13.33.12.84.58-.31.4-.61.8-.92,1.2-.28-.19-.56-.39-.84-.58.08-.45.09-.42.03-.89Zm5.52,21.67l-.64-.95.91-.62.64.95-.91.62Zm-.13-3.95l-.64-.95.91-.61.64.95-.91.61Zm11.07,12.23c.06-.4-.02-.14.24-.63.07.08.13.17.2.26-.15.12-.3.25-.45.38Zm1.44,1.8s-.08-.04-.12-.07c.05,0,.1,0,.15,0,0,.02-.01.04-.02.07Zm5.29-2.3c-.49-.7-.6-.96-.8-1.48,1.17-.67.99.18,1.12-.94.3-.25.6-.5.9-.75.14.17.28.34.41.51-.42.93-.81,1.79-1.63,2.66Zm2.12-5.03c-.51.58-1.19,1.06-2.04,1.43-.85.37-2.17.76-3.97,1.15l-9.46,2.07-5.75-26.24,5.61-1.23c3.62-.79,6.1-1.18,7.45-1.16,1.34.02,2.42.31,3.24.85.82.55,1.4,1.22,1.75,2.04.35.81.8,2.46,1.34,4.94l2.01,9.19c.52,2.36.74,3.96.67,4.8-.07.85-.36,1.56-.87,2.14Zm1.42,2.24l-.64-.95,1.37-.92.64.95-1.36.92Zm1.33-5.18c-.15.13-.3.25-.45.38-.44-.28-.5-.3-1.05-.84.38-.31.75-.63,1.12-.94.14.17.28.34.41.52-.08.44-.08.42-.03.89Zm-3.37-20.41c.21.4.13.76.69,1.3-.01-.74-.02-1.09.25-1.47.22.25.42.47.62.67-.01.24-.03.48-.04.73-.04-.07-.09-.13-.19-.24,0,.1.01.19.02.29-.25.31-.11.08-.3.6.16,0,.32,0,.47-.01.01.2.04.42.1.64-.23.19-.45.38-.68.57-.13-.32-.26-.64-.39-.96-.08.74-.15.49.37,1.4-.04.03-.08.07-.12.1-.04.01-.09.03-.13.04-.91-1.12-.37-1.48-1.35-3.08.23-.19.46-.39.69-.58Zm1.11,8.22c.25-.49.18-.24.25-.63.13-.1.25-.2.37-.29.09.05.18.09.28.12.21-.31.48-.55.76-.76.12-.05.24-.1.36-.14.64,1.11.58,1.37.34,2.3-.57-.08-1.16.04-1.74.17-.2-.26-.42-.51-.62-.77Zm5.37,7.19c-1.28-1.14-1.7-.64-2.96-1.81.98-.74,1.18-.69,1.99-.81.2.26.42.51.62.77.44-.38.9-.75,1.35-1.14.24.97-.28,2.18-.99,2.98Zm-59.97-1.72l1.28,5.83c.84-.18,1.41-.42,1.7-.7.29-.28.31-1,.06-2.16l-.32-1.44c-.18-.83-.46-1.34-.85-1.53-.38-.19-1.01-.19-1.88,0Zm2.54,1.88c-.53.35-.34-.36-.19-.7.53.19.2.56.19.7Zm-63.11,32.12l-.05-1.49c-.14.43-.21.69-.23,1.41.09.02.19.05.28.07Zm11.97-.2c-.11,0-.22,0-.33,0,.35.23.09.1.67.27,0-.19-.02-.39-.03-.58-.11,0-.22.01-.33.01,0,.1.01.2.02.3Zm13.2-26.04l1.46,6.68c.22-.04.4-.07.56-.1.69-.15,1.13-.41,1.33-.78s.19-1.04-.02-2.01l-.47-2.15c-.2-.9-.48-1.45-.85-1.65-.37-.2-1.04-.2-2.01.02Zm-35.96,24s.05-.02.08-.03c-.04-.03-.06-.04-.1-.07l.02.09Zm3.91,20.25c-.31-.06-.61-.11-.93-.26,3.82,5.27,8.36,9.94,13.45,13.87-.19-.24-.39-.48-.58-.72.07-.06.16-.13.22-.19.28.19.56.39.84.58-.15.12-.29.25-.44.37,8.14,6.27,17.67,10.67,27.86,12.76.11,0,.22,0,.35-.02.03.04.05.07.08.11,2.94.58,5.93.96,8.96,1.15-.13-.24-.19-.42-.23-.62-19.77-1.27-37.94-11.33-49.58-27.03Zm-4.22-6.42l-.62.14c1.05,1.82,2.18,3.58,3.38,5.29.23-.06.44-.1.63-.16-1.2-1.7-2.34-3.45-3.39-5.27Zm105.61,13.76c.02.11.03.23.03.35-.07-.07-.13-.12-.19-.18-8.75,8.79-20.03,15.26-33.03,18.1-5.45,1.19-10.88,1.68-16.22,1.53,0,.04.01.07.02.11.14.17.27.33.4.5,5.24.11,10.58-.38,15.93-1.55,8-1.75,15.36-4.88,21.89-9.05,0,0,0-.01-.01-.02.07-.07.15-.13.22-.19,0,.02.01.04.02.06,4.34-2.8,8.3-6.07,11.84-9.72-.11-.17-.23-.33-.35-.5-.18.19-.36.38-.55.56Z"/><path class="cls-2" d="m60.15,18.53c.31-.32.46-.66.48-1.02.01-.37-.12-.89-.39-1.56l-.38-.92c-.27-.66-.51-1.14-.71-1.42-.2-.29-.45-.5-.74-.64-.29-.14-.67-.19-1.12-.14-.45.05-1.05.22-1.8.53l-2.77,1.13.21.51s.06.07.09.11c.08-.06.15-.13.23-.19.66.98.67.86.58,1.66-.16-.1-.26-.18-.34-.23l3.56,8.73.6-.24.07-.06s0,.02,0,.03l2.08-.85-1.74-4.26.74-.3c.6-.25,1.06-.53,1.36-.84Zm-5.39-.52c.07-.4-.02-.14.25-.63.07.09.14.17.2.26-.15.12-.3.25-.45.38Zm1.56,1.96c-.13-.17-.27-.34-.41-.51.07-.06.15-.12.23-.19.21.56.16.29.18.7Zm-.16-1.41c-.21-.25-.41-.51-.62-.77.15-.13.3-.25.45-.38.47.99.44.29.17,1.15Zm1.8-1.18h0c-.05.17-.2.3-.45.4-.06.02-.13.05-.21.08l-1.1-2.69c.36-.15.62-.19.77-.12.09.03.17.11.25.23.3.02.38.15.86.24.43.64.67-.58.73-.12-.09.4-.08.34-.47.82-.41-.19-.56-.2-.83-.36l.28.69c.08.18.13.34.16.48.06.07.12.15.18.22-.05.05-.11.09-.16.14Zm4.65-6.28l2.63,10.96,2.89-.69-1.74-7.24c-.29-.2-.52-.41-.95-.88.08-.07.15-.13.23-.19.23.17.42.28.57.4l-.66-2.76s-.04-.05-.06-.07c.01-.01.02-.02.04-.03l-.08-.34-1.72.41s.04.06.07.08c-.6.32-.88.36-1.2.35Zm3.83,5.27c.21.56.16.29.19.69,0,0,0,0,0,0-.14-.17-.27-.34-.4-.51.07-.06.15-.12.22-.19Zm-37.29,11.76c.18-.22.37-.44.55-.66-.2-.01-.41-.02-.61-.03-.01.22-.03.44-.05.65.04.01.07.02.1.04Zm14.37-14.07c-.44-.09-.88-.09-1.24-.2-3.45,2.27-6.66,4.85-9.57,7.7.16.11.32.22.48.33-.08.15-.17.29-.25.44-.5-.35-.4-.2-.63.1-.09-.06-.18-.12-.27-.19-.77.77-1.52,1.56-2.25,2.37.02.07.04.14.08.23.22-.05.45-.1.67-.15.32.47.43.63.49.99-.2.23-.37.46-.51.84,4.65-5.34,10.23-9.91,16.55-13.44-.16-.14-.31-.25-.46-.32-.56.1-1.12.21-1.69.31.11-.2.19-.45.26-.9-.06,0-.12,0-.18,0-.52.31-1.04.63-1.55.95.01.03.03.07.05.09-.14.2-.12.25-.2.77.08,0,.16,0,.25,0-.01.03-.02.06-.03.09Zm-10.8,8.66c-.06-.04-.12-.08-.18-.13.12,0,.18,0,.3-.09-.04.07-.08.14-.12.21Zm3.8,3.05l5.02,5.57s.03,0,.04,0c.41.39.49.47.93.5.15.34.21.6.22.84l1.43,1.59,1-.9c-.12.05-.25.08-.42.13-.08-.33-.17-.61-.28-.99-.58-.17-.32-.05-.67-.27-.17,0-.33,0-.5.02.2-.25.24-.3.29-.5.17,0,.35-.01.52-.02.52-.57.38,1.17,1.12.89.29.19.7-2.05,1.04-1.95-.01.86-.2,1.55-.75,2.35,0,.02-.02.04-.03.06l2.52-2.26-1.53-1.7-1.62,1.46-1.54-1.72s0,0,0,0c.2.87.03.99-.5,1.71-.52-.45-.46-.45-.85-.58-.03-.04-.06-.08-.09-.12.13.02.28.03.49.05.18-.52.05-.29.3-.6-.04-.15-.09-.31-.13-.46.09-.03.2-.06.35-.08.15-.12.3-.25.45-.38,0,.06,0,.11,0,.14l1.22-1.09-.43-.47c-.01.19-.03.38-.04.56.04,0,.08,0,.12,0-.1.1-.21.2-.34.32-.4-.02-.13-.05-.65.12-.56-.76-.67-1.37-.5-1.81l-1,.9-1.45-1.61,1.48-1.33-1.53-1.7-2.04,1.83c.04.07.08.13.13.19-.06-.03-.13-.08-.2-.12l-1.58,1.42ZM54.29,4.78c2.87-1.06,5.84-1.95,8.91-2.62,2.14-.47,4.28-.82,6.42-1.07.1-.09.21-.18.31-.28.03.07.05.15.07.23.9-.1,1.81-.19,2.71-.25,0-.12.02-.24.03-.37.35.02.71.04,1.06.05,0-.13,0-.25,0-.37-.38.02-.76.06-1.15.08,0,.06-.02.1-.03.17-.16,0-.32-.02-.48-.03-.05-.04-.09-.06-.13-.09-2.97.25-5.95.68-8.94,1.34-3.1.68-6.1,1.58-9,2.65.07.15.13.31.16.49.02.03.04.05.06.08ZM78.82.25c.07.08.13.17.2.25-.03.04-.05.08-.08.12,2.56.05,5.09.26,7.6.6-.28-.18-.4-.26-.86-.71,0,0,0,0,0,0C82.75.15,79.77-.03,76.77,0c-.06.2-.14.41-.24.61.62,0,1.24,0,1.86,0,.15-.12.29-.24.43-.37Zm1.35,4.94c1.15.05,2.29.12,3.42.23,0-.23,0-.47,0-.74l.55-.37c.05.09.1.2.16.35.06,0,.11-.01.16-.02l-.07.87c.39.04.78.09,1.17.14l-.1-.16,1.36-.92.64.95c-.1.14-.18.26-.25.37,3.47.55,6.86,1.38,10.15,2.49.37.03.71.14.99.34.94.33,1.86.69,2.78,1.07.52-.44,1.04-.87,1.55-1.31-4.04-1.72-8.26-3.04-12.61-3.91.14.17.27.34.41.51-.16.27-.31.55-.47.82-.21-.56-.16-.29-.19-.7-.07-.09-.14-.17-.21-.26.15-.13.3-.25.44-.38-4.05-.81-8.22-1.24-12.44-1.24.04.05.09.1.14.15-.19.17-.39.33-.59.5,1.04-.2,2.41.29,3,1.21ZM15.45,60.53c1.24-10.8,5.3-20.97,11.55-29.59,0-.04-.01-.08-.02-.11.04,0,.07,0,.11-.01.43-.59.87-1.17,1.32-1.75-.1-.23-.23-.48-.41-.78.59-.5,1.18-1,1.77-1.49-.17,0-.34.02-.5.04-.32-.48-.47-.75-.55-.98-2.43,2.85-4.61,5.89-6.52,9.11.08.06.16.13.26.23-.12,0-.25,0-.39-.01-4.57,7.81-7.52,16.58-8.48,25.77l1.86-.41ZM88.33,19.8c-.09.43,1.38,1.11,1.17,1.49-.48-.21-.76-.17-1.09-.06-.04-.14-.08-.28-.13-.45-.58-.17-.32-.05-.67-.27h-.03l-.2.73,2.51.7s.09-.09.14-.13c.09.09.17.17.25.24l.71.2c.69.19,1.21.3,1.57.32.36.02.68-.03.97-.16.28-.12.52-.34.7-.65.19-.31.42-.96.69-1.94l1.07-3.86c.29-1.04.45-1.75.49-2.12.04-.37-.03-.74-.21-1.1-.1-.22-.27-.42-.47-.6-.06,0-.11,0-.17-.01-.06-.09-.1-.16-.15-.23-.05-.03-.09-.06-.14-.09-.33-.19-.92-.42-1.74-.67.18.43.09.76-.26,1.37-.14-.23-.27-.47-.41-.7.01-.03.02-.06.04-.1-.03,0-.07,0-.1,0-.18-.31-.36-.62-.54-.92,0,0,0,0,0-.01l-1.89-.53-2.05,7.38s.06-.04.09-.07c.17.86.28.33-.17.96.4.5-1.1,1.13.04,1.31Zm4.44-6.9c.31.09.52.18.61.28.09.1.14.22.13.37,0,.15-.08.47-.22.97l-1.19,4.28c-.2.74-.38,1.17-.52,1.31-.14.14-.42.15-.83.04l2.01-7.25Zm-38.67-3.21c-.09-.12-.19-.23-.28-.35.55-.1,1.09-.18,1.63-.17.99-.37,1.99-.72,3-1.05,0-.03,0-.05-.02-.07.71-.38.97-.36,1.39-.35,1.43-.42,2.87-.8,4.35-1.13.4-.09.8-.16,1.2-.24,0-.01,0-.02,0-.03-.18-.08-.38-.15-.59-.2.05-.2.12-.42.2-.64.43.1,0,.04.43.07.18.26.31.5.42.72,2.99-.57,5.97-.92,8.93-1.06.27-.31.73-.48,1.3-.45.15-.12.3-.26.45-.37.14.17.28.33.41.51.01.15.01.21.02.25.71,0,1.41,0,2.12.01-.03-.01-.06-.03-.09-.04l.04-.27-1.08-.17-.03.2c-.12-.01-.24-.02-.37-.04-.18-.22-.36-.45-.54-.67-.03.03-.06.05-.09.08-.33-.49-.5-.7-.57-.9-1.2.02-2.4.09-3.61.18-.03.06-.07.16-.13.31-.1-.07-.2-.13-.29-.2-.18.15-.35.3-.53.44-.71-.14-.96,0-1.57-.31-.66.08-1.32.16-1.98.26.07.16.05.1.06.4-.1-.12-.19-.24-.29-.37-1.39.21-2.78.46-4.18.76-1.64.36-3.26.79-4.84,1.26.03.03.06.07.08.1-.15.13-.3.25-.45.38-.6-.03-1.36.13-2.08.31-2.06.71-4.05,1.52-6,2.43.15.41.13.74.24,1.36-.38.31-.75.63-1.12.94-.39-.15-.72-.28-1.01-.43-.05-.35-.11-.61-.18-.87-.95.48-1.88.99-2.8,1.51,0,.1.01.2.02.3.61.35,1.06.67,1.52.91,2.22-1.24,4.54-2.35,6.94-3.32Zm22.57,3.68c.07-.34.09-.79.04-1.37-.08-.97-.29-1.67-.64-2.09-.35-.42-.77-.66-1.28-.73-.5-.07-1.45-.05-2.85.06l-2.1.17.9,11.4,2.96-.23-.41-5.14c.41-.03.67.02.77.16.11.14.19.51.23,1.12l.3,3.79,2.75-.22-.24-3.01c-.06-.75-.12-1.25-.17-1.52-.07.1-.15.23-.25.38-.15-.39-.21-.52-.23-.63l-.57.51-.1-1.28.58.12c-.23-.19-.6-.32-1.13-.41.64-.11,1.06-.33,1.26-.65.06-.09.1-.22.13-.36l-1.03.04.92-.72h.08c-.02.21-.03.42-.05.62.03,0,.06-.02.09-.03Zm-2.73-1.44l.05.63c.04.5,0,.8-.13.91-.11.09-.32.14-.58.18-.04,0-.06.01-.1.02v-.13c-.13-.11-.07-.05-.26-.46.07,0,.14,0,.21,0l-.15-1.93c.34-.03.58,0,.72.11.14.1.22.34.25.7Zm6.09,7.73c.12-.03.27-.06.61-.12-.01-.05-.02-.08-.04-.12.15.17.31.36.47.55-.05-.14-.1-.29-.16-.48.52-.44.75-.71,1.03-.77,0,.25,0,.51.01.79.26.3.21.27.38.87.15,0,.3,0,.44-.01-.04.1-.09.19-.13.28l1.77.17c-.08-.31,0-.31-.06-.78.08-.06.15-.13.23-.19.14.17.27.35.41.51-.09.16-.18.32-.27.48l.38.04.22-2.28-2.17-.21.24-2.5,1.85.18.21-2.17-.36-.03s.05.09.07.12c0,0,0,0,0,0,0,.11-.01.22-.02.33-.08.11-.13.21-.18.32-.25-.17-.13-.11-.46-.2-.19-.23-.37-.46-.55-.69l-.34-.03.2-2.16,1.98.19.02-.21c-.36-.35-.32-.05.04-.91.02.01.03.02.04.03l.11-1.18-4.93-.47-1.01,10.67Zm4.71-8.99c.07.09.13.17.21.25-.15.13-.3.26-.45.38.06-.4-.02-.14.24-.64Zm-1.99-1.29c0,.1.02.22.04.42h-.02c-.04-.16-.07-.27-.09-.36.03-.02.05-.03.08-.05Zm.44,7.33c-.14-.17-.27-.35-.41-.51.07-.07.15-.12.22-.19.21.57.16.29.18.71Zm.53-2.16c-.27-.34-.55-.68-.83-1.02.59.25.71.37.83,1.02Zm-1.75-4.42c.03-.13.14-.26.36-.43,0,.01,0,.02,0,.03-.12.14-.05.06-.24.52.06,0,.13,0,.19,0-.03.34-.06.68-.09,1.01.02,0,.05,0,.07,0-.01.02-.02.04-.04.06-.76-.38-1.03-.16-1.26-1.1.07-.4-.02-.14.25-.63.25.17.5.35.75.52ZM11.33,57.35c-.16,0-.31.01-.47.02-.04.11-.09.2-.14.29-.02,0-.03,0-.05-.01-.1.63-.19,1.27-.26,1.91,0,0,.02-.02.02-.03l.26.38-.35.23c-.06.51-.12,1.02-.17,1.54l.62-.14c.13-1.41.31-2.8.53-4.19Zm5.47-18.7c-.1,0-.19,0-.29-.01,0-.02,0-.05,0-.07-.17.36-.33.72-.49,1.08.3-.23.57-.54.78-.99Zm-1.72,4.76c-.31.42-.54.74-1.11,1.25-1.1,3.04-2,6.17-2.66,9.37.15.01.35.03.6.07.76-3.66,1.82-7.24,3.16-10.69Zm.16-.4c.43-1.1.9-2.18,1.39-3.25-.25-.01-.09-.03-.56.12-.03-.06-.06-.1-.09-.15-.37.81-.72,1.63-1.06,2.46.06.07.12.15.18.22.03.39-.02.18.14.59Zm2.12-4.8c.99-2.03,2.09-4.01,3.28-5.93-.17-.1-.34-.2-.53-.3-1.2,1.94-2.3,3.94-3.31,6,.07-.06.15-.12.22-.18.11.14.23.28.34.42Zm118.25-4.03l.62-.14C126.11,16.36,108.4,4.18,88.43.9l-.07.42-.33-.49s-.08-.01-.12-.02c.08.18-.07.39-.08.49-.07.05-.12.07-.17.08,20.01,3.08,37.8,15.16,47.97,32.81Zm-1.39,12.07c-.33-.09-.91-.05-1.73.13l3.78,17.26c1.08-.24,1.7-.58,1.87-1.03.16-.45.05-1.55-.33-3.3l-2.23-10.19c-.26-1.19-.47-1.94-.62-2.26-.16-.32-.4-.52-.73-.61Zm2.2,14.67c-.14-.17-.28-.34-.42-.52.52-.16.26-.13.65-.12.07-.06.15-.12.22-.19-.09.4-.08.34-.46.82ZM20.72,32.12s.01.01.02.02c.03-.05.06-.1.09-.16-.03.04-.07.08-.11.14Zm89.31-4.44l-.97.59c.14.49.08.83.08,1.27l1.37.1c-.32-.39-.63-.78-.94-1.17.37-.48.38-.44.46-.8Zm-81.2-1.97s.09.01.14.03c-.02-.05-.04-.08-.06-.12-.03.03-.05.06-.08.1Zm51.83-5.25l.77.07c-.21-.05-.45-.08-.75-.11,0,.01-.01.02-.02.03Zm-37.4-10.41s.07-.04.1-.06c.15-.2.21-.28.32-.37.11,0,.23,0,.36-.02.19-.11.38-.22.58-.33-.1-.19-.2-.37-.31-.52-.56.31-1.11.63-1.66.96.02.09.05.18.08.31.18.01.35.02.53.03Zm-22.12,21.47c.64-1,1.31-1.98,2-2.95,0,0,0-.01,0-.02.02-.01.03-.02.04-.03.44-.61.89-1.21,1.35-1.81-.08,0-.16,0-.23,0-.09-.11-.18-.22-.27-.34-1.38,1.79-2.68,3.65-3.87,5.57.35-.22.7-.44,1.05-.65-.02.09-.04.16-.05.22Zm8.95-4.74c.02.06.03.12.05.19.05-.06.1-.12.15-.18-.07,0-.13,0-.2,0Zm5.95-11.75c-.04-.05-.08-.1-.13-.16.14-.12.3-.25.45-.38.09.03.17.06.25.08,1.82-1.41,3.72-2.72,5.69-3.94-.12-.17-.24-.33-.37-.48-6.88,4.27-12.86,9.71-17.73,15.98.28-.05.57-.09.85-.11,3.21-4.06,6.89-7.76,10.99-11ZM86.84,1.26c.23.03.46.06.69.09-.09-.09-.04-.37.04-.6-.37-.05-.73-.09-1.1-.14.24.12.48.24.71.37-.11.09-.23.19-.35.29Zm-33.54,3.89c-.14-.16-.26-.32-.37-.5-2.64,1.03-5.19,2.22-7.64,3.55.15.14.3.29.45.44,2.42-1.31,4.95-2.47,7.56-3.48Zm-9.79,14.71l-.32.21,2.65,2.69c-.04-.07-.08-.14-.11-.2.64-.1.71-.15,1.18-.32,0-.2-.02-.39-.03-.58-.43.2-.86.42-1.29.62h0c-.05-.11-.09-.22-.15-.38h.08s0-.15,0-.15c.46-.31.59-.41.99-.42.06-.05.11-.09.17-.14.08,0,.15,0,.23,0,.17.26.43.55.55.38.04.05.09.11.13.16-.31.4-.62.8-.92,1.2-.37,0-.17-.04-.57.09l.72.73,2.06,4.88.42-.28s-.08-.1-.12-.15c.08-.07.17-.14.25-.21.19.1.4.2.64.29,0,.02-.02.03-.03.05-.36-.01-.18-.04-.54.08l-.21,1.19.04.09,2.44-1.56-.77-1.72c-.32-.75-.65-1.46-.97-2.11.66.73,1.27,1.37,1.85,1.94-.05-.13-.09-.25-.14-.33.06-.03.11-.07.17-.11l-.28-.42.91-.61.64.95-.91.61-.17-.26c-.04.05-.1.13-.17.21.39.38.76.73,1.11,1.04l2.32-1.48-4.76-4.53-1.65-4.32c-.04.06-.09.12-.13.21-.36-.01-.12-.04-.63.12-.07-.08-.13-.17-.2-.26.14-.11.27-.23.41-.35l-1.74,1.11.79,2.07c.12.12.23.26.36.4-.05.04-.1.09-.16.13l.14.37c-.08-.09-.17-.18-.25-.27-.01,0-.02.02-.03.03l-.61-.65s.01-.01.02-.02c-.07-.07-.14-.14-.22-.22-.29-.29-.52-.54-.71-.74,0,.02,0,.04,0,.06-.03-.03-.05-.06-.08-.09.02,0,.04.01.05.02-.15-.16-.28-.3-.37-.4l-1.13.72c.44.28.22.19.59.3,0,.45-.06.85-.18,1.24l-1.38-.91Zm3.63,1.04s-.08.07-.12.1c-.02,0-.03,0-.04.01,0-.04,0-.08,0-.12h.17Zm-.73-.61c.15-.1.26-.18.36-.25l-.03.56s-.08,0-.13,0c-.09-.13-.15-.23-.2-.32,0,0,0,0,0,0Zm88.86,81.27c.22-.03.42-.06.64-.1.03.04.04.06.06.1.23-.39.45-.79.67-1.19,0-.09.01-.19.02-.28-.18,0-.37-.02-.54-.02-.28.5-.56,1-.85,1.5Zm2.55-17.49c.53-.36.65-.46,1.07-.47.05-.04.09-.08.14-.12-.38-.12-.68-.16-.99-.25-.07.28-.14.57-.22.85Zm-5.46,13.48c-.04.06-.07.13-.11.19.43.18.85.44,1.48.5.1.05.17.08.24.11,2.31-4.23,4.14-8.72,5.46-13.4-.36-.14-.49-.15-1.02-.54-.08.07-.15.12-.22.19-.13-.16-.26-.32-.39-.48-.53,1.91-1.16,3.79-1.86,5.64.03.03.05.07.08.1-.47,1.21-.51,2.22-.62,3.19-.24-.01-.52-.02-.8-.03-.48,1.08-1,2.15-1.55,3.2.05.05.09.1.15.17-.07.17-.13.34-.19.51-.15.45-.28.46-.65.66Zm5.99-10.26c0,.09,0,.21.02.37-.1-.12-.2-.24-.29-.36.09,0,.18,0,.27,0Zm-1.55,1.69c.41.2.67.33,1.07.39-.08.4-.08.34-.47.82-.57-.55-.52-.31-.59-1.22Zm6.44-8.21c.08.06.18.12.31.2-.09.45-.09.42-.04.89-.19.1-.37.17-.55.24-.24,1.09-.52,2.17-.81,3.24.39-.09.54-.13.7-.27,1.01-3.75,1.71-7.6,2.06-11.52l-.62.14c-.22,2.39-.58,4.75-1.05,7.08Zm-1.74-6.47l-1.86.41c-.28,2.42-.7,4.82-1.25,7.17.07,0,.14,0,.22,0,.53.55.63.69,1.05.84-.07.32-.08.35-.28.59.16.25.28.43.36.57.13-.51.26-1.02.38-1.54-.03-.04-.06-.08-.1-.12.06-.07.12-.14.18-.2.58-2.53,1.02-5.1,1.3-7.71Zm-38.42,33.23l-4.33,2.41,2.68,4.82c.6-.03,1.2.08,1.8.31.08-.06.15-.13.22-.19.07.09.14.17.21.26-.15.13-.3.25-.45.38-.38-.02-.83.05-1.28.14l2.37,4.27,3.08-1.71s-.06-.08-.1-.12c.23-.19.45-.38.67-.57.07.09.14.17.21.25l.64-.36-1.11-2-1.91,1.06-1.22-2.2,1.2-.66s-.05-.03-.09-.04c-.13-.44-.22-.69-.38-.88.02-.05.02-.08.06-.29.07-.06.14-.1.21-.16l-.43-.77-1.62.9-1.05-1.9,1.73-.96-1.11-2Zm12.19.84l-2.51-3.12c-.68-.85-1.16-1.39-1.44-1.64-.28-.25-.62-.41-1.02-.48-.39-.07-.83,0-1.31.22-.48.21-1.27.77-2.4,1.67l-1.73,1.39,7.16,8.92,2.92-2.35c.06-.05.11-.09.16-.13-.18-.06-.39-.16-.66-.35-.08.06-.15.12-.23.18-.36-.85-.34-1.29-.57-2.1.58-.52,1.44-1.29,1.99-1.74-.12-.15-.24-.31-.37-.48Zm-2.38,5.01c-.13-.17-.27-.34-.41-.51.08-.07.15-.12.23-.19.21.57.16.29.18.71Zm.23-1.43l-4.71-5.87c.25-.2.45-.31.58-.34.13-.02.26.02.38.11.12.09.34.34.66.75l2.78,3.46c.48.59.73.99.76,1.19.03.2-.12.43-.46.7Zm-24.14-3.92s0,.07.01.11c-.02-.03-.05-.06-.07-.09-.79.22-1.58.42-2.38.6-.53.12-1.06.22-1.6.31-.03.03-.07.06-.1.09-.03-.02-.07-.03-.1-.05-3.96.69-7.9.79-11.73.38.04.03.07.05.11.08.4.19.46.31.63.64-.2-.06-.44-.11-.74-.16.04.41.08.81.13,1.22-.02.02-.04.04-.07.06.58.06,1.17.11,1.75.14-.06-.18-.12-.35-.19-.49,1.33-.5,2.04.47,3.38.48.02.03.05.06.07.09.07,0,.14,0,.21,0,.2-.55.08-.74.3-1.25.25.38.43.8.62,1.23,1.01-.04,2.03-.11,3.04-.22-.11-.04-.21-.08-.32-.12.28-.58.88-.48,1.11-.5.15-.12.29-.25.44-.37.22.66.18.58-.11.85,1.18-.16,2.36-.36,3.55-.62,5.39-1.18,10.32-3.32,14.67-6.18-.17-.21-.33-.44-.7-.94.83-.35,1.21-.27,1.96-.36.08.09.17.18.25.27,4.83-3.48,8.87-7.9,11.91-12.93,0-.1,0-.21-.02-.32.06.02.11.06.16.08,2.03-3.41,3.61-7.1,4.66-10.97l-2,.44c-3.99,13.44-14.6,24.51-28.84,28.54Zm37.21-13.7l.19-.57c-.1.09-.2.19-.28.29l.09.28Zm8.66,7.94c-2.5,4.13-5.43,7.99-8.76,11.5.03.23.05.48,0,.81,0,.01.01.02.02.03,1.53-1.59,2.99-3.25,4.36-4.98-.05-.05-.1-.09-.15-.15.08-.07.15-.13.23-.19.04.02.09.05.13.07,1.57-2.01,3.04-4.1,4.38-6.27-.25-.43-.26-.45-.21-.82Zm-79.03-2.67c0,.11,0,.23-.01.37.24.21.43.47.6.74,8.46,5.41,18.98,7.6,29.55,5.29,13.94-3.06,24.53-13.21,28.81-25.84l-.69.15c-.15.42-.31.85-.47,1.27.17.09.34.17.51.26-.12.22-.17.34-.26.48-.09-.22-.19-.43-.28-.65-4.56,11.64-14.65,20.87-27.75,23.75-9.47,2.08-18.91.47-26.81-3.86-.55.09-.86-.21-1.31-.46,0-.1,0-.19,0-.29-.64-.38-1.27-.78-1.88-1.2Zm-23.97-52.7l2.34-1.68-4.11-.02-1.25-3.92-1.29,3.9-4.11-.02,3.31,2.43-1.29,3.9,3.34-2.4,3.31,2.43-1.12-3.5c-.11-.09-.23-.21-.41-.38.38-.31.75-.63,1.12-.94.05.06.11.13.16.2Zm89.94,66.12s.04-.06.06-.09c.38-.07.8-.04,1.22.06.3-.3.6-.6.89-.91-.34-.37-.66-.67-.95-.83-.02-.26-.05-.5-.08-.72-8.16,8.65-18.85,15.07-31.25,17.95.24.21.49.47.78.81-.3.25-.6.51-.9.75-.57-.85-.66-.88-.61-1.39-.01,0-.02,0-.03,0-7.64,1.67-15.26,1.86-22.56.77.29.33.5.67.57,1.09.14.17.28.34.41.51-.12.1-.24.2-.36.3,7.25.98,14.78.74,22.33-.91,7-1.54,13.49-4.17,19.32-7.67-.1-.09-.2-.19-.32-.31,0-.02,0-.04,0-.06-.06-.04-.11-.07-.16-.11-.02-.03-.04-.05-.07-.08.08-.07.15-.13.23-.19.3.21.52.34.69.51,3.08-1.88,5.98-4.01,8.66-6.35-1.1-1.57-.33-2.51.99-2.46-.01.22-.03.43-.04.64.26-.32.11-.08.34-.64-.08,0-.17,0-.25-.02.15-.12.29-.25.44-.36.14.17.28.33.41.51.03.36-.01.2.12.52.2-.19.4-.37.59-.56-.04,0-.08,0-.12-.01-.21-.25-.41-.51-.62-.77.02,0,.04-.01.06-.02.07,0,.13.02.21.02Zm-19.46,13.56c-.09-.11-.18-.22-.27-.34.01,0,.03,0,.04,0-.03-.09-.06-.17-.09-.25.02-.02.04-.03.06-.05.1,0,.21,0,.31-.01.24.15.2.15.33.18.02.03.05.06.08.09-.15.12-.3.25-.45.38Zm-52.68-31.32c1.7,1.71,3.56,3.26,5.53,4.63-.07-.12-.15-.27-.29-.48.1-.08.2-.16.29-.25-1.74-1.24-3.39-2.62-4.91-4.13-.06.08-.12.16-.2.26-.14-.03-.28-.03-.43-.04Zm-27.4,5.17c.82,1.37,1.68,2.7,2.59,4,.04-.02.08-.03.12-.04.1.18.17.35.22.52,2.68,3.75,5.74,7.17,9.12,10.24.06.03.14.06.23.1.08.17.12.16.11.2.31.27.62.54.93.81.22.1.39.21.61.52.09.08.18.16.28.23.14-.24.28-.49.42-.73.4.2.66.33,1.06.39.2.87.25.09-.03.89-.22-.1-.42-.21-.64-.32-.04-.51-.09-.15-.33.17,4.34,3.53,9.13,6.49,14.24,8.8.14,0,.31,0,.51-.01.03.04.06.07.09.11-.02.05-.04.1-.06.15.05.02.1.04.16.07.02,0,.04-.01.06-.02.02.02.04.04.06.07,3.47,1.51,7.08,2.72,10.8,3.6-.02-.03-.05-.06-.07-.09.15-.12.3-.25.45-.38.34.29.59.5.86.75,1.4.3,2.81.57,4.24.78-.56-.54-1-1.27-1.14-2.02-17.78-3.03-33.58-13.7-43-29.19l-1.86.41Zm25.81-2.93c-.47-.46-.93-.94-1.38-1.43-.27.28-.29.24-1,.76-.46-.65-.59-.92-.77-1.37l-.99.22c1.74,2.07,3.66,3.97,5.73,5.67.14-.03.28-.05.4-.02-.02.1-.06.19-.1.27.56.46,1.14.9,1.72,1.33.01,0,.02,0,.04,0,.9.27,1.31,1.06,1.69,1.16.01.01,0,.02-.04.01,4.23,2.8,8.93,4.88,13.91,6.09,0-.07,0-.14,0-.21-.12-.05-.21-.09-.28-.13.01-.17-.05-.31-.14-.73.15-.12.3-.25.45-.38.63.69,1.24,1.24,1.7,1.83,1.32.26,2.66.47,4.01.61-.12-.11-.24-.2-.35-.3.24-.08-.03.13.32-.48-.3-.32-.03.02-.27-.35-.1,0-.2,0-.29-.01-.02.2-.03.39-.04.59-.37-.33-.73-.7-1.19-1.27.13-.07.24-.13.34-.19-6.84-1-13.27-3.67-18.75-7.68-.05.08-.09.16-.14.25-.15-.4-.17-.38-.17-.48-.84-.63-1.66-1.28-2.46-1.97.03.07.06.15.12.26-.39-.01-.13-.05-.66.12-.2-.25-.41-.51-.62-.77.08-.06.15-.13.23-.19.06.09.13.17.2.26.2.03.33.05.42.06-.41-.36-.81-.74-1.21-1.11-.09.07-.18.15-.26.22-.43-.61-.43-.35-.16-.64Zm5.47,5.13c.07.01.14.03.21.04.04.05.09.11.13.17.05-.04.11-.09.16-.13.02,0,.04,0,.06,0-.07.32-.09.3-.45.76-.51-.32-.25-.21-.64-.33-.07-.08-.14-.17-.21-.25.25-.09.49-.17.74-.26Zm-6.17-4.63c-.14-.17-.28-.34-.42-.51.08-.06.15-.12.23-.19.21.56.16.29.19.7Zm94.89-12.08c-.07-.08-.14-.17-.2-.25-1.32,4.67-3.13,9.18-5.4,13.43.04.29.02.5.16.96,2.35-4.28,4.25-8.82,5.63-13.54-.14-.25-.15-.29-.19-.6Zm-21.46-65.84c-.06,0-.13-.02-.21-.02.02-.03.06-.06.08-.09-1.53-1.38-3.11-2.68-4.76-3.9-.14.05-.19-.02-.2-.14-3.98-2.93-8.29-5.41-12.84-7.37-.12.26-.21.58-.26.98.39.18.35.13.44.23,0,.28-.03.55-.04.83,9.77,4.38,18.35,11.22,24.79,19.91-.09-.21-.18-.43-.26-.64.48-.27.96-.54,1.43-.81-2.45-3.26-5.19-6.26-8.18-8.97Zm-15.92-9.15c-.2-.26-.41-.51-.62-.77.07-.06.15-.12.22-.19.43.1,0,.03.43.07.21.87.25.09-.04.89Zm28.4,88.67c-.77-.51-2.61,1.65-2.54.97-.1.09-.21.19-.32.28-1.95,3.1-4.17,6.03-6.63,8.75.1.13.2.25.3.38-.14.18-.28.37-.42.55,0,.02,0,.05,0,.07.14.17.28.34.41.51.25-.49.18-.23.25-.64.72-.38,1-.37,1.36-.28,2.89-3.27,5.43-6.83,7.6-10.6Zm-15.3-69.39l-3.13-2.66,1.3-3.14s-.12.04-.28.1c-.02,0-.05,0-.07,0-.06-.08-.12-.16-.19-.24.02-.02.04-.04.07-.06l-2.75,1.69-3.13-2.66.97,3.99-.33.2c0,.34,0,.69-.01,1.08.68.13.72.19,1.15.39.01-.22.03-.44.05-.66.37-.45.56-1.01.67-1.7.18.13.1.08.4.17-.01.83-.18,1.5-.69,2.26l-1.02-.05-.04.7s-.07.03-.1.04l.51.04.97,3.99,1.45-3.51s-.08.03-.13.05c-.41-.65-.41-.73-.6-1.22.57-.38.67-.48,1.1-.5.15-.13.3-.25.45-.38.21.25.41.51.62.77-.26.34-.53.69-.79,1.03l3.56.27Zm14.87,4.58c-1.12-1.88-2.33-3.68-3.63-5.42-.27.45-.63.88-1.22,1.39,1.05,1.44,2.05,2.91,2.98,4.45l1.86-.41Zm-92.52,20.27l.69-.15c3.74-10.7,12.1-19.55,23.19-23.62-.07-.19-.15-.39-.23-.56-11.38,4.18-19.93,13.31-23.66,24.33Zm28.81-25.83c-1.69.37-3.34.85-4.93,1.42.09.19.16.38.2.57,1.57-.56,3.19-1.03,4.86-1.4,13.6-2.98,27.13,1.63,36.16,10.98l.69-.15c-9.17-9.68-23.03-14.47-36.98-11.42Zm39.86,10.38c.55-.28.48-.3.88-.31.33.11.34.12.63.39l.66-.15c-10.08-12.03-26.3-18.24-42.66-14.79-.13.11-.27.22-.4.33,0-.1,0-.18,0-.25-2.64.58-5.17,1.4-7.57,2.41.02.02.03.04.05.06-.07.07-.15.13-.22.19.14.17.28.34.41.52-.23.19-.45.38-.67.56-.32-.47-.46-.66-.54-.91-2.54,1.14-4.93,2.52-7.16,4.08.16.19.31.38.47.58-.15.13-.3.25-.45.38-.23-.16-.46-.32-.69-.47-1.96,1.43-3.78,3.02-5.46,4.74,0,.04.02.07.06.17h-.22c-.25.25-.5.52-.75.79l-.04.82c-.08.07-.16.15-.25.23-.4-.01-.13-.05-.66.12-.02-.02-.02-.04-.04-.06-3.58,4.16-6.36,8.98-8.18,14.18.11-.1.19-.17.23-.17.15-.13.29-.25.44-.38.12.15.25.3.37.45,0,.03-.02.06-.03.09-.09.15-.11.34-.1.56-.09.08-.17.16-.26.25-.45-.12-.33-.09-.74-.48-.01,0-.02,0-.03.01-.3.87-.57,1.74-.81,2.63l2-.44c.81-2.74,1.9-5.37,3.24-7.88-.11-.09-.23-.21-.41-.39.38-.31.75-.63,1.12-.94,0,0,.01.02.02.02,2.08-3.59,4.69-6.87,7.75-9.72-.21-.76-.15-.62.06-1.3.07.09.14.17.2.26.08-.06.15-.13.23-.19.07.09.14.17.21.26-.19.36-.23.47-.51.8,2.44-2.25,5.17-4.22,8.13-5.85-.07-.08-.13-.16-.2-.24.07-.06.14-.13.22-.19.07.19.11.28.14.34,1.25-.68,2.54-1.3,3.87-1.86,0-.05,0-.1,0-.15-.07-.08-.14-.17-.21-.26.08-.06.15-.13.23-.19.25.1.5.19.75.27.14-.05.27-.11.41-.16-.06-.28-.08-.62-.14-1.06.3-.25.59-.5.89-.76.5.32.25.21.64.32.25.39.37.64.44.84.19-.06.39-.12.58-.18-.11-.37-.14-.71-.25-1.22,1.61-1.54,1.18-1.07,1.14.94.89-.26,1.8-.49,2.71-.69,10.19-2.23,20.34-.54,28.88,4.06.27-.16.53-.28.8-.37.28.48.42.8.47,1.09,3.85,2.25,7.33,5.1,10.31,8.46,0-.06-.01-.12-.02-.21Zm-65.81,62.09l-.7,1.53c.28,0,.62,0,1.01.01l-.31-1.54Zm27.06,22.19c.23-.79.43-1.53.6-2.25.07,1.66.2,3.08.38,4.25l2.73.34-.53-4.44c-.1,0-.19,0-.29,0-.1-.15-.22-.5-.64-.23.04.08.1.17.17.26-.35.03-.72.08-1.13.14-.27-.34-.55-.68-.83-1.02,1-.77,1.79-.84,2.54-.7l-.06-.53.7-2.06c-.36.02-.73.09-1.1.25-.18-1.14.74-1.8.56-3.05.04-.02.08-.03.12-.05.02.38.04.77.06,1.15.13,0,.26,0,.39-.01.15.12.26.2.46.28l.44-1.3c-.2-.04-.39-.08-.59-.11-.07-.03-.16-.06-.27-.11l-1.58-.2-.14.41s0,0,.01-.01c.01.02.02.04.03.05-.02,0-.04,0-.06,0l-.14.42c.17.07.1.03.31.24.08-.03.14-.06.2-.07.02.08.04.16.05.31-.19-.14-.39-.27-.59-.41l-.7,2.07c-.02-.48-.06-1-.11-1.57-.06-.75-.1-1.28-.11-1.6l-2.85-.36.45,5.15-1.86,6.19,2.87.36.51-1.82Zm.12-5.25c.07.09.14.17.21.26.07-.07.14-.12.22-.19.18.92.3.26-.26,1.08-.97-.65-.66-.18-.17-1.15Zm6.87,4.31l.16,3.36,2.97-.14-.22-4.6.8-.04c.65-.03,1.17-.14,1.56-.34.39-.2.66-.47.79-.81.13-.34.18-.88.15-1.6l-.05-1c-.03-.71-.1-1.24-.19-1.58-.03-.12-.09-.23-.14-.34-.3-.23-.61-.51-.94-.88-.13-.05-.26-.1-.41-.13-.44-.11-1.07-.14-1.88-.1l-.42.02s-.01.08-.02.14c-.32.21-.5.34-.66.41,0-.04,0-.07.01-.11-.3-.17-.48-.27-.61-.38l-1.29.06.31,6.58c.42.54.76,1.06.83,1.51.07.09.14.17.21.26-.07.07-.15.13-.22.19-.26-.17-.5-.33-.74-.47Zm5.13-6.24c-.08.4-.08.34-.46.82.08-.4.08-.33.46-.82Zm-2.45-.02c.39-.02.64.03.77.14.13.11.2.36.22.75l.05.94c.02.42-.02.7-.12.84-.1.14-.29.22-.56.23-.06,0-.13,0-.22,0l-.14-2.91Zm7.02,6.11l.51,2.62,2.92-.57-.06-.32c-.29,0-.59,0-.88.01-.14-.17-.28-.34-.41-.51.46-.27.8-.38,1.11-.44l-1.94-9.97-2.92.57,1.4,7.2c.44.15.86.38,1.35.46.47.99.45.3.17,1.15-.44-.09-.88-.09-1.25-.2Zm1.99-5.15c.25.5-.23.55-.34.64-.62-.11,0-.5.34-.64Zm-46.61-8.19l3.03,2.78-.82-4.03,1.14-.64c-.45-.29-.23-.19-.61-.31-.07-.09-.14-.17-.21-.25.15-.13.3-.26.45-.38.32.58.34.54.39.92l2.41-1.36-4.08-.47-.44-2.15c-.24.6-.72,1.47-1.28,2.14-.32-.51-.39-.67-.5-.95l-.31.67-3.26-.37v.26c-.09.08-.18.12-.33.1l1.85,1.7c.07-.21.11-.42.12-.67.15-.12.3-.25.45-.38.14.56.06,1.01-.13,1.45l.24.22-1.7,3.74,3.58-2.02Zm22.47,10.47l.61-2.09-1.78-.52.61-2.08,1.9.56.64-2.2-4.76-1.39-.83,2.84c.06,0,.13,0,.19,0,.03.11.05.23.08.34.6-.31.37-.04.47-.32.1,0,.2.01.3.02-.24.25-.51.5-.84.78-.14-.03-.29-.03-.44-.05l-2.15,7.35,4.95,1.45.64-2.2-2.09-.61.71-2.41,1.78.52Zm25.95-6.1l3.58,10.09,2.8-.99-1.72-4.86c.39-.14.65-.15.79-.05.14.11.31.45.51,1.02l1.27,3.58,2.6-.92-1.01-2.84c-.31-.87-.52-1.39-.64-1.57-.12-.18-.31-.35-.58-.51-.27-.16-.71-.22-1.31-.16.59-.27.94-.59,1.05-.96.11-.36.01-.96-.29-1.8-.33-.92-.71-1.54-1.15-1.85-.44-.31-.92-.44-1.42-.38-.51.06-1.42.33-2.74.8l-1.57.56c.15,0,.31,0,.51-.01.29.19.56.39.85.58-.15.12-.3.25-.45.38-.45-.1-.71-.16-1.08-.11Zm5-.62c-.15.12-.3.25-.45.38.11-.62-.14-.56.45-.38Zm-1.07.7c.16.06.3.27.42.61l.21.59c.17.47.21.78.11.91-.1.13-.3.25-.62.36l-.85-2.4c.32-.11.57-.14.73-.08Zm-44.64-18.95c.07,0,.13-.02.18-.03-.06-.06-.13-.13-.19-.19,0,.07,0,.15.01.22Zm74.94-4.56l1.09,3.4c.05-.12.08-.24.1-.34.12-.02.24-.02.35-.02l1-3.03h2.2c-.54-.24-.61-.17-1.24-.62.04-.03.08-.06.11-.09.15.1.12.09.29.13,0,.01.02.02.03.03,0,0,.02-.01.02-.02.06.01.13.04.24.07.11-.05.22-.11.33-.16.18.32.2.35.24.68h.46c0-.11,0-.22,0-.37.14-.12.28-.24.43-.36l-2.31-1.7,1.29-3.9-3.34,2.4-3.1-2.28c-.03.08-.06.15-.09.23l1.13,3.53-3.34,2.4,4.11.02Zm23.4-53.84c-.18-.12-.36-.24-.53-.37.06-.1.11-.19.16-.29-.99-1.46-2.79-2.25-4.62-1.85l-12.91,2.83s0,.1.01.24c-.05-.07-.11-.14-.16-.21l-27.54,6.04.24.35-1.37.92.52-1.14-28.99,6.35c-.17.25-.43.58-.84,1.03l-1.55-.33c-.02-.06-.04-.11-.06-.16l-6.49,1.42s-.01,0-.02.01c.08.33.16.65.23.98h-.08s-.53-.77-.53-.77c0-.04.01-.09.02-.13l-2.4.53.13.2-2.06.65c.03-.13.06-.28.09-.45l-22.73,4.98c.15.04.28.08.41.1.11.17.22.35.33.52.22.09.44.18.67.27.04-.05.08-.1.11-.13.03.04.07.08.1.12-.62.44-.85.53-1.32.68-.29-.19-.57-.39-.85-.58.08-.21.16-.42.24-.64-.06-.08-.13-.16-.19-.24l-3.75.82c-.58.56-1.19,1.11-1.89,1.65.02-.16.35-.65.84-1.31.14-.05.28-.13.42-.2l-17.84,3.91c.06.05.13.11.22.19-.22.19-.45.38-.67.57-.13-.35-.16-.38-.17-.45l-.4-.09-9.38,2.06c-2.39.52-3.9,2.88-3.38,5.27l1.59,7.27s.07,0,.11,0c.04.21.03.37,0,.52l4.39,20.05c.43,1.96,2.1,3.33,4.01,3.47-.1-.14-.19-.27-.29-.41.07-.03.13-.06.19-.09.15.2.26.36.35.51.34,0,.68-.02,1.02-.1l27.37-6s0-.01,0-.02c-.06,0-.12,0-.17,0,.25-.34.47-.29.69-.09l2.27-.5c.03-.65.07-1.24.24-1.18.02.37.03.75.04,1.12l.9-.2s.07-.06.11-.09c.02.02.03.04.04.06l18.54-4.06s0,0,0-.01c.08-.07.15-.13.23-.19.04.04.07.09.11.13l5.44-1.19s-.05-.07-.08-.1c.15-.12.3-.25.44-.37.2.07.42.16.66.25l10.1-2.21c-.06-.07-.12-.15-.18-.22.07-.06.15-.12.22-.19.43.27.31.24.5.29l9.91-2.17-.67-.34-.08.49c-.4-.02-.79-.05-1.23-.04-.2-.26-.41-.51-.62-.77.69-.42,1.06-.46,1.42-.37,0,.03-.01.05-.02.08.09,0,.18,0,.27,0,.25.08.53.19.93.26.16.2.32.4.48.59l24.48-5.37c.13-.23.26-.42.47-.63,0-.02-.02-.04-.03-.05.13.13.3.29.49.48l33.72-7.39c1.25-1.54,2.7-3.21,3.32-3.8.08.03.17.05.26.08,0-.09,0-.18,0-.28,0,0,.02-.01.03-.01,0,0,.02-.01.02-.02.22-.08.39-.16.52-.23.18.21.35.43.52.64-.51.45-.98.89-1.42,1.32-.22-.15-.07-.07-.59-.22,0,.1.01.2.02.29.17,0,.34-.01.51-.01-.67.67-1.28,1.32-1.88,1.96l1.31-.29c2.39-.52,3.9-2.89,3.38-5.27l-6.1-27.85c-.07-.31-.17-.6-.29-.88Zm-78.94,14.5c.26-.17,1.68.11,2.51.18-.04.18-.08.36-.12.54.22,0,.45-.01.67-.02l-.87.59c-2.14-.03-.84-.56-2.91.59.02-1.09-.56-1,.73-1.87Zm-3.66.4l.42-.29.51.76c-.27,0-.54.02-.81.03,0,.09,0,.18,0,.27l-.63.07c.13-.3.25-.59.51-.84Zm-3.31,4.98l.93.2.13-1.42s0,0,0,0c.02-.24.04-.48.05-.72l1.61.11.91-.61.31.46c.11.25.19.4.29.51l-1.99.85-2.15,1.92-.1-1.28Zm-3.43-1.13c.22.01.45.02.67.03.02-.22.03-.44.05-.66-.5-.76-.41-.93-.23-1.75l1.05.61-.45,1.58.87-.24c.03.06.07.13.11.18l-.96.88,1.12.59c-.58.32-.91.48-1.17.54-.5-.41-.84-.65-1.69-.77l-.26-.39.89-.6Zm-3.33-1.72c.07-.06.15-.13.22-.19.14.17.28.34.41.51-.3.25-.59.5-.9.76-.18-.26-.83-1.33.26-1.08Zm-10.66,6.39c-.15.12-.3.25-.45.38-.14-.17-.28-.34-.41-.51.15-.12.3-.25.45-.38.14.17.28.34.41.51Zm-1.39-3.13c.21.56.16.29.19.7-.14-.17-.27-.34-.42-.51.08-.06.15-.13.23-.19Zm.19,5.86c.04.06.08.12.12.17-.42.03-.83.12-1.31.48.94.45,1.07.95,1.25,1.45-.12.1-.25.21-.37.31-.98-.7-.98-.95-1.22-1.98.83-.45.83-.32,1.53-.43Zm2.99,15.69c.05.21.12.39.19.55,0,.15.05-.05-.39.32.94.97,1.18.87,1.22,1.98-.02,0-.04,0-.05-.01,0-.05,0-.11.01-.16-.1,0-.2-.01-.29-.02,0-.11.01-.22.02-.33-.53-.3-.75-.49-1.42-.73.02.48.04.68.09.89-.32-.04-.63-.07-.94-.05-.71-1.2-.51-1.54-.98-2.62.16-.67-.14-.1-.64-.33.04-.35,0-.54.03-.89,1.03.49,1.78.42,2.77,1.11.08.02.12.03.16.04-.02.05-.05.12-.09.22.1,0,.19,0,.3.02Zm-4.12-4.94s0,0,0,0c-.32-.31.03-.02-.34-.28,0,.16.02.33.02.49-.28-.13-.47-.38-.7-.67.09,0,.17.01.27.02.18-.52.05-.29.3-.59-.02-.22-.04-.41-.06-.58.02-.05.03-.1.05-.14.14.07.22.17.56.47-.22.19-.45.38-.67.57.19.24.39.48.58.72Zm2.49,1.53c-.42-.08-.7-.04-1.21.06-.03-.32,0-.56.02-.8.12.02.27.05.47.08-.02-.22-.03-.36-.04-.47.2.09.41.2.62.31,0,.21,0,.44.02.68.05.06.09.1.12.14Zm-1.05-5.63c.16.29.31.57.47.85-.1.17-.2.35-.3.52-.13-.02-.27-.05-.45-.07,0,.06,0,.11-.01.17-.33-.22-.41-.24-.53-.82.02-.2.1-.45.17-.69.22.01.44.02.65.03Zm-3.97-8.68s0,0,0,0c0,0,0,0,0,0,.02-.03.03-.06.05-.1.07.09.14.17.21.26-.15.12-.3.25-.45.38.06-.36,0-.19.18-.52Zm-4.11,1.24s.02.02.04.03c0,.15.02.29.02.44-.08-.07-.17-.16-.29-.27.08-.06.15-.13.23-.19Zm-6.33,1.02c.31.55.34.55.38.87-.04,0-.08-.01-.12-.02,0,0,0,0,0,0-.23-.16-.47-.32-.7-.48.15-.13.3-.25.45-.38Zm-12.03,1.11s.04-.05.07-.08c.4.65.41.73.6,1.22-.26.22-.52.44-.78.66.04-.6.07-1.19.11-1.79Zm-4.59,2.55c.07-.06.15-.12.23-.19-.09.39-.08.33-.47.82-.14-.17-.28-.34-.41-.51.52-.16.26-.13.65-.12Zm-5.55,1.53c-.09,0-.18,0-.27-.02,0,.13-.02.26-.03.39-.3-.11-.44-.15-.93-.51.92-.3,1.15-.34,1.23.13Zm0,.05c.02.12.03.28.04.47-.07-.03-.14-.06-.2-.09.03-.05.04-.11.16-.39Zm1.03,18.55c-.08.06-.15.12-.23.19.07.09.14.17.21.25-.44.23-.89.46-1.33.69-.42-.36-.84-.73-1.26-1.09,1.22-.85,1.5-.64,2.6-.04Zm-4.02-7.8c-.52.34-.33-.37-.19-.7.53.19.21.55.19.7Zm-.37-1.41c.06.09.14.17.21.26-.15.12-.3.25-.45.38.07-.4-.02-.14.24-.63Zm-.88.31c.07.08.14.17.21.26-.15.13-.3.25-.45.38.06-.4-.02-.14.24-.63Zm7.16,20.22c-.69,1.05-.17,1.36-.32,2.41.06.08.12.16.17.23-.09,0-.18-.02-.27-.03-.04-.05-.07-.1-.11-.16-.03-.12-.05-.24-.08-.36-.09-.04-.17-.08-.25-.11-.74-1.05-1.54-2.1-2.2-2.65h0c.19-.28.34-.48.47-.66.08.1.16.2.24.29.25-.49.18-.23.25-.64,1.12-.59,1.17-.23,2.16-.11.5.7.6.96.81,1.47-.54.29-.49.3-.88.31Zm-4.49-27.19c-.13-.32-.26-.64-.39-.96.08-.06.15-.13.22-.19.47.99.44.3.17,1.15Zm.95-2.09c.07.09.14.17.21.26.08-.06.15-.13.22-.19.17.76-.27,1.51-.52,2.16-.27-.49-.54-.98-.81-1.47,1.14-.15.49.3.9-.76Zm19.73,23.57l-3.57.78c.17.76.25.2-.28.99-.5-.38-.63-.34-.76-.76l-8.39,1.84-2.58-11.76c-.54-.22-1.08-.41-1.69-.38-.23-.76-.06-1.49.18-2.12.29-.03.54-.2.82-.62l-.04-.18s-.09,0-.14,0c-.07-.08-.13-.16-.2-.23.08-.2.15-.38.17-.53l-2.28-10.41,2.51-.55c-.06-.23-.12-.46-.18-.69-.07.06-.15.12-.22.19-.31-.74-.23-.77-.38-1.4.29-.1.59-.21.88-.31.68.42,1.28.76,1.91.98-.22.29-.44.57-.65.86-.22-.02-.37,0-.66.15-.1.03-.19.06-.27.09-.06,0-.12-.02-.19-.04-.07.06-.13.11-.2.17l9.97-2.19,1.15,5.25-5.01,1.1,1.09,4.97,1.57-.34c-.28-.11-.59-.2-.96-.25.19-.12.36-.19.56-.22,0,.1,0,.2,0,.31.31,0,.61-.02.91-.03,0,.02,0,.05-.01.08l2.62-.57,1.09,4.99-.49.11c.44.2.15.54.14.68-.51.33-.35-.31-.21-.66l-4.12.9.3,1.38s.04,0,.06-.01c.74-.12.06,1.33.71,1.45.56,1.13.74-.2,1.15.86-.38.31-.75.63-1.13.94.37.56.51.72.58,1.06l5.1-1.12,1.15,5.25Zm-7.8-16.07s0,.05,0,.08c-.1-.05-.2-.1-.3-.15.02-.02.04-.03.06-.05.04.04.08.09.12.14.05,0,.09,0,.13-.01Zm3.5,7.47c.37.13.32.35.26.52-.13.02-.27.04-.41.05,0-.17.08-.41.16-.57Zm-.62-.77c-.44-.29-.5-.29-1.05-.84.82-.12.06-.25.86.14.07-.06.15-.12.22-.19.21.87.25.09-.03.89Zm6.35,8.84s0,0,0-.01c0,0,0,0,0,0,0,0,0,0,0,0Zm-4.34-20.85c-.58-.27-.63-.18-1.28-.65-.08.07-.15.12-.22.19-.14-.17-.28-.34-.42-.51.57-.38.67-.49,1.11-.5.15-.13.3-.25.45-.38.73,1.14.65.93.36,1.85Zm5.79,22.65c-.21-.57-.16-.29-.19-.7-.14-.17-.27-.34-.41-.51.07-.06.15-.13.22-.19.07.09.14.17.21.26.15-.12.29-.25.45-.38.27.77,0,.65-.28,1.53Zm5.97,2.28c-.09-.11-.18-.23-.27-.34,0-.1.02-.21.02-.31.02-.02.04-.03.06-.05.21.56.16.28.19.7Zm.81-4.08c-.28-.29-.12-.07-.36-.58.11,0,.22,0,.33,0,0,.19.02.39.03.58Zm1.23,1.94c-.28-.34-.55-.68-.82-1.03.59.25.71.38.82,1.03Zm7.13-4.71c-.48.11-.66,1.23-1.57,1.32-.15.02-.52-.29-.85-.48-.45-.44-.76-.98-1.08-1.49.02-.04.04-.09.06-.13-1.27-2.29-2.58-5.04-3.93-8.27.18,1.71.3,3.52.37,5.46l.23,4.43-7.3,1.6-.04-1.29c-.16-.04-.34-.13-.66-.33-.07.06-.15.12-.22.19-.35-.98-.05-1.16-.13-2.04.39-.28.68-.46.93-.6l-.19-5.88c-.06-.02-.12-.03-.19-.05-.05.77-.03,1.3.01,1.81-.36.01-.72,0-1.24.13-.28-.2-.56-.39-.84-.59-.03-.42.03-.13-.19-.7.38-.47.76-.93,1.14-1.39-.42-.63-.53-.76-.6-1.21-.14-.17-.27-.34-.41-.51.37-.32.75-.63,1.12-.95.28,1.11.16.81.79,1.92.12-.03.24-.06.37-.09l-.12-3.66-2.51-5.24c.04.22.02.33.21.83-.37.32-.75.63-1.12.94-.33-.61-.34-.54-.39-.96-.14-.17-.28-.34-.42-.51.78-.17.85-.17,1.15-.47,0,.03,0,.06,0,.09.17,0,.34,0,.52-.01l-1.29-2.69c-.56.13-1.12.21-1.79.4-.14-.17-.27-.34-.41-.51.51-.63.92-.93,1.5-1.35l-.72-1.51,7.25-1.59c.08.19.18.42.29.67,0,0,0-.01,0-.02.16,0,.33-.01.5-.02-.03.24-.11.21-.31.45.28.63.65,1.41,1.09,2.35.6,1.22,1.11,2.34,1.55,3.38l.03-7.51,1.22-.27c0-.1.01-.2.02-.29.02-.05.03-.1.04-.12.11.08.17.17.23.35l4.78-1.05-.05,6.29s.08.05.13.07c-.05,0-.09,0-.13,0l-.04,5.8,7.18,13.76-1.02.22c.1.57-.11.56.1,1.32-.42.06-.69.11-1.09.05-1.52,1.1-.91.33-1.95-.09Zm1.85,2.31c.1-.61-.14-.56.45-.37-.15.12-.3.25-.45.37Zm2.17-.1c-.49-.23-1.18-.59-1.7-.71-.14-.17-.28-.34-.41-.52,1.58-.97,1.49-.25,3.09-1.31.2.4.4.81.6,1.21-.52.44-1.05.88-1.57,1.32Zm-1.32-16.58c.05-.17.05-.31-.07-.49-.3-.92-.74-1.48-1.42-2.01-.32.24-.1.11-.62.3-.04-.05-.09-.11-.13-.17,1.04-.72,1.51-.66,2.26-.66-.28.22-.21.16-.47.81.28.2.67.45,1,.71,0,.04,0,.07,0,.11.08.02.14.04.2.06.07.06.14.12.19.18.08-.02.16-.05.24-.07.12.02.26.04.46.06-.46.48-.93.95-1.39,1.43-.08-.09-.16-.18-.25-.28Zm2.37,6.66c-.01-.06-.03-.11-.04-.16.15,0,.29.01.44.02-.09.03-.21.07-.4.13Zm-.06-3.39c-.05.05-.1.09-.16.13-.17-.24-.34-.48-.5-.72,0-.04.01-.09.02-.17.3.1.34.12.56.31,0,.16.02.3.08.44Zm1.15,3.33c-.09-.02-.16-.04-.22-.05.09,0,.18,0,.27.01-.02.01-.03.03-.05.04Zm-2.35-10.05c-.27.2-.34.06-.53.09-.01-.17,0-.26.07-.57-1.45-.8-1.58-.45-2.74-2,.23-.16.43-.27.59-.35l-.04.76,1.14.06-.86-.92c.63-.21.85.17,1.77.41.33.94.36.5-.05,1.33.5.48.8.66,1.13.88-.08,0-.17,0-.25,0,.08.17.12.26.14.31-.12,0-.25-.01-.37-.02Zm10.28,17.57c-.07-.09-.14-.17-.21-.26-.73-.06-.49.04-1.27-.65.37-.31.75-.62,1.12-.94.26.49.54.98.8,1.48-.15.12-.3.25-.45.38Zm1.41-14.87l-2.01.44,1.63,7.42c.1-.05.22-.11.36-.17-.59-1.1-.85-.62-.17-1.56.02,0,.03,0,.05,0,.13.16.26.32.38.48-.04,1.5,1.67,2.16-.04,3.88l.11.51-7.5,1.64-3.25-14.82c.02.28.08.52.16.86-.05.05-.09.09-.14.14-.06-.04-.16-.1-.3-.17-.1-.37-.2-.73-.31-1.1-.02,0-.04,0-.06,0,0-.08-.01-.16-.02-.24h0c0-.09-.01-.19-.02-.28.17.11.37.25.6.44l-1.01-4.59c-.38,0-.76,0-1.12.04-.16-.28-.26-.54-.32-.78.09-.06.2-.12.33-.18-.11-.26-.22-.52-.33-.77.13-.45.44-.81.82-1.13l-.8-3.66,7.55-1.66c2.04-.45,3.64-.65,4.81-.59,1.16.05,2.08.29,2.75.72.67.43,1.19,1.02,1.56,1.76.37.74.73,1.93,1.09,3.57l.5,2.29c.37,1.67.44,2.94.23,3.79-.08.32-.22.62-.4.9,0,.03.01.07.02.12-.09.4-.08.34-.47.83-.08-.04-.15-.08-.22-.11-.19.17-.4.34-.63.49-.93.63-2.21,1.13-3.85,1.49Zm7.2,11.07c.14.17.28.34.41.52-.15.12-.3.25-.45.38-.52-.73-.42-.18.04-.89Zm4.22,2.9c-1.88.58-1.79-.94-3.67-.35.2-1.07.82-1.35,1.38-2.02.74.28,1.39.39,2.15.34.49.45.97.9,1.46,1.35-.59.45-.86.67-1.33.69Zm4.05-3.84c-.83-.13-1.77.08-2.62.48-.21-.25-.41-.51-.62-.77.42-.07.69-.11,1.08-.05.27-.8.26-.02.04-.89.04-.17-1.44-1.04-2.12-1.23-.18-.75-.04-.75-.58-1.66.12-.22.24-.43.36-.65l.8.13.02-.14c.68.15,1.41.29,2.06.31l-1.86-8.51s-.05,0-.07,0c.01-.02.03-.03.04-.05,0-.03,0-.05,0-.08l-.24-1.09s-.1,0-.15,0c-.3.31-.53.45-.72.64-.32-.24-.67-.49-1.13-.55-.06-.23-.13-.46-.19-.7.57-.38.68-.48,1.1-.5.31-.24.54-.39.74-.49l-2.77-12.64,2.66-.58c-.09-.11-.18-.23-.28-.34.29-.11.59-.21.88-.31.06.3.11.42.13.49l4.1-.9,5.75,26.23-7.5,1.64-.04-.17c-.1.05-.21.1-.31.14.63.47,1.26.95,1.89,1.42-.16.28-.31.55-.47.83Zm7.79.33c-1.11-.02-3.21.78-4.18,1.36-.5-.33-.25-.21-.63-.33-.43-.63-.54-.76-.6-1.21.05-.39.31-.9.48-1.27,1.19.12,1.99.05,2.82.15l-.12.76,1.08.17.11-.7c.43.14.92.36,1.49.68-.16.12-.3.25-.45.38Zm-1.21-10.75c-.14-.17-.28-.35-.41-.51.15-.13.3-.25.45-.38.13.17.27.34.41.52-.15.13-.3.25-.45.38Zm.08-4.21c-.57-.72-.59-.14-.17-1.15.47.99.44.29.17,1.15Zm-2.73-12.75c-.33-.97-.09-.28.26-1.08.07.09.14.17.21.25.08-.06.15-.12.23-.19.07.09.13.17.2.26-.3.25-.6.5-.89.76Zm6.99,25.07c-.21-.26-.41-.51-.62-.77.08-.06.15-.12.22-.18.28.19.57.38.85.58-.15.13-.3.25-.45.38Zm62.53-40.19c.59,1.67.71,1.04-.41,2.34-.85-1.34-.44-1.35.41-2.34Zm-.95,1.14c.08.17.05-.1-.16.49l-.02-.02c.08-.16.13-.32.17-.47Zm2.05,8.64c.42.1,0,.04.43.07.94,1.36.86,2.12.3,3.19-1.33-.85-1.21-1.91-.73-3.25Zm-10.55-11.66c.31.73.22.77.38,1.41-.15.12-.3.25-.45.37-.28-.34-.55-.68-.83-1.03.3-.25.6-.5.9-.75Zm-29.67,4.74c-.07.06-.15.12-.22.19l-.2-.26c0-.1.06-.04.42.07Zm-4.56,5.56c.15-.12.3-.25.45-.38.38.98.41.94-.07,1.78-.28-.77-.25-.49-.17-1.15-.06-.08-.13-.17-.21-.25Zm1.73,11.01l.96,1.42-2.16.68,1.12.65c-.06,0-.18-.04-.42-.15-.09.4-.17.79-.27,1.18.17-.11.34-.22.51-.33l-.25.89,1.31-.36-1.29,1.18,1.12.59c-1.49.81-1.33.61-2.48.33l-.64-.95,1.36-.92-1.6-2.37,2.73-1.84Zm-2.62.05c.59-.09.32-.12.41.51-.14-.17-.28-.34-.41-.51Zm-21.22-12.76c.46.99.44.29.17,1.14-.5-.32-.25-.21-.64-.32-.21-.26-.41-.52-.62-.77.36-.02.73-.04,1.09-.05Zm10.7,33.92c-.14-.17-.27-.34-.41-.51.07-.06.15-.12.22-.19.21.57.16.29.19.7Zm4.59-.85c-.21-.57-.16-.29-.19-.7-.07-.08-.14-.17-.2-.26.07-.07.15-.13.22-.19.47.99.44.29.17,1.15Zm.87-1.5l-.64-.95.91-.61.64.95-.91.61Zm8.37-4.27l-.64-.95.91-.62.64.95-.91.62Zm-.08-2.53l-1.5,1.7-.96-1.42,2.16-.68-.66-1.02-2.14,1.45.45,2.07-6.97,1.53-1.91-8.72c-.31-1.4-.62-2.25-.94-2.53-.32-.28-.99-.31-2.03-.08l2.59,11.83-7.5,1.64-2.72-12.4s-.06.1-.2.36c-.44-.29-.5-.3-1.05-.84.54-.29.49-.3.88-.31.11.03.17.04.21.05l-2.87-13.1,5.31-1.16c.85-.19,1.63-.35,2.36-.49-.12-.19-.26-.42-.47-.71.63-.44.86-.53,1.33-.69.3.5.44.83.53,1.14,1.57-.28,2.75-.43,3.53-.45,1.31-.03,2.47.39,3.48,1.23.69.58,1.25,1.48,1.7,2.69l.57-.12.64.95-.86.25c.08.28.15.56.21.87.02.1.04.2.06.3.5.32.63-.11,2.13-1.08l.18,1.25-.91.61-1.35-.5c.17.91.25,1.68.23,2.32l.64-.61,2.03-.87.64.95-2.46.25c.37,1.06.36,1.29.35,1.53-.05.06-.13.15-.29.26.1,0,.2.01.29.02.02.21.1.54.34,1.21-1.81-.09-1.04.58-1.41-1.11l-.73.25c-.21.25-.48.48-.82.69l-.22.31-.53.09c-.33.15-.71.29-1.12.42,1.56,0,2.65.24,3.29.69.63.45,1.06.9,1.29,1.34.23.44.57,1.72,1.04,3.84l.66,3.04c.15.05.26.25.95.88l.95-1.46.46-.31.64.95c1.5.05.62-.3,1.87.81l-1.37.92Zm2.9,2.79c.08-.17.16-.33.24-.48l.15.22-.39.26Zm-.54-1.01l.29-.2.02.02c-.11.06-.21.11-.3.17Zm-.34-4.92l-.93-.2-.18-1.25,1.25-.05-.14,1.51Zm3.91,6.65l-.64-.95,1.37-.92.64.95-1.36.92Zm3.78-3.24l-.26-.83-5.91,1.29-1.44-6.57-.78.69-.1-1.28.79.17-.32-1.45-.65.03.56-.44-3.81-17.39,12.51-2.74.94,4.27c.46-.25.44-.27.81-.27.39.11.13,0,.64.32-.08.07-.15.13-.23.19-.06.4.02.14-.24.63-.41-.27-.5-.3-.95-.74l.18.84-5.01,1.1,1.09,4.98,4.68-1.03.43,1.97.22.32c-.04.06-.07.11-.11.17l.55,2.53-2.12.47s-.06.07-.09.1l-.19-.04-2.28.5.02.08c.65.03,1.76.24,2.32.25l.32.47-.91.61c-1.04-.02-1.27-.15-1.47-.15l.99,4.51,5.51-1.21,1.15,5.25-5.82,1.28c.19.1.33.19.34.19l-1.36.92Zm7.77,1.55l-.64-.95,1.37-.92.64.95-1.37.92Zm-5.35-34.19c.55-.29.48-.3.88-.31.4.13.33.12.84.58-.31.4-.61.8-.92,1.2-.28-.19-.56-.39-.84-.58.08-.45.09-.42.04-.89Zm5.52,21.67l-.64-.95.91-.61.64.95-.91.62Zm-.13-3.95l-.64-.95.91-.61.64.95-.91.61Zm11.07,12.23c.06-.4-.02-.14.24-.64.07.09.13.17.2.26-.15.13-.3.25-.45.38Zm1.44,1.8s-.08-.05-.12-.07c.05,0,.1,0,.14,0,0,.02-.01.04-.02.07Zm5.29-2.3c-.49-.71-.6-.96-.8-1.48,1.17-.67.99.18,1.12-.94.3-.25.6-.5.9-.76.14.17.28.34.41.51-.42.93-.81,1.79-1.62,2.66Zm2.12-5.03c-.51.58-1.19,1.06-2.04,1.43-.85.37-2.17.76-3.97,1.15l-9.46,2.07-5.75-26.24,5.61-1.23c3.62-.79,6.11-1.18,7.45-1.16,1.34.02,2.42.31,3.24.85.82.55,1.4,1.22,1.75,2.04.35.81.8,2.46,1.34,4.94l2.01,9.19c.52,2.36.74,3.96.67,4.8-.07.85-.36,1.56-.87,2.14Zm1.42,2.24l-.64-.95,1.37-.92.64.95-1.36.92Zm1.33-5.18c-.15.12-.3.25-.45.38-.44-.28-.5-.3-1.05-.84.38-.31.75-.63,1.12-.94.14.17.27.34.41.52-.08.44-.08.42-.03.89Zm-3.37-20.41c.21.4.13.76.69,1.3-.01-.74-.02-1.09.25-1.47.22.25.42.47.62.67-.01.24-.03.48-.04.72-.04-.07-.09-.13-.19-.24,0,.1.01.19.02.29-.25.31-.11.09-.3.59.16,0,.32,0,.47-.01.01.2.04.42.1.65-.23.19-.45.38-.68.57-.13-.32-.26-.64-.39-.95-.08.74-.15.49.37,1.4-.04.03-.08.07-.12.1-.04.01-.09.03-.13.04-.91-1.12-.37-1.48-1.35-3.08.23-.19.46-.39.69-.58Zm1.11,8.22c.25-.49.18-.24.24-.63.13-.11.25-.2.37-.29.09.05.18.09.28.12.21-.31.48-.55.76-.76.12-.05.24-.1.36-.14.64,1.11.58,1.37.34,2.3-.57-.08-1.16.04-1.74.17-.2-.26-.42-.51-.62-.77Zm5.36,7.19c-1.28-1.14-1.7-.64-2.96-1.81.98-.74,1.18-.69,1.99-.81.2.26.42.51.62.77.44-.38.9-.75,1.35-1.14.24.97-.27,2.18-.99,2.98Zm-59.97-1.73l1.28,5.83c.84-.18,1.41-.42,1.7-.7.29-.28.31-1.01.06-2.16l-.32-1.44c-.18-.83-.46-1.34-.85-1.53-.38-.19-1.01-.19-1.88,0Zm2.54,1.88c-.52.35-.34-.36-.19-.7.53.19.2.56.19.7Zm-63.11,32.12l-.05-1.49c-.14.44-.21.69-.23,1.41.09.02.18.05.28.07Zm11.97-.2c-.11,0-.22,0-.33,0,.35.23.09.1.67.27,0-.19-.02-.39-.03-.58-.11,0-.22.01-.33.01,0,.1.01.2.02.3Zm13.2-26.04l1.46,6.68c.22-.04.4-.07.56-.1.69-.15,1.13-.41,1.33-.78.2-.37.19-1.04-.02-2.01l-.47-2.15c-.2-.9-.48-1.45-.85-1.65-.37-.2-1.04-.2-2.01.02Zm-35.96,24s.05-.02.08-.03c-.04-.02-.06-.04-.1-.06l.02.09Zm3.91,20.25c-.31-.05-.61-.11-.93-.26,3.82,5.27,8.36,9.94,13.45,13.87-.19-.24-.39-.48-.58-.72.07-.06.16-.13.22-.19.28.19.56.39.84.58-.15.12-.29.25-.44.37,8.14,6.27,17.67,10.67,27.86,12.76.11,0,.22,0,.35-.02.03.04.05.07.08.11,2.94.58,5.93.96,8.96,1.15-.13-.24-.19-.42-.23-.62-19.77-1.27-37.94-11.33-49.58-27.03Zm-4.22-6.42l-.62.14c1.05,1.83,2.18,3.58,3.38,5.29.23-.06.44-.1.63-.16-1.2-1.7-2.34-3.45-3.39-5.27Zm105.61,13.76c.02.11.03.23.03.35-.07-.07-.13-.12-.19-.18-8.76,8.79-20.04,15.26-33.03,18.1-5.45,1.19-10.88,1.68-16.22,1.53,0,.04.01.07.02.11.14.17.27.33.4.5,5.25.11,10.58-.38,15.93-1.55,8-1.75,15.36-4.88,21.89-9.05,0,0,0,0-.01-.01.07-.07.15-.13.22-.19,0,.02.01.04.02.06,4.34-2.8,8.3-6.07,11.84-9.72-.11-.17-.23-.33-.35-.5-.18.19-.36.38-.55.56Z"/></g></svg>