<?xml version="1.0" encoding="UTF-8"?><svg xmlns="http://www.w3.org/2000/svg" viewBox="0 0 1000 1000"><defs><style>.cls-1{fill:#029991;}.cls-1,.cls-2,.cls-3,.cls-4,.cls-5,.cls-6,.cls-7,.cls-8{stroke-width:0px;}.cls-2{fill:#afe3db;}.cls-3{fill:#10525c;}.cls-4{fill:#23adba;}.cls-5{fill:#98e3a0;}.cls-6{fill:#9bd4cb;}.cls-7{fill:#26b5ae;}.cls-8{fill:#dfebed;}</style></defs><g id="Layer_1"><rect class="cls-1" width="1000" height="1000"/></g><g id="Layer_2"><circle class="cls-8" cx="131.5" cy="418.5" r="9.29"/><path class="cls-3" d="m131.5,405.5c-7.17,0-13,5.83-13,13s5.83,13,13,13,13-5.83,13-13-5.83-13-13-13Zm0,22.29c-5.12,0-9.29-4.17-9.29-9.29s4.17-9.29,9.29-9.29,9.29,4.17,9.29,9.29-4.17,9.29-9.29,9.29Z"/><path class="cls-3" d="m127.61,420.36c1.03,0,1.86-.83,1.86-1.86s.83-1.86,1.86-1.86,1.86-.83,1.86-1.86-.83-1.86-1.86-1.86c-3.07,0-5.57,2.5-5.57,5.57,0,1.02.83,1.86,1.86,1.86Z"/><circle class="cls-8" cx="575.5" cy="871.5" r="9.29" transform="translate(-294.47 293.69) rotate(-22.97)"/><path class="cls-3" d="m575.5,858.5c-7.17,0-13,5.83-13,13s5.83,13,13,13,13-5.83,13-13-5.83-13-13-13Zm0,22.29c-5.12,0-9.29-4.17-9.29-9.29s4.17-9.29,9.29-9.29,9.29,4.17,9.29,9.29-4.17,9.29-9.29,9.29Z"/><path class="cls-3" d="m571.61,873.36c1.03,0,1.86-.83,1.86-1.86s.83-1.86,1.86-1.86,1.86-.83,1.86-1.86-.83-1.86-1.86-1.86c-3.07,0-5.57,2.5-5.57,5.57,0,1.02.83,1.86,1.86,1.86Z"/><circle class="cls-8" cx="217.5" cy="752.5" r="9.29"/><path class="cls-3" d="m217.5,739.5c-7.17,0-13,5.83-13,13s5.83,13,13,13,13-5.83,13-13-5.83-13-13-13Zm0,22.29c-5.12,0-9.29-4.17-9.29-9.29s4.17-9.29,9.29-9.29,9.29,4.17,9.29,9.29-4.17,9.29-9.29,9.29Z"/><path class="cls-3" d="m213.61,754.36c1.03,0,1.86-.83,1.86-1.86s.83-1.86,1.86-1.86,1.86-.83,1.86-1.86-.83-1.86-1.86-1.86c-3.07,0-5.57,2.5-5.57,5.57,0,1.02.83,1.86,1.86,1.86Z"/><path class="cls-8" d="m729.5,575.22c-7.32,0-13.28,5.96-13.28,13.28s5.96,13.28,13.28,13.28,13.28-5.96,13.28-13.28-5.96-13.28-13.28-13.28Z"/><path class="cls-3" d="m729.5,571.5c-9.37,0-17,7.63-17,17s7.63,17,17,17,17-7.63,17-17-7.63-17-17-17Zm0,30.28c-7.32,0-13.28-5.96-13.28-13.28s5.96-13.28,13.28-13.28,13.28,5.96,13.28,13.28-5.96,13.28-13.28,13.28Z"/><path class="cls-3" d="m729.59,578.88c-5.23,0-9.49,4.26-9.49,9.48,0,1.03.84,1.86,1.86,1.86s1.86-.84,1.86-1.86c0-3.17,2.58-5.75,5.76-5.75,1.03,0,1.86-.84,1.86-1.86s-.84-1.86-1.86-1.86Z"/><path class="cls-8" d="m747.5,209.27c-11.71,0-21.23,9.52-21.23,21.23s9.52,21.23,21.23,21.23,21.23-9.52,21.23-21.23-9.52-21.23-21.23-21.23Zm0,7.54c-7.55,0-13.69,6.14-13.69,13.69,0,1.04-.84,1.88-1.88,1.88s-1.88-.84-1.88-1.88c0-9.63,7.83-17.46,17.46-17.46,1.04,0,1.88.84,1.88,1.88s-.84,1.88-1.88,1.88Z"/><path class="cls-3" d="m747.5,205.5c-13.78,0-25,11.22-25,25s11.22,25,25,25,25-11.22,25-25-11.22-25-25-25Zm0,46.23c-11.71,0-21.23-9.52-21.23-21.23s9.52-21.23,21.23-21.23,21.23,9.52,21.23,21.23-9.52,21.23-21.23,21.23Z"/><path class="cls-3" d="m747.5,213.04c-9.63,0-17.46,7.83-17.46,17.46,0,1.04.84,1.88,1.88,1.88s1.88-.84,1.88-1.88c0-7.55,6.14-13.69,13.69-13.69,1.04,0,1.88-.84,1.88-1.88s-.84-1.88-1.88-1.88Z"/><circle class="cls-2" cx="870.5" cy="418.5" r="9.29" transform="translate(-94.16 370.18) rotate(-22.81)"/><path class="cls-3" d="m870.5,405.5c-7.17,0-13,5.83-13,13s5.83,13,13,13,13-5.83,13-13-5.83-13-13-13Zm0,22.29c-5.12,0-9.29-4.17-9.29-9.29s4.17-9.29,9.29-9.29,9.29,4.17,9.29,9.29-4.17,9.29-9.29,9.29Z"/><path class="cls-3" d="m866.61,420.36c1.03,0,1.86-.83,1.86-1.86s.83-1.86,1.86-1.86,1.86-.83,1.86-1.86-.83-1.86-1.86-1.86c-3.07,0-5.57,2.5-5.57,5.57,0,1.02.83,1.86,1.86,1.86Z"/><circle class="cls-2" cx="336.5" cy="160.5" r="9.29"/><path class="cls-3" d="m336.5,147.5c-7.17,0-13,5.83-13,13s5.83,13,13,13,13-5.83,13-13-5.83-13-13-13Zm0,22.29c-5.12,0-9.29-4.17-9.29-9.29s4.17-9.29,9.29-9.29,9.29,4.17,9.29,9.29-4.17,9.29-9.29,9.29Z"/><path class="cls-3" d="m332.61,162.36c1.03,0,1.86-.83,1.86-1.86s.83-1.86,1.86-1.86,1.86-.83,1.86-1.86-.83-1.86-1.86-1.86c-3.07,0-5.57,2.5-5.57,5.57,0,1.02.83,1.86,1.86,1.86Z"/><circle class="cls-2" cx="240.5" cy="584.5" r="9.29"/><path class="cls-3" d="m240.5,571.5c-7.17,0-13,5.83-13,13s5.83,13,13,13,13-5.83,13-13-5.83-13-13-13Zm0,22.29c-5.12,0-9.29-4.17-9.29-9.29s4.17-9.29,9.29-9.29,9.29,4.17,9.29,9.29-4.17,9.29-9.29,9.29Z"/><path class="cls-3" d="m236.61,586.36c1.03,0,1.86-.83,1.86-1.86s.83-1.86,1.86-1.86,1.86-.83,1.86-1.86-.83-1.86-1.86-1.86c-3.07,0-5.57,2.5-5.57,5.57,0,1.02.83,1.86,1.86,1.86Z"/><path class="cls-2" d="m653.5,292.22c-7.32,0-13.28,5.96-13.28,13.28s5.96,13.28,13.28,13.28,13.28-5.96,13.28-13.28-5.96-13.28-13.28-13.28Z"/><path class="cls-3" d="m653.5,288.5c-9.37,0-17,7.63-17,17s7.63,17,17,17,17-7.63,17-17-7.63-17-17-17Zm0,30.28c-7.32,0-13.28-5.96-13.28-13.28s5.96-13.28,13.28-13.28,13.28,5.96,13.28,13.28-5.96,13.28-13.28,13.28Z"/><path class="cls-3" d="m653.59,295.88c-5.23,0-9.49,4.26-9.49,9.48,0,1.03.84,1.86,1.86,1.86s1.86-.84,1.86-1.86c0-3.17,2.58-5.75,5.76-5.75,1.03,0,1.86-.84,1.86-1.86s-.84-1.86-1.86-1.86Z"/><path class="cls-2" d="m555.5,685.27c-11.71,0-21.23,9.52-21.23,21.23s9.52,21.23,21.23,21.23,21.23-9.52,21.23-21.23-9.52-21.23-21.23-21.23Zm0,7.54c-7.55,0-13.69,6.14-13.69,13.69,0,1.04-.84,1.88-1.88,1.88s-1.88-.84-1.88-1.88c0-9.63,7.83-17.46,17.46-17.46,1.04,0,1.88.84,1.88,1.88s-.84,1.88-1.88,1.88Z"/><path class="cls-3" d="m555.5,681.5c-13.78,0-25,11.22-25,25s11.22,25,25,25,25-11.22,25-25-11.22-25-25-25Zm0,46.23c-11.71,0-21.23-9.52-21.23-21.23s9.52-21.23,21.23-21.23,21.23,9.52,21.23,21.23-9.52,21.23-21.23,21.23Z"/><path class="cls-3" d="m555.5,689.04c-9.63,0-17.46,7.83-17.46,17.46,0,1.04.84,1.88,1.88,1.88s1.88-.84,1.88-1.88c0-7.55,6.14-13.69,13.69-13.69,1.04,0,1.88-.84,1.88-1.88s-.84-1.88-1.88-1.88Z"/><circle class="cls-4" cx="215.5" cy="252.5" r="9.29"/><path class="cls-3" d="m215.5,239.5c-7.17,0-13,5.83-13,13s5.83,13,13,13,13-5.83,13-13-5.83-13-13-13Zm0,22.29c-5.12,0-9.29-4.17-9.29-9.29s4.17-9.29,9.29-9.29,9.29,4.17,9.29,9.29-4.17,9.29-9.29,9.29Z"/><path class="cls-3" d="m211.61,254.36c1.03,0,1.86-.83,1.86-1.86s.83-1.86,1.86-1.86,1.86-.83,1.86-1.86-.83-1.86-1.86-1.86c-3.07,0-5.57,2.5-5.57,5.57,0,1.02.83,1.86,1.86,1.86Z"/><circle class="cls-4" cx="778.5" cy="758.5" r="9.29" transform="translate(-233.42 361.76) rotate(-22.85)"/><path class="cls-3" d="m778.5,745.5c-7.17,0-13,5.83-13,13s5.83,13,13,13,13-5.83,13-13-5.83-13-13-13Zm0,22.29c-5.12,0-9.29-4.17-9.29-9.29s4.17-9.29,9.29-9.29,9.29,4.17,9.29,9.29-4.17,9.29-9.29,9.29Z"/><path class="cls-3" d="m774.61,760.36c1.03,0,1.86-.83,1.86-1.86s.83-1.86,1.86-1.86,1.86-.83,1.86-1.86-.83-1.86-1.86-1.86c-3.07,0-5.57,2.5-5.57,5.57,0,1.02.83,1.86,1.86,1.86Z"/><circle class="cls-4" cx="422.5" cy="732.5" r="9.29"/><path class="cls-3" d="m422.5,719.5c-7.17,0-13,5.83-13,13s5.83,13,13,13,13-5.83,13-13-5.83-13-13-13Zm0,22.29c-5.12,0-9.29-4.17-9.29-9.29s4.17-9.29,9.29-9.29,9.29,4.17,9.29,9.29-4.17,9.29-9.29,9.29Z"/><path class="cls-3" d="m418.61,734.36c1.03,0,1.86-.83,1.86-1.86s.83-1.86,1.86-1.86,1.86-.83,1.86-1.86-.83-1.86-1.86-1.86c-3.07,0-5.57,2.5-5.57,5.57,0,1.02.83,1.86,1.86,1.86Z"/><path class="cls-4" d="m136.5,575.22c-7.32,0-13.28,5.96-13.28,13.28s5.96,13.28,13.28,13.28,13.28-5.96,13.28-13.28-5.96-13.28-13.28-13.28Z"/><path class="cls-3" d="m136.5,571.5c-9.37,0-17,7.63-17,17s7.63,17,17,17,17-7.63,17-17-7.63-17-17-17Zm0,30.28c-7.32,0-13.28-5.96-13.28-13.28s5.96-13.28,13.28-13.28,13.28,5.96,13.28,13.28-5.96,13.28-13.28,13.28Z"/><path class="cls-3" d="m136.59,578.88c-5.23,0-9.49,4.26-9.49,9.48,0,1.03.84,1.86,1.86,1.86s1.86-.84,1.86-1.86c0-3.17,2.58-5.75,5.76-5.75,1.03,0,1.86-.84,1.86-1.86s-.84-1.86-1.86-1.86Z"/><path class="cls-6" d="m371.5,839.22c-7.32,0-13.28,5.96-13.28,13.28s5.96,13.28,13.28,13.28,13.28-5.96,13.28-13.28-5.96-13.28-13.28-13.28Z"/><path class="cls-3" d="m371.5,835.5c-9.37,0-17,7.63-17,17s7.63,17,17,17,17-7.63,17-17-7.63-17-17-17Zm0,30.28c-7.32,0-13.28-5.96-13.28-13.28s5.96-13.28,13.28-13.28,13.28,5.96,13.28,13.28-5.96,13.28-13.28,13.28Z"/><path class="cls-3" d="m371.59,842.88c-5.23,0-9.49,4.26-9.49,9.48,0,1.03.84,1.86,1.86,1.86s1.86-.84,1.86-1.86c0-3.17,2.58-5.75,5.76-5.75,1.03,0,1.86-.84,1.86-1.86s-.84-1.86-1.86-1.86Z"/><path class="cls-4" d="m297,182.26c-27.98,0-50.74,22.76-50.74,50.74s22.76,50.74,50.74,50.74c8.73,0,17.34-2.26,24.91-6.55.59-.34,1.33-.32,1.91.04,7.02,4.31,16.17,5.77,21.48,6.26-5.15-6.86-6.99-14.78-7.64-19.28-.07-.49.05-.98.34-1.38,6.37-8.69,9.74-19.01,9.74-29.83,0-27.98-22.76-50.74-50.74-50.74Z"/><path class="cls-3" d="m297,178.5c-30.05,0-54.5,24.45-54.5,54.5s24.45,54.5,54.5,54.5c9.01,0,17.9-2.25,25.8-6.5,11.28,6.43,26.17,6.5,26.82,6.5,1.8,0,2.43-2.1,1.33-3.21-6.35-6.4-8.65-14.9-9.46-19.87,6.56-9.21,10.01-20.05,10.01-31.42,0-30.05-24.45-54.5-54.5-54.5Zm41,84.33c-.29.4-.42.89-.34,1.38.65,4.5,2.49,12.41,7.64,19.28-5.31-.49-14.46-1.95-21.48-6.26-.58-.35-1.31-.37-1.91-.04-7.57,4.29-16.18,6.55-24.91,6.55-27.98,0-50.74-22.76-50.74-50.74s22.76-50.74,50.74-50.74,50.74,22.76,50.74,50.74c0,10.83-3.37,21.14-9.74,29.83Z"/><path class="cls-2" d="m779.5,300.04c7.95,0,15.85,1.73,23.02,5.14l9.72-16.18c-10.29-5.14-21.51-7.7-32.74-7.7-11.23,0-22.46,2.57-32.74,7.7l9.72,16.18c7.17-3.41,15.07-5.14,23.02-5.14Z"/><path class="cls-4" d="m731.28,379.87l-17.44,6.96c12.21,24.92,37.76,40.91,65.66,40.91,27.9,0,53.45-16,65.66-40.91l-17.44-6.96c-9.5,17.99-27.82,29.09-48.22,29.09-20.4,0-38.72-11.1-48.22-29.09Z"/><path class="cls-7" d="m727.11,369.4c-1.37-4.9-2.07-9.9-2.07-14.9,0-17.17,8.11-33.32,21.77-43.55l-9.73-16.12c-19.33,13.73-30.82,35.88-30.82,59.67,0,7.48,1.12,14.84,3.34,21.92l17.51-7.03Z"/><circle class="cls-8" cx="779.5" cy="354.5" r="35.68" transform="translate(-76.78 345.81) rotate(-23.87)"/><path class="cls-6" d="m821.92,294.83l-9.73,16.12c13.66,10.23,21.77,26.38,21.77,43.55,0,4.99-.7,9.99-2.07,14.9l17.51,7.03c2.22-7.08,3.34-14.45,3.34-21.92,0-23.79-11.49-45.95-30.82-59.67Z"/><path class="cls-3" d="m733.86,376.66c-.43-.89-1.47-1.27-2.38-.92l-20.89,8.34c-1.07.45-1.43,1.61-1.01,2.53,12.45,27.24,39.89,44.89,69.92,44.89,30.03,0,57.47-17.65,69.92-44.89.42-.92.06-2.08-1.01-2.53l-20.89-8.34c-.91-.34-1.95.03-2.38.92-8.61,17.61-26.1,28.54-45.64,28.54-19.54,0-37.03-10.94-45.64-28.54Zm93.86,3.21l17.44,6.96c-12.21,24.92-37.76,40.91-65.66,40.91-27.9,0-53.45-16-65.66-40.91l17.44-6.96c9.5,17.99,27.82,29.09,48.22,29.09,20.4,0,38.72-11.1,48.22-29.09Z"/><path class="cls-3" d="m822.37,290.57c-.88-.59-2.08-.31-2.63.6l-11.65,19.31c-.51.85-.28,1.94.53,2.51,13.52,9.46,21.59,24.97,21.59,41.5,0,5.18-.81,10.37-2.39,15.44-.29.94.18,1.94,1.09,2.3l20.96,8.41c1,.4,2.11-.1,2.47-1.13,2.72-7.86,4.16-16.47,4.16-25.02,0-25.71-12.76-49.61-34.13-63.93Zm27.04,85.85l-17.51-7.03c1.37-4.9,2.07-9.9,2.07-14.9,0-17.17-8.11-33.32-21.77-43.55l9.73-16.12c19.33,13.73,30.82,35.88,30.82,59.67,0,7.48-1.12,14.84-3.34,21.92Z"/><path class="cls-3" d="m709.13,380.66l20.96-8.41c.91-.36,1.39-1.37,1.09-2.3-1.58-5.07-2.39-10.26-2.39-15.44,0-16.53,8.07-32.05,21.59-41.5.81-.57,1.04-1.67.53-2.51l-11.65-19.31c-.55-.91-1.75-1.19-2.63-.6-21.37,14.32-34.13,38.22-34.13,63.93,0,8.55,1.44,17.16,4.16,25.02.36,1.03,1.47,1.53,2.47,1.13Zm27.94-85.83l9.73,16.12c-13.66,10.23-21.77,26.38-21.77,43.55,0,4.99.7,9.99,2.07,14.9l-17.51,7.03c-2.22-7.08-3.34-14.45-3.34-21.92,0-23.79,11.49-45.95,30.82-59.67Z"/><path class="cls-3" d="m754.15,308.59c.51.84,1.6,1.15,2.46.7,7.08-3.65,14.98-5.47,22.88-5.47,7.9,0,15.8,1.82,22.88,5.47.87.45,1.96.14,2.46-.7l11.64-19.38c.59-1.02.14-2.16-.73-2.63-11.32-6.04-23.61-9.09-36.26-9.09s-24.94,3.05-36.27,9.09c-.87.46-1.32,1.61-.73,2.63l11.64,19.38Zm25.35-27.3c11.23,0,22.46,2.57,32.74,7.7l-9.72,16.18c-7.17-3.41-15.07-5.14-23.02-5.14s-15.85,1.73-23.02,5.14l-9.72-16.18c10.29-5.14,21.51-7.7,32.74-7.7Z"/><path class="cls-3" d="m779.5,315.06c-21.74,0-39.44,17.69-39.44,39.44s17.69,39.44,39.44,39.44,39.44-17.69,39.44-39.44-17.69-39.44-39.44-39.44Zm0,75.12c-19.68,0-35.68-16.01-35.68-35.68s16.01-35.68,35.68-35.68,35.68,16.01,35.68,35.68-16.01,35.68-35.68,35.68Z"/><rect class="cls-2" x="596.94" y="296.28" width="11.27" height="108.93"/><rect class="cls-4" x="506.79" y="341.35" width="11.27" height="63.85"/><rect class="cls-7" x="536.84" y="326.33" width="11.27" height="78.88"/><rect class="cls-6" x="566.89" y="311.3" width="11.27" height="93.9"/><path class="cls-3" d="m626.44,413.27c-.73-.73-1.92-.73-2.66,0-.73.74-.73,1.93,0,2.66l6.18,6.18-6.18,6.18c-.73.73-.73,1.92,0,2.66s1.92.73,2.66,0l7.51-7.51c.73-.73.73-1.92,0-2.66l-7.51-7.51Z"/><path class="cls-3" d="m496.07,288.22c.73.73,1.92.73,2.66,0,.73-.73.73-1.92,0-2.66l-7.51-7.51c-.73-.73-1.92-.73-2.66,0l-7.51,7.51c-.73.73-.73,1.92,0,2.66.74.73,1.93.73,2.66,0l6.18-6.18,6.18,6.18Z"/><path class="cls-3" d="m519.94,337.6h-15.02c-1.04,0-1.88.84-1.88,1.88v67.61c0,1.03.84,1.88,1.88,1.88h15.02c1.04,0,1.88-.84,1.88-1.88v-67.61c0-1.03-.84-1.88-1.88-1.88Zm-1.88,67.61h-11.27v-63.85h11.27v63.85Z"/><path class="cls-3" d="m549.99,408.96c1.04,0,1.88-.84,1.88-1.88v-82.63c0-1.03-.84-1.88-1.88-1.88h-15.02c-1.04,0-1.88.84-1.88,1.88v82.63c0,1.03.84,1.88,1.88,1.88h15.02Zm-13.15-82.63h11.27v78.88h-11.27v-78.88Z"/><path class="cls-3" d="m580.04,408.96c1.04,0,1.88-.84,1.88-1.88v-97.66c0-1.03-.84-1.88-1.88-1.88h-15.02c-1.04,0-1.88.84-1.88,1.88v97.66c0,1.03.84,1.88,1.88,1.88h15.02Zm-13.15-97.66h11.27v93.9h-11.27v-93.9Z"/><path class="cls-3" d="m610.09,408.96c1.04,0,1.88-.84,1.88-1.88v-112.68c0-1.03-.84-1.88-1.88-1.88h-15.02c-1.04,0-1.88.84-1.88,1.88v112.68c0,1.03.84,1.88,1.88,1.88h15.02Zm-13.15-112.68h11.27v108.93h-11.27v-108.93Z"/><path class="cls-3" d="m623.91,422.11c0-1.03-.84-1.88-1.88-1.88h-130.26v-130.26c0-1.03-.84-1.88-1.88-1.88s-1.88.84-1.88,1.88v132.14c0,1.03.84,1.88,1.88,1.88h132.14c1.04,0,1.88-.84,1.88-1.88Z"/><path class="cls-2" d="m723.11,710.48c-3.11,0-5.63,2.53-5.63,5.63s2.53,5.63,5.63,5.63,5.63-2.53,5.63-5.63-2.53-5.63-5.63-5.63Z"/><path class="cls-4" d="m587.89,575.26c-3.11,0-5.63,2.53-5.63,5.63s2.53,5.63,5.63,5.63,5.63-2.53,5.63-5.63-2.53-5.63-5.63-5.63Z"/><path class="cls-7" d="m681.48,700.61c-.93.46-1.31,1.59-.84,2.52.46.93,1.59,1.3,2.52.84,21.17-10.55,34.32-31.8,34.32-55.47,0-13.95-4.76-27.62-13.4-38.5-.32-.41-.8-.66-1.31-.7-.54-.02-1.03.13-1.41.47l-45.85,41.24-45.85-41.24c-.39-.34-.86-.49-1.41-.47-.52.04-.99.3-1.31.7-8.64,10.88-13.4,24.56-13.4,38.5,0,34.17,27.8,61.98,61.98,61.98,3.58,0,7.25-.33,11.21-1,1.02-.17,1.71-1.14,1.54-2.16-.18-1.02-1.14-1.75-2.17-1.53-3.75.64-7.21.95-10.58.95-32.1,0-58.22-26.12-58.22-58.22,0-12.43,4.02-24.63,11.37-34.58l45.59,41.01c.71.65,1.8.65,2.51,0l45.59-41.01c7.35,9.95,11.37,22.15,11.37,34.58,0,22.24-12.35,42.2-32.24,52.11Z"/><path class="cls-4" d="m655.5,586.52c-3.58,0-7.25.33-11.21,1-1.02.18-1.71,1.14-1.54,2.17.18,1.03,1.17,1.71,2.17,1.54,3.75-.64,7.21-.95,10.58-.95,14.64,0,28.52,5.41,39.3,15.29l-39.3,35.37-39.31-35.38c3.92-3.63,8.51-6.74,13.38-9.08.94-.45,1.33-1.57.88-2.51-.45-.94-1.57-1.31-2.51-.88-5.85,2.81-11.33,6.68-15.84,11.18-.36.36-.56.86-.55,1.38.01.52.24,1.01.62,1.35l42.07,37.86c.36.32.81.48,1.26.48s.9-.16,1.26-.48l42.07-37.86c.39-.35.61-.84.62-1.36.01-.52-.19-1.02-.56-1.38-11.68-11.44-27.09-17.74-43.38-17.74Z"/><path class="cls-3" d="m625.45,579.01h-28.36c-.87-4.28-4.66-7.51-9.2-7.51-5.18,0-9.39,4.21-9.39,9.39s4.21,9.39,9.39,9.39c4.54,0,8.33-3.23,9.2-7.51h27.58l21.99,21.99c.73.73,1.92.73,2.66,0,.73-.73.73-1.92,0-2.66l-22.54-22.54c-.35-.35-.83-.55-1.33-.55Zm-37.56,7.51c-3.11,0-5.63-2.53-5.63-5.63s2.53-5.63,5.63-5.63,5.63,2.53,5.63,5.63-2.53,5.63-5.63,5.63Z"/><path class="cls-3" d="m723.11,706.72c-4.54,0-8.33,3.23-9.2,7.51h-27.58l-21.99-21.99c-.73-.73-1.92-.73-2.66,0-.73.73-.73,1.92,0,2.66l22.54,22.54c.35.35.83.55,1.33.55h28.36c.87,4.28,4.66,7.51,9.2,7.51,5.18,0,9.39-4.21,9.39-9.39s-4.21-9.39-9.39-9.39Zm0,15.02c-3.11,0-5.63-2.53-5.63-5.63s2.53-5.63,5.63-5.63,5.63,2.53,5.63,5.63-2.53,5.63-5.63,5.63Z"/><path class="cls-4" d="m415.73,378.36l-21.21-21.21-28.72,28.72c-.73.73-1.92.73-2.66,0l-13.7-13.7-28.72,28.72c-.73.73-1.92.73-2.66,0l-11.82-11.82v38.66h146.49v-83.73l-34.36,34.35c-.73.73-1.92.73-2.66,0Z"/><path class="cls-2" d="m400.71,333.29l-21.21-21.21-36.23,36.23c-.73.73-1.92.73-2.66,0l-21.21-21.21-13.15,13.15v43.52l13.15,13.15,28.72-28.72c.73-.73,1.92-.73,2.66,0l13.7,13.7,28.72-28.72c.73-.73,1.92-.73,2.66,0l21.21,21.21,35.68-35.68v-54.79l-49.38,49.38c-.73.73-1.92.73-2.66,0Z"/><path class="cls-3" d="m453.29,278.05l-51.26,51.26-21.21-21.21c-.73-.73-1.92-.73-2.66,0l-36.23,36.23-21.21-21.21c-.73-.73-1.92-.73-2.66,0l-15.02,15.02c-.35.35-.55.83-.55,1.33v90.15c0,1.04.84,1.88,1.88,1.88h150.24c1.04,0,1.88-.84,1.88-1.88v-150.24c0-1.67-2.02-2.51-3.21-1.33Zm-.55,149.69h-146.49v-38.66l11.82,11.82c.73.73,1.92.73,2.66,0l28.72-28.72,13.7,13.7c.73.73,1.92.73,2.66,0l28.72-28.72,21.21,21.21c.73.73,1.92.73,2.66,0l34.36-34.35v83.73Zm0-89.05l-35.68,35.68-21.21-21.21c-.73-.73-1.92-.73-2.66,0l-28.72,28.72-13.7-13.7c-.73-.73-1.92-.73-2.66,0l-28.72,28.72-13.15-13.15v-43.52l13.15-13.15,21.21,21.21c.73.73,1.92.73,2.66,0l36.23-36.23,21.21,21.21c.73.73,1.92.73,2.66,0l49.38-49.38v54.79Z"/><rect class="cls-7" x="459.24" y="665.47" width="48.65" height="11.28"/><rect class="cls-2" x="459.24" y="620.36" width="108.52" height="11.28"/><rect class="cls-6" x="459.24" y="642.91" width="78.58" height="11.28"/><rect class="cls-6" x="459.24" y="597.81" width="71.1" height="11.28"/><rect class="cls-7" x="459.24" y="575.26" width="41.16" height="11.28"/><path class="cls-3" d="m457.37,590.29h44.9c1.03,0,1.87-.84,1.87-1.88v-15.03c0-1.04-.84-1.88-1.87-1.88h-44.9c-1.03,0-1.87.84-1.87,1.88v15.03c0,1.04.84,1.88,1.87,1.88Zm1.87-15.03h41.16v11.28h-41.16v-11.28Z"/><path class="cls-3" d="m457.37,612.84h74.84c1.03,0,1.87-.84,1.87-1.88v-15.03c0-1.04-.84-1.88-1.87-1.88h-74.84c-1.03,0-1.87.84-1.87,1.88v15.03c0,1.04.84,1.88,1.87,1.88Zm1.87-15.03h71.1v11.28h-71.1v-11.28Z"/><path class="cls-3" d="m457.37,657.95h82.32c1.03,0,1.87-.84,1.87-1.88v-15.03c0-1.04-.84-1.88-1.87-1.88h-82.32c-1.03,0-1.87.84-1.87,1.88v15.03c0,1.04.84,1.88,1.87,1.88Zm1.87-15.03h78.58v11.28h-78.58v-11.28Z"/><path class="cls-3" d="m457.37,680.5h52.39c1.03,0,1.87-.84,1.87-1.88v-15.03c0-1.04-.84-1.88-1.87-1.88h-52.39c-1.03,0-1.87.84-1.87,1.88v15.03c0,1.04.84,1.88,1.87,1.88Zm1.87-15.03h48.65v11.28h-48.65v-11.28Z"/><path class="cls-3" d="m457.37,635.4h112.26c1.03,0,1.87-.84,1.87-1.88v-15.03c0-1.04-.84-1.88-1.87-1.88h-112.26c-1.03,0-1.87.84-1.87,1.88v15.03c0,1.04.84,1.88,1.87,1.88Zm1.87-15.03h108.52v11.28h-108.52v-11.28Z"/><path class="cls-6" d="m659.83,369.4v58.33h11.33v-58.33c0-1.04.85-1.88,1.89-1.88h4.5l-12.06-24.02-12.06,24.02h4.5c1.04,0,1.89.84,1.89,1.88Z"/><path class="cls-3" d="m650.39,371.28h5.67v58.33c0,1.04.85,1.88,1.89,1.88h15.11c1.04,0,1.89-.84,1.89-1.88v-58.33h5.67c.66,0,1.26-.34,1.61-.89.34-.55.38-1.25.08-1.83l-15.11-30.11c-.63-1.27-2.74-1.27-3.38,0l-15.11,30.11c-.3.58-.26,1.28.08,1.83.35.56.95.89,1.61.89Zm15.11-27.78l12.06,24.02h-4.5c-1.04,0-1.89.84-1.89,1.88v58.33h-11.33v-58.33c0-1.04-.85-1.88-1.89-1.88h-4.5l12.06-24.02Z"/><rect class="cls-7" x="640.4" y="163.33" width="11.27" height="71.37"/><rect class="cls-6" x="610.35" y="148.3" width="11.27" height="86.39"/><rect class="cls-2" x="580.3" y="133.28" width="11.27" height="101.41"/><rect class="cls-4" x="670.45" y="178.35" width="11.27" height="56.34"/><path class="cls-8" d="m561.52,251.6V118.26h-11.27v146.49h146.49v-11.27h-133.34c-1.03,0-1.88-.84-1.88-1.88Z"/><path class="cls-3" d="m698.62,249.72h-133.34V116.38c0-1.04-.84-1.88-1.88-1.88h-15.02c-1.03,0-1.88.84-1.88,1.88v150.24c0,1.04.84,1.88,1.88,1.88h150.24c1.03,0,1.88-.84,1.88-1.88v-15.02c0-1.04-.84-1.88-1.88-1.88Zm-1.88,15.02h-146.49V118.26h11.27v133.34c0,1.04.84,1.88,1.88,1.88h133.34v11.27Z"/><path class="cls-3" d="m578.43,238.45h15.02c1.03,0,1.88-.84,1.88-1.88v-105.17c0-1.04-.84-1.88-1.88-1.88h-15.02c-1.03,0-1.88.84-1.88,1.88v105.17c0,1.04.84,1.88,1.88,1.88Zm1.88-105.17h11.27v101.41h-11.27v-101.41Z"/><path class="cls-3" d="m608.48,238.45h15.02c1.03,0,1.88-.84,1.88-1.88v-90.15c0-1.04-.84-1.88-1.88-1.88h-15.02c-1.03,0-1.88.84-1.88,1.88v90.15c0,1.04.84,1.88,1.88,1.88Zm1.88-90.15h11.27v86.39h-11.27v-86.39Z"/><path class="cls-3" d="m638.52,238.45h15.02c1.03,0,1.88-.84,1.88-1.88v-75.12c0-1.04-.84-1.88-1.88-1.88h-15.02c-1.03,0-1.88.84-1.88,1.88v75.12c0,1.04.84,1.88,1.88,1.88Zm1.88-75.12h11.27v71.37h-11.27v-71.37Z"/><path class="cls-3" d="m668.57,238.45h15.02c1.03,0,1.88-.84,1.88-1.88v-60.1c0-1.04-.84-1.88-1.88-1.88h-15.02c-1.03,0-1.88.84-1.88,1.88v60.1c0,1.04.84,1.88,1.88,1.88Zm1.88-60.1h11.27v56.34h-11.27v-56.34Z"/><rect class="cls-7" x="760.26" y="685.4" width="71.41" height="11.28"/><rect class="cls-6" x="760.26" y="655.33" width="86.45" height="11.28"/><rect class="cls-2" x="760.26" y="625.26" width="101.48" height="11.28"/><rect class="cls-4" x="760.26" y="715.47" width="56.38" height="11.28"/><path class="cls-3" d="m756.5,623.38v15.03c0,1.04.84,1.88,1.88,1.88h105.24c1.04,0,1.88-.84,1.88-1.88v-15.03c0-1.04-.84-1.88-1.88-1.88h-105.24c-1.04,0-1.88.84-1.88,1.88Zm105.24,1.88v11.28h-101.48v-11.28h101.48Z"/><path class="cls-3" d="m756.5,653.45v15.03c0,1.03.84,1.88,1.88,1.88h90.21c1.04,0,1.88-.84,1.88-1.88v-15.03c0-1.04-.84-1.88-1.88-1.88h-90.21c-1.04,0-1.88.84-1.88,1.88Zm90.21,1.88v11.28h-86.45v-11.28h86.45Z"/><path class="cls-3" d="m756.5,683.52v15.03c0,1.04.84,1.88,1.88,1.88h75.17c1.04,0,1.88-.84,1.88-1.88v-15.03c0-1.04-.84-1.88-1.88-1.88h-75.17c-1.04,0-1.88.84-1.88,1.88Zm75.17,1.88v11.28h-71.41v-11.28h71.41Z"/><path class="cls-3" d="m756.5,713.59v15.03c0,1.04.84,1.88,1.88,1.88h60.14c1.04,0,1.88-.84,1.88-1.88v-15.03c0-1.04-.84-1.88-1.88-1.88h-60.14c-1.04,0-1.88.84-1.88,1.88Zm60.14,1.88v11.28h-56.38v-11.28h56.38Z"/><ellipse class="cls-8" cx="485.43" cy="814.5" rx="28.17" ry="28.14" transform="translate(-329.56 1299.11) rotate(-89.94)"/><path class="cls-2" d="m462.74,744.88l10.07,24.38c4.13-1.13,8.4-1.7,12.65-1.7s8.51.57,12.65,1.7l10.07-24.38c-7.36-2.43-15.04-3.64-22.72-3.64-7.68,0-15.36,1.21-22.72,3.64Z"/><path class="cls-7" d="m415.89,791.77c-4.84,14.74-4.84,30.74,0,45.47l24.35-10.08c-1.14-4.15-1.71-8.41-1.71-12.67s.57-8.5,1.71-12.65l-24.35-10.07Z"/><path class="cls-4" d="m427.17,784.25l17.41,7.2c4.21-7.51,10.33-13.64,17.85-17.85l-7.21-17.44c-12,6.21-21.86,16.07-28.06,28.08Z"/><path class="cls-7" d="m518.55,749.24l-10.08,24.42c14.76,8.36,23.87,23.83,23.87,40.84,0,4.26-.61,8.51-1.75,12.66l24.44,10.09c11.31-34.5-4.12-71.7-36.48-88.01Z"/><path class="cls-6" d="m485.49,861.44c-16.99.02-32.51-9.13-40.85-23.91l-24.38,10.09c12.37,24.43,37.78,40.12,65.17,40.12s52.85-15.69,65.23-40.12l-24.38-10.09c-8.34,14.78-23.81,23.89-40.8,23.91Z"/><path class="cls-3" d="m444.25,827.53c-1.31-4.25-1.97-8.64-1.97-13.03s.64-8.68,1.93-12.9c.38-1.09.15-2.15-1.11-2.63l-27.61-11.44c-.82-.35-2.08-.05-2.48,1.1-5.99,16.79-6.01,34.93,0,51.75.3.85,1.31,1.55,2.48,1.1l27.76-11.49c.73-.29,1.45-1.23,1-2.46Zm-4.02-.37l-24.35,10.08c-4.84-14.74-4.84-30.74,0-45.47l24.35,10.07c-1.14,4.15-1.71,8.4-1.71,12.65s.57,8.52,1.71,12.67Z"/><path class="cls-3" d="m455.38,751.9c-14.12,6.75-25.72,18.34-32.5,32.54-.46.96,0,2.11.98,2.51l20.84,8.62c1.09.42,2.04-.09,2.54-1.17,4.07-7.81,10.34-14.07,18.14-18.14,1.21-.6,1.51-1.51,1.17-2.51l-8.63-20.88c-.35-.87-1.45-1.5-2.54-.98Zm-10.8,39.55l-17.41-7.2c6.2-12.01,16.06-21.87,28.06-28.08l7.21,17.44c-7.52,4.21-13.64,10.34-17.85,17.85Z"/><path class="cls-3" d="m511.31,741.98c-8.34-2.98-17.1-4.48-25.85-4.48-8.75,0-17.51,1.5-25.85,4.48-.96.34-1.53,1.42-1.1,2.49l11.4,27.6c.19.63.98,1.71,2.59,1.19,4.23-1.29,8.59-1.93,12.95-1.93,4.36,0,8.72.64,12.95,1.93,1.62.52,2.4-.56,2.59-1.19l11.4-27.6c.43-1.07-.14-2.14-1.1-2.49Zm-13.21,27.27c-4.13-1.13-8.4-1.7-12.65-1.7s-8.51.57-12.65,1.7l-10.07-24.38c7.36-2.43,15.04-3.64,22.72-3.64,7.68,0,15.36,1.21,22.72,3.64l-10.07,24.38Z"/><path class="cls-3" d="m518.37,744.98c-.75-.36-2.07-.17-2.54.98l-11.48,27.79c-.38.98.16,2.02.84,2.37,15.47,7.97,28.43,27.34,21.36,51.56-.29.98.3,1.94,1.1,2.3l27.77,11.49c.86.34,2.07.05,2.48-1.11,13.44-37.37-3.59-78.4-39.55-95.4Zm36.65,92.27l-24.44-10.09c1.14-4.15,1.75-8.4,1.75-12.66,0-17.01-9.11-32.48-23.87-40.84l10.08-24.42c32.36,16.31,47.79,53.51,36.48,88.01Z"/><path class="cls-3" d="m553.94,844.92l-28.06-11.58c-.86-.26-1.72.18-2.12.95-7.47,14.43-22.15,23.39-38.31,23.4-16.16-.01-30.84-8.97-38.31-23.4-.4-.78-1.26-1.22-2.12-.95l-28.06,11.58c-1,.42-1.44,1.57-.97,2.55,12.71,26.74,40.03,44.03,69.46,44.03s56.75-17.3,69.46-44.03c.46-.97.03-2.13-.97-2.55Zm-68.51,42.82c-27.39,0-52.8-15.69-65.17-40.12l24.38-10.09c8.34,14.78,23.86,23.93,40.85,23.91,16.99-.02,32.46-9.13,40.8-23.91l24.38,10.09c-12.37,24.43-37.84,40.12-65.23,40.12Z"/><path class="cls-3" d="m453.54,814.5c0,17.6,14.31,31.92,31.9,31.92s31.9-14.32,31.9-31.92-14.31-31.92-31.9-31.92-31.9,14.32-31.9,31.92Zm60.04,0c0,15.53-12.63,28.17-28.14,28.17s-28.14-12.64-28.14-28.17,12.63-28.17,28.14-28.17,28.14,12.64,28.14,28.17Z"/><path class="cls-3" d="m252.03,773.5l6.18-6.18c.73-.73.73-1.92,0-2.66-.73-.73-1.92-.73-2.66,0l-7.51,7.51c-.73.73-.73,1.92,0,2.66l7.51,7.51c.73.73,1.92.73,2.66,0,.73-.73.73-1.92,0-2.66l-6.18-6.18Z"/><path class="cls-3" d="m393.44,764.66c-.73-.73-1.92-.73-2.66,0-.73.74-.73,1.93,0,2.66l6.18,6.18-6.18,6.18c-.73.73-.73,1.92,0,2.66.73.73,1.92.73,2.66,0l7.51-7.51c.73-.73.73-1.92,0-2.66l-7.51-7.51Z"/><path class="cls-3" d="m330.68,839.78l-6.18,6.18-6.18-6.18c-.73-.73-1.92-.73-2.66,0-.73.73-.73,1.92,0,2.66l7.51,7.51c.73.73,1.92.73,2.66,0l7.51-7.51c.73-.73.73-1.92,0-2.66-.73-.73-1.92-.73-2.66,0Z"/><path class="cls-3" d="m323.17,697.05l-7.51,7.51c-.73.73-.73,1.92,0,2.66.74.73,1.93.73,2.66,0l6.18-6.18,6.18,6.18c.73.73,1.92.73,2.66,0,.73-.73.73-1.92,0-2.66l-7.51-7.51c-.73-.73-1.92-.73-2.66,0Z"/><path class="cls-3" d="m390.91,773.5c0-1.03-.84-1.88-1.88-1.88h-62.65v-35.68c0-1.03-.84-1.88-1.88-1.88s-1.88.84-1.88,1.88v35.68h-62.65c-1.04,0-1.88.84-1.88,1.88s.84,1.88,1.88,1.88h62.65v62.65c0,1.03.84,1.88,1.88,1.88s1.88-.84,1.88-1.88v-62.65h62.65c1.03,0,1.88-.84,1.88-1.88Z"/><path class="cls-3" d="m322.62,708.97v11.94c0,1.03.84,1.88,1.88,1.88s1.88-.84,1.88-1.88v-11.94c0-1.03-.84-1.88-1.88-1.88s-1.88.84-1.88,1.88Z"/><path class="cls-4" d="m309.48,779.13c-1.04,0-1.88.84-1.88,1.88v30.05c0,7.25-5.9,13.15-13.15,13.15s-13.15-5.9-13.15-13.15v-30.05c0-1.03-.84-1.88-1.88-1.88s-1.88.84-1.88,1.88v30.05c0,9.32,7.58,16.9,16.9,16.9s16.9-7.59,16.9-16.9v-30.05c0-1.03-.84-1.88-1.88-1.88Z"/><path class="cls-4" d="m341.4,750.96v-7.51c0-9.32-7.59-16.9-16.9-16.9s-16.9,7.59-16.9,16.9v22.54c0,1.03.84,1.88,1.88,1.88s1.88-.84,1.88-1.88v-22.54c0-7.25,5.9-13.15,13.15-13.15s13.15,5.9,13.15,13.15v7.51c0,9.32,7.59,16.9,16.9,16.9s16.9-7.59,16.9-16.9v-37.56c0-1.03-.84-1.88-1.88-1.88s-1.88.84-1.88,1.88v37.56c0,7.25-5.9,13.15-13.15,13.15s-13.15-5.9-13.15-13.15Z"/><path class="cls-4" d="m431.48,149.82c-3.1,0-5.63,2.53-5.63,5.63s2.53,5.63,5.63,5.63,5.63-2.53,5.63-5.63-2.53-5.63-5.63-5.63Z"/><path class="cls-7" d="m484.06,142.3c-3.1,0-5.63,2.53-5.63,5.63s2.53,5.63,5.63,5.63,5.63-2.53,5.63-5.63-2.53-5.63-5.63-5.63Z"/><path class="cls-2" d="m461.52,119.77c-3.1,0-5.63,2.53-5.63,5.63s2.53,5.63,5.63,5.63,5.63-2.53,5.63-5.63-2.53-5.63-5.63-5.63Z"/><path class="cls-2" d="m514.11,112.26c-3.1,0-5.63,2.53-5.63,5.63s2.53,5.63,5.63,5.63,5.63-2.53,5.63-5.63-2.53-5.63-5.63-5.63Z"/><path class="cls-7" d="m408.94,127.28c-3.1,0-5.63,2.53-5.63,5.63s2.53,5.63,5.63,5.63,5.63-2.53,5.63-5.63-2.53-5.63-5.63-5.63Z"/><path class="cls-4" d="m378.89,157.33c-3.1,0-5.63,2.53-5.63,5.63s2.53,5.63,5.63,5.63,5.63-2.53,5.63-5.63-2.53-5.63-5.63-5.63Z"/><rect class="cls-6" x="373.26" y="247.48" width="146.49" height="11.27"/><path class="cls-3" d="m521.62,243.72h-150.24c-1.03,0-1.88.84-1.88,1.88v15.02c0,1.03.84,1.88,1.88,1.88h150.24c1.03,0,1.88-.84,1.88-1.88v-15.02c0-1.03-.84-1.88-1.88-1.88Zm-1.88,15.02h-146.49v-11.27h146.49v11.27Z"/><path class="cls-3" d="m514.11,108.5c-5.18,0-9.39,4.21-9.39,9.39,0,1.91.58,3.69,1.56,5.17l-17.05,17.05c-1.48-.98-3.26-1.56-5.17-1.56s-3.69.58-5.17,1.56l-9.53-9.53c.98-1.48,1.56-3.26,1.56-5.17,0-5.18-4.21-9.39-9.39-9.39s-9.39,4.21-9.39,9.39c0,1.91.58,3.69,1.56,5.17l-17.05,17.05c-1.48-.98-3.26-1.56-5.17-1.56s-3.69.58-5.17,1.56l-9.53-9.53c.98-1.48,1.56-3.26,1.56-5.17,0-5.18-4.21-9.39-9.39-9.39s-9.39,4.21-9.39,9.39c0,1.91.58,3.69,1.56,5.17l-17.05,17.05c-1.48-.98-3.26-1.56-5.17-1.56-5.18,0-9.39,4.21-9.39,9.39s4.21,9.39,9.39,9.39,9.39-4.21,9.39-9.39c0-1.91-.58-3.69-1.56-5.17l17.05-17.05c1.48.98,3.26,1.56,5.17,1.56s3.69-.58,5.17-1.56l9.53,9.53c-.98,1.48-1.56,3.26-1.56,5.17,0,5.18,4.21,9.39,9.39,9.39s9.39-4.21,9.39-9.39c0-1.91-.58-3.69-1.56-5.17l17.05-17.05c1.48.98,3.26,1.56,5.17,1.56s3.69-.58,5.17-1.56l9.53,9.53c-.98,1.48-1.56,3.26-1.56,5.17,0,5.18,4.21,9.39,9.39,9.39s9.39-4.21,9.39-9.39c0-1.91-.58-3.69-1.56-5.17l17.05-17.05c1.48.98,3.26,1.56,5.17,1.56,5.18,0,9.39-4.21,9.39-9.39s-4.21-9.39-9.39-9.39Zm-135.22,60.1c-3.1,0-5.63-2.53-5.63-5.63s2.53-5.63,5.63-5.63,5.63,2.53,5.63,5.63-2.53,5.63-5.63,5.63Zm30.05-30.05c-3.1,0-5.63-2.53-5.63-5.63s2.53-5.63,5.63-5.63,5.63,2.53,5.63,5.63-2.53,5.63-5.63,5.63Zm22.54,22.54c-3.1,0-5.63-2.53-5.63-5.63s2.53-5.63,5.63-5.63,5.63,2.53,5.63,5.63-2.53,5.63-5.63,5.63Zm30.05-30.05c-3.1,0-5.63-2.53-5.63-5.63s2.53-5.63,5.63-5.63,5.63,2.53,5.63,5.63-2.53,5.63-5.63,5.63Zm22.54,22.54c-3.1,0-5.63-2.53-5.63-5.63s2.53-5.63,5.63-5.63,5.63,2.53,5.63,5.63-2.53,5.63-5.63,5.63Zm30.05-30.05c-3.1,0-5.63-2.53-5.63-5.63s2.53-5.63,5.63-5.63,5.63,2.53,5.63,5.63-2.53,5.63-5.63,5.63Z"/><path class="cls-4" d="m371.38,239.96c1.03,0,1.88-.84,1.88-1.88v-62.12c0-1.03-.84-1.88-1.88-1.88s-1.88.84-1.88,1.88v62.12c0,1.03.84,1.88,1.88,1.88Z"/><path class="cls-4" d="m388.28,238.09v-62.12c0-1.03-.84-1.88-1.88-1.88s-1.88.84-1.88,1.88v62.12c0,1.03.84,1.88,1.88,1.88s1.88-.84,1.88-1.88Z"/><path class="cls-7" d="m403.3,238.09v-86.99c0-1.03-.84-1.88-1.88-1.88s-1.88.84-1.88,1.88v86.99c0,1.03.84,1.88,1.88,1.88s1.88-.84,1.88-1.88Z"/><path class="cls-7" d="m418.33,238.09v-86.99c0-1.03-.84-1.88-1.88-1.88s-1.88.84-1.88,1.88v86.99c0,1.03.84,1.88,1.88,1.88s1.88-.84,1.88-1.88Z"/><path class="cls-4" d="m433.35,238.09v-67.61c0-1.03-.84-1.88-1.88-1.88s-1.88.84-1.88,1.88v67.61c0,1.03.84,1.88,1.88,1.88s1.88-.84,1.88-1.88Z"/><path class="cls-6" d="m448.38,238.09v-86.99c0-1.03-.84-1.88-1.88-1.88s-1.88.84-1.88,1.88v86.99c0,1.03.84,1.88,1.88,1.88s1.88-.84,1.88-1.88Z"/><path class="cls-6" d="m463.4,238.09v-97.66c0-1.03-.84-1.88-1.88-1.88s-1.88.84-1.88,1.88v97.66c0,1.03.84,1.88,1.88,1.88s1.88-.84,1.88-1.88Z"/><path class="cls-7" d="m478.43,238.09v-77.15c0-1.03-.84-1.88-1.88-1.88s-1.88.84-1.88,1.88v77.15c0,1.03.84,1.88,1.88,1.88s1.88-.84,1.88-1.88Z"/><path class="cls-7" d="m493.45,238.09v-77.15c0-1.03-.84-1.88-1.88-1.88s-1.88.84-1.88,1.88v77.15c0,1.03.84,1.88,1.88,1.88s1.88-.84,1.88-1.88Z"/><path class="cls-2" d="m508.48,238.09v-102.02c0-1.03-.84-1.88-1.88-1.88s-1.88.84-1.88,1.88v102.02c0,1.03.84,1.88,1.88,1.88s1.88-.84,1.88-1.88Z"/><path class="cls-2" d="m521.62,129.01c-1.03,0-1.88.84-1.88,1.88v107.2c0,1.03.84,1.88,1.88,1.88s1.88-.84,1.88-1.88v-107.2c0-1.03-.84-1.88-1.88-1.88Z"/><polygon class="cls-6" points="417.46 689.09 426.08 680.47 417.46 680.47 417.46 689.09"/><rect class="cls-7" x="379.86" y="605.32" width="11.28" height="26.3"/><rect class="cls-2" x="402.42" y="590.29" width="11.28" height="41.33"/><path class="cls-8" d="m342.26,691.74h71.44v-13.15c0-1.03.84-1.88,1.88-1.88h13.16v-101.45h-86.48v116.48Zm56.4-103.33c0-1.03.84-1.88,1.88-1.88h15.04c1.04,0,1.88.84,1.88,1.88v45.09c0,1.03-.84,1.88-1.88,1.88h-15.04c-1.04,0-1.88-.84-1.88-1.88v-45.09Zm-22.56,15.03c0-1.03.84-1.88,1.88-1.88h15.04c1.04,0,1.88.84,1.88,1.88v30.06c0,1.03-.84,1.88-1.88,1.88h-15.04c-1.04,0-1.88-.84-1.88-1.88v-30.06Zm-22.56,15.03c0-1.03.84-1.88,1.88-1.88h15.04c1.04,0,1.88.84,1.88,1.88v15.03c0,1.03-.84,1.88-1.88,1.88h-15.04c-1.04,0-1.88-.84-1.88-1.88v-15.03Zm1.88,28.18h60.16c1.04,0,1.88.84,1.88,1.88s-.84,1.88-1.88,1.88h-60.16c-1.04,0-1.88-.84-1.88-1.88s.84-1.88,1.88-1.88Zm0,15.03h60.16c1.04,0,1.88.84,1.88,1.88s-.84,1.88-1.88,1.88h-60.16c-1.04,0-1.88-.84-1.88-1.88s.84-1.88,1.88-1.88Z"/><rect class="cls-4" x="357.3" y="620.35" width="11.28" height="11.27"/><path class="cls-3" d="m430.62,571.5h-90.24c-1.04,0-1.88.84-1.88,1.88v120.24c0,1.03.84,1.88,1.88,1.88h75.2c.5,0,.98-.2,1.33-.55l15.04-15.03c.35-.35.55-.83.55-1.33v-105.21c0-1.03-.84-1.88-1.88-1.88Zm-13.16,117.59v-8.62h8.62l-8.62,8.62Zm11.28-12.37h-13.16c-1.04,0-1.88.84-1.88,1.88v13.15h-71.44v-116.48h86.48v101.45Z"/><path class="cls-3" d="m355.42,635.38h15.04c1.04,0,1.88-.84,1.88-1.88v-15.03c0-1.03-.84-1.88-1.88-1.88h-15.04c-1.04,0-1.88.84-1.88,1.88v15.03c0,1.03.84,1.88,1.88,1.88Zm1.88-15.03h11.28v11.27h-11.28v-11.27Z"/><path class="cls-3" d="m377.98,635.38h15.04c1.04,0,1.88-.84,1.88-1.88v-30.06c0-1.03-.84-1.88-1.88-1.88h-15.04c-1.04,0-1.88.84-1.88,1.88v30.06c0,1.03.84,1.88,1.88,1.88Zm1.88-30.06h11.28v26.3h-11.28v-26.3Z"/><path class="cls-3" d="m400.54,635.38h15.04c1.04,0,1.88-.84,1.88-1.88v-45.09c0-1.03-.84-1.88-1.88-1.88h-15.04c-1.04,0-1.88.84-1.88,1.88v45.09c0,1.03.84,1.88,1.88,1.88Zm1.88-45.09h11.28v41.33h-11.28v-41.33Z"/><path class="cls-3" d="m355.42,650.41h60.16c1.04,0,1.88-.84,1.88-1.88s-.84-1.88-1.88-1.88h-60.16c-1.04,0-1.88.84-1.88,1.88s.84,1.88,1.88,1.88Z"/><path class="cls-3" d="m355.42,665.44h60.16c1.04,0,1.88-.84,1.88-1.88s-.84-1.88-1.88-1.88h-60.16c-1.04,0-1.88.84-1.88,1.88s.84,1.88,1.88,1.88Z"/><rect class="cls-2" x="720.45" y="735.77" width="11.27" height="56.34"/><rect class="cls-6" x="660.35" y="810.89" width="11.27" height="26.29"/><rect class="cls-4" x="637.82" y="810.89" width="11.27" height="41.32"/><rect class="cls-4" x="615.28" y="810.89" width="11.27" height="56.34"/><rect class="cls-6" x="675.38" y="765.82" width="11.27" height="26.29"/><rect class="cls-2" x="697.91" y="750.79" width="11.27" height="41.32"/><path class="cls-3" d="m628.43,870.99c1.04,0,1.88-.84,1.88-1.88v-60.1c0-1.04-.84-1.88-1.88-1.88h-15.02c-1.04,0-1.88.84-1.88,1.88v60.1c0,1.04.84,1.88,1.88,1.88h15.02Zm-13.15-60.1h11.27v56.34h-11.27v-56.34Z"/><path class="cls-3" d="m718.57,795.87h15.02c1.04,0,1.88-.84,1.88-1.88v-60.1c0-1.04-.84-1.88-1.88-1.88h-15.02c-1.04,0-1.88.84-1.88,1.88v60.1c0,1.04.84,1.88,1.88,1.88Zm1.88-60.1h11.27v56.34h-11.27v-56.34Z"/><path class="cls-3" d="m650.96,855.96c1.04,0,1.88-.84,1.88-1.88v-45.07c0-1.04-.84-1.88-1.88-1.88h-15.02c-1.04,0-1.88.84-1.88,1.88v45.07c0,1.04.84,1.88,1.88,1.88h15.02Zm-13.15-45.07h11.27v41.32h-11.27v-41.32Z"/><path class="cls-3" d="m696.04,795.87h15.02c1.04,0,1.88-.84,1.88-1.88v-45.07c0-1.04-.84-1.88-1.88-1.88h-15.02c-1.04,0-1.88.84-1.88,1.88v45.07c0,1.04.84,1.88,1.88,1.88Zm1.88-45.07h11.27v41.32h-11.27v-41.32Z"/><path class="cls-3" d="m673.5,840.94c1.04,0,1.88-.84,1.88-1.88v-30.05c0-1.04-.84-1.88-1.88-1.88h-15.02c-1.04,0-1.88.84-1.88,1.88v30.05c0,1.04.84,1.88,1.88,1.88h15.02Zm-13.15-30.05h11.27v26.29h-11.27v-26.29Z"/><path class="cls-3" d="m673.5,795.87h15.02c1.04,0,1.88-.84,1.88-1.88v-30.05c0-1.04-.84-1.88-1.88-1.88h-15.02c-1.04,0-1.88.84-1.88,1.88v30.05c0,1.04.84,1.88,1.88,1.88Zm1.88-30.05h11.27v26.29h-11.27v-26.29Z"/><path class="cls-3" d="m744.64,794.86c-.73-.73-1.92-.73-2.66,0-.73.73-.73,1.92,0,2.66l2.11,2.11h-136.32v-68.71l2.1,2.1c.73.73,1.94.73,2.66,0,.86-.87.61-2.06,0-2.66l-5.31-5.31c-.73-.73-1.92-.73-2.66,0l-5.31,5.31c-.73.73-.73,1.92,0,2.66.73.73,1.92.73,2.66,0l2.11-2.11v68.71h-5.63c-1.04,0-1.88.84-1.88,1.88s.84,1.88,1.88,1.88h5.63v73.24c0,1.04.84,1.88,1.88,1.88s1.88-.84,1.88-1.88v-73.24h136.32l-2.11,2.11c-.73.73-.73,1.94,0,2.66.87.86,2.06.61,2.66,0l5.31-5.31c.73-.73.73-1.92,0-2.66l-5.31-5.31Z"/><polygon class="cls-6" points="267.93 713.74 286.72 713.74 286.72 610.61 267.93 629.39 267.93 713.74"/><polygon class="cls-6" points="207.83 617.97 207.83 713.74 226.61 713.74 226.61 625.46 212.98 614.56 207.83 617.97"/><polygon class="cls-7" points="177.77 713.74 196.56 713.74 196.56 625.5 177.77 637.96 177.77 713.74"/><path class="cls-7" d="m250.38,644.51l-12.5-10.03v79.27h18.78v-73.12l-3.79,3.75c-.69.67-1.75.72-2.49.13Z"/><path class="cls-4" d="m212.42,601.36l-45.08,30.05c-.87.57-1.1,1.74-.52,2.6.69,1.02,1.91.99,2.6.52l43.94-29.29,36.5,29.2c.76.59,1.82.54,2.5-.14l44.41-44.41-2.34,4.68c-.46.92-.04,2.14.84,2.52,1.3.55,2.19-.18,2.52-.84l7.51-15.03c.36-.72.22-1.59-.35-2.16-.58-.57-1.46-.71-2.16-.35l-15.03,7.51c-.93.46-1.31,1.59-.84,2.52.47.93,1.62,1.31,2.52.84l4.68-2.34-43.22,43.23-36.25-29.01c-.64-.51-1.53-.55-2.22-.1Z"/><path class="cls-3" d="m287.26,604.75l-22.53,22.53c-.35.35-.55.83-.55,1.33v87.01c0,1.03.85,1.88,1.88,1.88h22.54c1.03,0,1.88-.85,1.88-1.88v-109.54c0-1.68-2.03-2.52-3.21-1.33Zm-.54,108.99h-18.78v-84.35l18.78-18.78v103.14Z"/><path class="cls-3" d="m257.22,634.79l-5.8,5.74-14.25-11.43c-1.19-.95-3.05-.14-3.05,1.47v85.06c0,1.03.84,1.88,1.88,1.88h22.54c1.03,0,1.88-.84,1.88-1.88v-79.49c0-1.7-2.11-2.48-3.2-1.34Zm-.56,78.95h-18.78v-79.27l12.5,10.03c.74.59,1.81.54,2.49-.13l3.79-3.75v73.12Z"/><path class="cls-3" d="m197.39,620.44l-22.54,14.95c-.52.34-.84.93-.84,1.56v78.66c0,1.03.84,1.88,1.88,1.88h22.54c1.03,0,1.88-.84,1.88-1.88v-93.62c0-1.65-1.82-2.33-2.92-1.56Zm-.84,93.3h-18.78v-75.78l18.78-12.46v88.24Z"/><path class="cls-3" d="m212.05,610.67l-7.14,4.73c-.53.34-.84.93-.84,1.56v98.65c0,1.03.84,1.88,1.88,1.88h22.54c1.03,0,1.88-.84,1.88-1.88v-91.07c0-.57-.26-1.11-.7-1.47l-15.4-12.32c-.64-.51-1.52-.55-2.21-.1Zm14.56,103.07h-18.78v-95.77l5.16-3.41,13.63,10.9v88.28Z"/><path class="cls-8" d="m211.5,333.84c-3.16,0-6.1-.89-8.63-2.4l-15.71,19.08c6.65,6.21,15.23,9.61,24.35,9.61s17.7-3.4,24.35-9.61l-15.71-19.08c-2.53,1.51-5.48,2.4-8.63,2.4Z"/><path class="cls-6" d="m202.11,378.07v40.28c0,6.45,4.87,9.39,9.39,9.39s9.39-2.94,9.39-9.39v-40.28c-3.17.54-6.32.84-9.39.84s-6.22-.3-9.39-.84Z"/><circle class="cls-4" cx="211.5" cy="316.94" r="13.15" transform="translate(-163.96 381.87) rotate(-66.09)"/><path class="cls-6" d="m173.94,386.43c-3.11,0-5.63,2.53-5.63,5.63s2.53,5.63,5.63,5.63,5.63-2.53,5.63-5.63-2.53-5.63-5.63-5.63Z"/><path class="cls-4" d="m143.89,356.38c-3.11,0-5.63,2.53-5.63,5.63s2.53,5.63,5.63,5.63,5.63-2.53,5.63-5.63-2.53-5.63-5.63-5.63Z"/><path class="cls-4" d="m202.11,370.46v3.8c6.33,1.16,12.45,1.17,18.78,0v-3.81c-3.04.62-6.18.94-9.39.94s-6.36-.33-9.39-.94Z"/><path class="cls-8" d="m211.5,288.77c-19.68,0-35.68,16.01-35.68,35.68,0,8.67,3.11,16.86,8.74,23.33l15.32-18.61c-3.24-3.08-5.28-7.42-5.28-12.24,0-9.32,7.58-16.9,16.9-16.9s16.9,7.58,16.9,16.9c0,4.82-2.03,9.16-5.28,12.24l15.32,18.61c5.63-6.47,8.74-14.66,8.74-23.33,0-19.68-16.01-35.68-35.68-35.68Z"/><path class="cls-4" d="m279.11,356.38c-3.11,0-5.63,2.53-5.63,5.63s2.53,5.63,5.63,5.63,5.63-2.53,5.63-5.63-2.53-5.63-5.63-5.63Z"/><path class="cls-6" d="m254.7,324.45c0-23.82-19.38-43.2-43.2-43.2s-43.2,19.38-43.2,43.2,19.38,43.2,43.2,43.2,43.2-19.38,43.2-43.2Zm-43.2,39.44c-10.69,0-20.72-4.23-28.24-11.91-7.22-7.39-11.2-17.17-11.2-27.53,0-21.75,17.69-39.44,39.44-39.44s39.44,17.69,39.44,39.44c0,10.36-3.98,20.14-11.2,27.53-7.52,7.68-17.54,11.91-28.24,11.91Z"/><path class="cls-6" d="m249.06,386.43c-3.11,0-5.63,2.53-5.63,5.63s2.53,5.63,5.63,5.63,5.63-2.53,5.63-5.63-2.53-5.63-5.63-5.63Z"/><path class="cls-3" d="m279.11,352.62c-5.18,0-9.39,4.21-9.39,9.39,0,1.91.58,3.69,1.56,5.17l-17.05,17.05c-1.48-.98-3.26-1.56-5.17-1.56-.98,0-1.92.15-2.81.43l-10.37-18.54c13.52-8.25,22.56-23.14,22.56-40.11,0-25.89-21.06-46.95-46.95-46.95s-46.95,21.06-46.95,46.95c0,16.96,9.04,31.86,22.56,40.11l-10.37,18.54c-.89-.28-1.83-.43-2.81-.43-1.91,0-3.69.58-5.17,1.56l-17.05-17.05c.98-1.48,1.56-3.26,1.56-5.17,0-5.18-4.21-9.39-9.39-9.39s-9.39,4.21-9.39,9.39,4.21,9.39,9.39,9.39c1.91,0,3.69-.58,5.17-1.56l17.05,17.05c-.98,1.48-1.56,3.26-1.56,5.17,0,5.18,4.21,9.39,9.39,9.39s9.39-4.21,9.39-9.39c0-2.85-1.28-5.41-3.3-7.13l10.37-18.55c2.53,1.28,5.19,2.33,7.95,3.14v48.84c0,4.03,1.43,7.44,4.15,9.85,2.39,2.13,5.58,3.29,8.99,3.29,6.53,0,13.15-4.52,13.15-13.15v-48.84c2.76-.81,5.42-1.86,7.95-3.14l10.37,18.55c-2.02,1.72-3.3,4.28-3.3,7.13,0,5.18,4.21,9.39,9.39,9.39s9.39-4.21,9.39-9.39c0-1.91-.58-3.69-1.56-5.17l17.05-17.05c1.48.98,3.26,1.56,5.17,1.56,5.18,0,9.39-4.21,9.39-9.39s-4.21-9.39-9.39-9.39Zm-135.22,15.02c-3.11,0-5.63-2.53-5.63-5.63s2.53-5.63,5.63-5.63,5.63,2.53,5.63,5.63-2.53,5.63-5.63,5.63Zm30.05,30.05c-3.11,0-5.63-2.53-5.63-5.63s2.53-5.63,5.63-5.63,5.63,2.53,5.63,5.63-2.53,5.63-5.63,5.63Zm46.95,20.66c0,6.45-4.87,9.39-9.39,9.39s-9.39-2.94-9.39-9.39v-40.28c3.17.54,6.32.84,9.39.84s6.22-.3,9.39-.84v40.28Zm0-44.08c-6.33,1.16-12.45,1.15-18.78,0v-3.8c3.03.62,6.18.94,9.39.94s6.36-.33,9.39-.94v3.81Zm-9.39-6.62c-23.82,0-43.2-19.38-43.2-43.2s19.38-43.2,43.2-43.2,43.2,19.38,43.2,43.2-19.38,43.2-43.2,43.2Zm37.56,30.05c-3.11,0-5.63-2.53-5.63-5.63s2.53-5.63,5.63-5.63,5.63,2.53,5.63,5.63-2.53,5.63-5.63,5.63Zm30.05-30.05c-3.11,0-5.63-2.53-5.63-5.63s2.53-5.63,5.63-5.63,5.63,2.53,5.63,5.63-2.53,5.63-5.63,5.63Z"/><path class="cls-3" d="m211.5,285.01c-21.75,0-39.44,17.69-39.44,39.44,0,10.36,3.98,20.14,11.2,27.53,7.52,7.68,17.54,11.91,28.24,11.91s20.72-4.23,28.24-11.91c7.22-7.39,11.2-17.17,11.2-27.53,0-21.75-17.69-39.44-39.44-39.44Zm0,75.12c-9.12,0-17.7-3.4-24.35-9.61l15.71-19.08c2.53,1.51,5.48,2.4,8.63,2.4s6.1-.89,8.63-2.4l15.71,19.08c-6.65,6.21-15.23,9.61-24.35,9.61Zm-13.15-43.2c0-7.25,5.9-13.15,13.15-13.15s13.15,5.9,13.15,13.15-5.9,13.15-13.15,13.15-13.15-5.9-13.15-13.15Zm40.09,30.84l-15.32-18.61c3.24-3.08,5.28-7.42,5.28-12.24,0-9.32-7.58-16.9-16.9-16.9s-16.9,7.58-16.9,16.9c0,4.82,2.03,9.16,5.28,12.24l-15.32,18.61c-5.63-6.47-8.74-14.66-8.74-23.33,0-19.68,16.01-35.68,35.68-35.68s35.68,16.01,35.68,35.68c0,8.67-3.11,16.86-8.74,23.33Z"/><path class="cls-7" d="m849.76,582.83h-80.51v11.33h80.51c1.03,0,1.87.85,1.87,1.89v4.5l23.9-12.06-23.9-12.06v4.5c0,1.04-.84,1.89-1.87,1.89Z"/><path class="cls-3" d="m847.88,573.39v5.67h-80.51c-1.03,0-1.87.85-1.87,1.89v15.11c0,1.04.84,1.89,1.87,1.89h80.51v5.67c0,.66.34,1.26.89,1.61.55.34,1.24.38,1.82.08l29.96-15.11c1.27-.63,1.27-2.74,0-3.38l-29.96-15.11c-.58-.3-1.27-.26-1.82.08-.55.35-.89.95-.89,1.61Zm27.64,15.11l-23.9,12.06v-4.5c0-1.04-.84-1.89-1.87-1.89h-80.51v-11.33h80.51c1.03,0,1.87-.85,1.87-1.89v-4.5l23.9,12.06Z"/><path class="cls-5" d="m362.21,468.47h25.76c1.04,0,1.87.84,1.87,1.87v79.56h19.1v-79.56c0-1.03.84-1.87,1.87-1.87h25.76v-15.38h-74.37v15.38Z"/><path class="cls-5" d="m571.43,522.47c0-12.26-5.96-20.39-18.75-25.56l-14.98-6.06c-7.75-3.14-14.45-5.85-14.45-12.79s5.63-10.97,14.69-10.97c7.23,0,13.45,2.2,20.52,7.31l9.37-11.6c-7.91-7.26-18.95-11.55-29.88-11.55-19.35,0-33.94,12.06-33.94,28.05s11.94,22.85,19.05,25.71l14.62,6.18c8.24,3.44,14.19,5.93,14.19,13.14,0,3.48-1.55,11.59-15.92,11.59-7.78,0-16.85-3.61-24.61-9.73l-10.63,12.77c9.35,8.16,21.87,12.81,34.62,12.81,24.81,0,36.1-15.18,36.1-29.28Z"/><rect class="cls-5" x="459.01" y="453.1" width="18.95" height="96.81"/><path class="cls-5" d="m183.69,522.47c0-12.26-5.96-20.39-18.75-25.56l-14.98-6.06c-7.75-3.14-14.45-5.85-14.45-12.79s5.63-10.97,14.69-10.97c7.23,0,13.45,2.2,20.52,7.31l9.37-11.6c-7.91-7.26-18.95-11.55-29.88-11.55-19.35,0-33.94,12.06-33.94,28.05s11.94,22.85,19.05,25.71l14.62,6.18c8.24,3.44,14.19,5.93,14.19,13.14,0,3.48-1.55,11.59-15.92,11.59-7.78,0-16.85-3.61-24.61-9.73l-10.63,12.77c9.35,8.16,21.87,12.81,34.62,12.81,24.81,0,36.1-15.18,36.1-29.28Z"/><path class="cls-5" d="m613.7,470.35v79.56h19.1v-79.56c0-1.03.84-1.87,1.87-1.87h25.76v-15.38h-74.37v15.38h25.76c1.04,0,1.87.84,1.87,1.87Z"/><path class="cls-5" d="m297.85,527.4c.21-.83.96-1.4,1.82-1.4h30.66c.85,0,1.6.58,1.82,1.4l5.81,22.5h19.15l-30.32-96.81h-23.58l-30.32,96.81h19.15l5.81-22.5Zm4.71-18.04c3.53-11.75,10.33-41.58,10.33-41.58.11-.56.87-1.16,1.74-1.16h.71c.87,0,1.63.6,1.74,1.16,0,0,6.8,29.83,10.33,41.58.51,1.7-.63,2.65-1.73,2.65h-21.4c-1.1,0-2.24-.95-1.73-2.65Z"/><path class="cls-5" d="m224.03,470.35v79.56h19.1v-79.56c0-1.03.84-1.87,1.87-1.87h25.76v-15.38h-74.37v15.38h25.76c1.04,0,1.87.84,1.87,1.87Z"/><path class="cls-5" d="m869,496.91l-14.98-6.06c-7.75-3.14-14.45-5.85-14.45-12.79s5.63-10.97,14.69-10.97c7.23,0,13.45,2.2,20.52,7.31l9.37-11.6c-7.91-7.26-18.95-11.55-29.88-11.55-19.35,0-33.94,12.06-33.94,28.05s11.94,22.85,19.05,25.71l14.62,6.18c8.24,3.44,14.19,5.93,14.19,13.14,0,3.48-1.55,11.59-15.92,11.59-7.78,0-16.85-3.61-24.61-9.73l-10.63,12.77c9.35,8.16,21.87,12.81,34.62,12.81,24.81,0,36.1-15.18,36.1-29.28,0-12.26-5.96-20.39-18.75-25.56Z"/><rect class="cls-5" x="683.87" y="453.1" width="18.95" height="96.81"/><path class="cls-5" d="m772.31,535.91c-16.2,0-26.27-13.25-26.27-34.57,0-20.17,11.06-34.26,26.89-34.26,7.42,0,12.52,3.12,16.82,6.79l10.08-11.31c-4.45-4.16-14.02-11.32-27.21-11.32-22.22,0-46.14,15.92-46.14,50.87s24.52,49.64,45.52,49.64c11.49,0,21.63-4.46,29.44-12.92l-10.02-11c-5.54,5.43-11.81,8.08-19.1,8.08Z"/><path class="cls-3" d="m304.29,512.01h21.4c1.1,0,2.24-.95,1.73-2.65-3.53-11.75-10.33-41.58-10.33-41.58-.11-.56-.87-1.16-1.74-1.16h-.71c-.87,0-1.63.6-1.74,1.16,0,0-6.8,29.83-10.33,41.58-.51,1.7.63,2.65,1.73,2.65Zm10.7-36.73c2.06,8.92,8.26,32.98,8.26,32.98h-16.52s6.2-24.07,8.26-32.98Z"/><path class="cls-3" d="m270.3,553.65h23.19c.85,0,1.6-.58,1.82-1.41l5.81-22.5h27.75l5.81,22.5c.21.83.96,1.41,1.82,1.41h23.19c1.25,0,2.14-1.21,1.77-2.4l-31.51-100.58c-.24-.78-.97-1.31-1.79-1.31h-26.33c-.82,0-1.54.53-1.79,1.31l-31.51,100.58c-.37,1.19.52,2.4,1.77,2.4Zm32.91-100.55h23.58l30.32,96.81h-19.15l-5.81-22.5c-.21-.83-.96-1.4-1.82-1.4h-30.66c-.85,0-1.6.58-1.82,1.4l-5.81,22.5h-19.15l30.32-96.81Z"/><path class="cls-3" d="m147.59,555.5c11.86,0,21.98-3.39,29.26-9.8,6.83-6.01,10.59-14.26,10.59-23.23,0-13.79-6.9-23.29-21.09-29.03l-14.98-6.06c-7.95-3.22-12.1-5.1-12.1-9.32,0-4.52,4.09-7.23,10.94-7.23s12.63,2.21,19.7,7.63c.81.62,1.96.48,2.6-.31l11.58-14.34c.61-.75.53-1.84-.15-2.52-8.66-8.64-21.26-13.79-33.73-13.79-21.49,0-37.69,13.67-37.69,31.79,0,13.08,7.8,23.71,21.37,29.18l14.61,6.17c8.24,3.44,11.88,5.16,11.88,9.68,0,6.48-6.62,7.84-12.17,7.84-7.42,0-16.28-3.77-23.68-10.07-.77-.66-1.95-.54-2.6.24l-12.99,15.6c-.63.75-.58,1.87.13,2.54,10.16,9.55,24.2,15.03,38.51,15.03Zm-23.99-29.32c7.75,6.12,16.83,9.73,24.61,9.73,14.37,0,15.92-8.11,15.92-11.59,0-7.21-5.95-9.7-14.19-13.14l-14.62-6.18c-7.11-2.86-19.05-10.01-19.05-25.71s14.59-28.05,33.94-28.05c10.93,0,21.97,4.29,29.88,11.55l-9.37,11.6c-7.07-5.11-13.29-7.31-20.52-7.31-9.06,0-14.69,4.2-14.69,10.97s6.69,9.65,14.45,12.79l14.98,6.06c12.79,5.17,18.75,13.3,18.75,25.56,0,14.1-11.3,29.28-36.1,29.28-12.75,0-25.26-4.65-34.62-12.81l10.63-12.77Z"/><path class="cls-3" d="m535.32,555.5c11.86,0,21.98-3.39,29.26-9.8,6.83-6.01,10.59-14.26,10.59-23.23,0-13.79-6.9-23.29-21.09-29.03l-14.98-6.06c-7.95-3.22-12.1-5.1-12.1-9.32,0-4.52,4.09-7.23,10.94-7.23s12.63,2.21,19.7,7.63c.81.62,1.96.48,2.6-.31l11.58-14.34c.61-.75.53-1.84-.15-2.52-8.66-8.64-21.26-13.79-33.73-13.79-21.49,0-37.69,13.67-37.69,31.79,0,13.08,7.8,23.71,21.37,29.18l14.61,6.17c8.24,3.44,11.88,5.16,11.88,9.68,0,6.48-6.62,7.84-12.17,7.84-7.42,0-16.28-3.77-23.68-10.07-.77-.66-1.95-.54-2.6.24l-12.99,15.6c-.63.75-.58,1.87.13,2.54,10.16,9.55,24.2,15.03,38.51,15.03Zm-23.99-29.32c7.75,6.12,16.83,9.73,24.61,9.73,14.37,0,15.92-8.11,15.92-11.59,0-7.21-5.95-9.7-14.19-13.14l-14.62-6.18c-7.11-2.86-19.05-10.01-19.05-25.71s14.59-28.05,33.94-28.05c10.93,0,21.97,4.29,29.88,11.55l-9.37,11.6c-7.07-5.11-13.29-7.31-20.52-7.31-9.06,0-14.69,4.2-14.69,10.97s6.69,9.65,14.45,12.79l14.98,6.06c12.79,5.17,18.75,13.3,18.75,25.56,0,14.1-11.3,29.28-36.1,29.28-12.75,0-25.26-4.65-34.62-12.81l10.63-12.77Z"/><path class="cls-3" d="m870.41,493.44l-14.98-6.06c-7.95-3.22-12.1-5.1-12.1-9.32,0-4.52,4.09-7.23,10.94-7.23s12.63,2.21,19.7,7.63c.81.62,1.96.48,2.6-.31l11.58-14.34c.61-.75.53-1.84-.15-2.52-8.66-8.64-21.26-13.79-33.73-13.79-21.49,0-37.69,13.67-37.69,31.79,0,13.08,7.8,23.71,21.37,29.18l14.61,6.17c8.24,3.44,11.88,5.16,11.88,9.68,0,6.48-6.62,7.84-12.17,7.84-7.42,0-16.28-3.77-23.68-10.07-.77-.66-1.95-.54-2.6.24l-12.99,15.6c-.63.75-.58,1.87.13,2.54,10.16,9.55,24.2,15.03,38.51,15.03,11.86,0,21.98-3.39,29.26-9.8,6.83-6.01,10.59-14.26,10.59-23.23,0-13.79-6.9-23.29-21.09-29.03Zm-18.77,58.31c-12.75,0-25.26-4.65-34.62-12.81l10.63-12.77c7.75,6.12,16.83,9.73,24.61,9.73,14.37,0,15.92-8.11,15.92-11.59,0-7.21-5.95-9.7-14.19-13.14l-14.62-6.18c-7.11-2.86-19.05-10.01-19.05-25.71s14.59-28.05,33.94-28.05c10.93,0,21.97,4.29,29.88,11.55l-9.37,11.6c-7.07-5.11-13.29-7.31-20.52-7.31-9.06,0-14.69,4.2-14.69,10.97s6.69,9.65,14.45,12.79l14.98,6.06c12.79,5.17,18.75,13.3,18.75,25.56,0,14.1-11.3,29.28-36.1,29.28Z"/><path class="cls-3" d="m194.52,472.22h25.76v79.56c0,1.03.84,1.87,1.87,1.87h22.85c1.04,0,1.87-.84,1.87-1.87v-79.56h25.76c1.04,0,1.87-.84,1.87-1.87v-19.12c0-1.03-.84-1.87-1.87-1.87h-78.12c-1.04,0-1.87.84-1.87,1.87v19.12c0,1.03.84,1.87,1.87,1.87Zm1.87-19.12h74.37v15.38h-25.76c-1.04,0-1.87.84-1.87,1.87v79.56h-19.1v-79.56c0-1.03-.84-1.87-1.87-1.87h-25.76v-15.38Z"/><path class="cls-3" d="m438.46,449.35h-78.12c-1.04,0-1.87.84-1.87,1.87v19.12c0,1.03.84,1.87,1.87,1.87h25.76v79.56c0,1.03.84,1.87,1.87,1.87h22.85c1.04,0,1.87-.84,1.87-1.87v-79.56h25.76c1.04,0,1.87-.84,1.87-1.87v-19.12c0-1.03-.84-1.87-1.87-1.87Zm-1.87,19.12h-25.76c-1.04,0-1.87.84-1.87,1.87v79.56h-19.1v-79.56c0-1.03-.84-1.87-1.87-1.87h-25.76v-15.38h74.37v15.38Z"/><path class="cls-3" d="m457.14,553.65h22.7c1.04,0,1.87-.84,1.87-1.87v-100.55c0-1.03-.84-1.87-1.87-1.87h-22.7c-1.04,0-1.87.84-1.87,1.87v100.55c0,1.03.84,1.87,1.87,1.87Zm1.87-100.55h18.95v96.81h-18.95v-96.81Z"/><path class="cls-3" d="m584.19,472.22h25.76v79.56c0,1.03.84,1.87,1.87,1.87h22.85c1.04,0,1.87-.84,1.87-1.87v-79.56h25.76c1.04,0,1.87-.84,1.87-1.87v-19.12c0-1.03-.84-1.87-1.87-1.87h-78.12c-1.04,0-1.87.84-1.87,1.87v19.12c0,1.03.84,1.87,1.87,1.87Zm1.87-19.12h74.37v15.38h-25.76c-1.04,0-1.87.84-1.87,1.87v79.56h-19.1v-79.56c0-1.03-.84-1.87-1.87-1.87h-25.76v-15.38Z"/><path class="cls-3" d="m681.99,553.65h22.69c1.04,0,1.87-.84,1.87-1.87v-100.55c0-1.03-.84-1.87-1.87-1.87h-22.69c-1.04,0-1.87.84-1.87,1.87v100.55c0,1.03.84,1.87,1.87,1.87Zm1.87-100.55h18.95v96.81h-18.95v-96.81Z"/><path class="cls-3" d="m805.39,540.04c.62-.72.6-1.78-.04-2.48l-12.5-13.73c-.35-.39-.86-.61-1.38-.61h0c-.53,0-1.03.22-1.38.61-5.21,5.69-10.85,8.34-17.76,8.34-14.1,0-22.52-11.52-22.52-30.82,0-18.25,9.3-30.51,23.14-30.51,5.64,0,10.19,2.05,15.72,7.07.37.34.86.51,1.36.48.5-.03.97-.25,1.3-.62l12.51-14.03c.66-.74.63-1.85-.06-2.55-8.51-8.69-19.85-13.67-31.14-13.67-13.57,0-26.03,5.13-35.08,14.45-9.69,9.98-14.81,23.87-14.81,40.17s5,30.21,14.46,39.74c8.73,8.8,21.09,13.64,34.81,13.64s24.7-5.35,33.38-15.46Zm-33.38,11.71c-21,0-45.52-13-45.52-49.64s23.92-50.87,46.14-50.87c13.19,0,22.76,7.16,27.21,11.32l-10.08,11.31c-4.3-3.67-9.41-6.79-16.82-6.79-15.83,0-26.89,14.09-26.89,34.26,0,21.32,10.07,34.57,26.27,34.57,7.3,0,13.56-2.65,19.1-8.08l10.02,11c-7.81,8.46-17.95,12.92-29.44,12.92Z"/></g></svg>