<?xml version="1.0" standalone="no"?>
<!DOCTYPE svg PUBLIC "-//W3C//DTD SVG 20010904//EN"
 "http://www.w3.org/TR/2001/REC-SVG-20010904/DTD/svg10.dtd">
<svg version="1.0" xmlns="http://www.w3.org/2000/svg"
 width="907.000000pt" height="907.000000pt" viewBox="0 0 907.000000 907.000000"
 preserveAspectRatio="xMidYMid meet">
<metadata>
Created by potrace 1.14, written by Peter Selinger 2001-2017
</metadata>
<g transform="translate(0.000000,907.000000) scale(0.100000,-0.100000)"
fill="#000000" stroke="none">
<path d="M3050 7153 c-99 -12 -160 -51 -185 -117 -40 -103 18 -207 130 -234
72 -18 215 11 215 43 0 18 -40 31 -49 16 -16 -25 -114 -34 -153 -14 -40 19
-47 40 -46 130 1 91 10 109 64 128 31 10 46 10 81 0 24 -7 50 -19 58 -25 12
-10 18 -10 30 0 8 7 15 16 15 21 0 12 -52 37 -90 44 -19 3 -36 7 -39 8 -3 2
-17 2 -31 0z"/>
<path d="M3429 7149 c-136 -20 -207 -139 -152 -254 19 -40 93 -94 132 -97 78
-4 99 -4 131 5 41 10 95 49 111 78 27 51 27 135 -1 181 -36 62 -133 100 -221
87z m116 -65 c18 -24 17 -17 19 -104 2 -41 -1 -85 -6 -98 -18 -52 -134 -64
-170 -19 -15 18 -18 39 -15 117 2 94 2 94 34 116 26 17 40 20 78 14 27 -4 51
-15 60 -26z"/>
<path d="M3769 7126 c-4 -68 -1 -318 4 -322 3 -3 67 -5 142 -5 135 0 154 4
155 34 0 4 -46 7 -102 7 l-103 0 0 152 0 152 -47 2 c-42 1 -48 -1 -49 -20z"/>
<path d="M4146 7140 c-2 -3 -2 -62 -1 -131 1 -100 4 -132 18 -152 26 -40 79
-60 161 -60 82 -1 131 19 148 61 13 31 18 281 6 284 -32 6 -33 2 -35 -112 -1
-63 -2 -125 -2 -136 -2 -54 -130 -79 -175 -35 -19 19 -21 34 -22 149 -1 70 -2
129 -3 132 0 3 -22 6 -47 6 -25 0 -47 -3 -48 -6z"/>
<path d="M4609 7146 c-1 -1 -3 -79 -4 -173 -1 -170 -1 -173 20 -173 20 0 21 4
21 125 -1 69 3 124 7 122 4 -1 38 -56 75 -122 49 -85 73 -120 86 -120 14 0 39
36 90 127 39 70 73 129 76 131 3 3 5 -54 5 -126 l0 -132 50 -3 50 -3 0 171 c0
93 -2 171 -5 171 -3 1 -26 3 -52 5 l-47 3 -47 -82 c-26 -45 -56 -97 -67 -115
l-20 -33 -24 43 c-14 24 -41 72 -61 108 -19 36 -37 67 -39 70 -3 4 -110 9
-114 6z"/>
<path d="M5202 6973 l-1 -174 154 3 c137 3 157 5 182 24 53 40 47 112 -13 140
l-35 17 31 18 c25 16 30 25 30 57 0 71 -32 84 -211 87 l-136 2 -1 -174z m236
123 c17 -10 15 -62 -4 -80 -10 -11 -34 -16 -74 -16 l-59 0 3 53 c2 28 4 53 5
54 3 5 119 -4 129 -11z m14 -153 c17 -21 17 -66 -2 -88 -9 -11 -31 -15 -81
-15 l-69 0 1 60 1 60 68 0 c51 0 70 -4 82 -17z"/>
<path d="M5670 6973 l0 -173 50 0 50 0 0 174 0 174 -50 -1 -50 0 0 -174z"/>
<path d="M6003 7095 c-14 -27 -54 -105 -90 -172 -62 -120 -63 -123 -39 -123
17 0 29 8 38 28 13 27 15 27 115 30 l101 3 13 -30 c14 -32 36 -39 95 -33 l30
4 -21 41 c-12 23 -51 101 -88 173 -65 127 -68 132 -98 130 -27 -1 -35 -8 -56
-51z m61 -116 c20 -37 36 -70 36 -73 0 -4 -33 -6 -74 -5 l-75 2 37 73 c20 40
37 72 38 71 1 -1 18 -32 38 -68z"/>
<path d="M0 4539 l0 -2459 1493 3 1492 2 0 24 0 24 -1467 0 -1468 0 0 2407 0
2407 1326 -1 c1189 -1 1327 1 1334 15 5 8 6 20 2 26 -5 8 -385 11 -1360 11
l-1352 1 0 -2460z"/>
<path d="M6340 6975 c0 -13 6 -25 13 -27 6 -2 601 -3 1320 -2 799 0 1310 -3
1314 -9 4 -6 8 -4604 4 -4778 l-1 -26 -1447 -1 c-797 0 -1454 -1 -1460 -1 -7
-1 -13 -12 -13 -26 l0 -24 1484 -1 c1166 0 1485 3 1488 13 2 6 3 1112 2 2457
l0 2445 -1352 1 -1352 2 0 -23z"/>
<path d="M7372 6305 c-122 -37 -193 -134 -197 -273 -3 -84 10 -151 53 -277 16
-49 29 -90 29 -91 -1 0 -26 -17 -55 -38 -172 -124 -248 -272 -242 -471 4 -140
37 -238 106 -317 76 -87 169 -127 286 -124 112 3 183 34 269 116 l68 66 56
-58 c92 -95 140 -112 322 -112 83 0 105 3 121 17 27 25 33 66 16 103 -18 38
-43 45 -129 37 -95 -8 -139 9 -212 82 -75 76 -85 97 -68 145 8 19 34 103 60
185 25 83 49 157 52 165 3 8 7 22 9 30 7 37 60 149 87 183 59 76 136 90 193
33 19 -19 35 -45 35 -57 1 -13 2 -38 4 -56 2 -35 -28 -113 -44 -113 -5 0 -17
-3 -27 -7 -14 -5 -16 -2 -11 17 10 37 -19 87 -54 94 -36 7 -83 -15 -100 -47
-7 -12 -12 -23 -11 -24 1 -2 2 -6 1 -10 -8 -54 27 -130 69 -155 101 -60 241
-5 292 113 29 68 33 91 33 166 -1 65 -31 147 -69 189 -63 68 -179 92 -275 58
-71 -26 -155 -109 -196 -194 -17 -36 -54 -137 -83 -225 -71 -219 -73 -225 -80
-225 -6 0 -31 45 -126 226 l-74 142 60 48 c154 124 225 288 196 454 -19 104
-83 175 -186 206 -43 12 -133 12 -178 -1z m154 -162 c34 -22 55 -88 50 -153
-7 -92 -44 -156 -120 -211 l-40 -30 -19 48 c-58 147 -70 260 -33 316 37 55
105 68 162 30z m-191 -641 c6 -4 29 -45 53 -92 52 -106 106 -205 160 -293 41
-67 41 -69 26 -99 -23 -45 -86 -104 -129 -122 -53 -22 -130 -20 -181 5 -45 21
-79 60 -109 124 -24 51 -32 184 -14 245 7 25 13 51 15 58 6 31 71 116 112 148
48 36 51 38 67 26z"/>
<path d="M494 6270 c-31 -12 -54 -49 -54 -88 0 -52 22 -67 101 -67 90 0 95 -5
105 -110 7 -76 7 -931 0 -1008 -10 -99 -18 -110 -86 -103 -63 6 -99 -7 -116
-42 -17 -34 2 -85 37 -106 30 -18 66 -17 174 3 48 9 121 7 190 -4 28 -5 76 -9
108 -9 53 -1 61 2 82 28 25 31 26 69 4 104 -16 25 -18 26 -114 23 -87 -2 -93
6 -101 122 -10 138 -10 391 0 415 10 23 17 24 108 24 92 -1 108 -26 104 -158
-5 -131 13 -163 85 -152 41 6 50 41 43 163 -9 142 -9 290 0 440 8 138 2 155
-58 157 -61 2 -71 -17 -69 -129 2 -101 -10 -144 -44 -158 -10 -4 -46 -9 -80
-10 -99 -5 -97 -10 -96 212 1 227 9 256 71 273 22 5 100 10 174 9 233 -3 247
-23 238 -337 -4 -99 15 -136 68 -138 51 -2 73 31 71 102 -1 66 -1 337 1 427 1
78 -6 96 -43 111 -33 13 -70 13 -307 0 -74 -5 -196 -9 -270 -9 -118 0 -170 4
-280 20 -14 2 -35 0 -46 -5z"/>
<path d="M3783 6208 c-50 -13 -53 -23 -55 -188 -2 -132 -8 -153 -43 -144 -43
11 -75 -4 -91 -41 -30 -72 8 -130 78 -122 21 2 42 -1 47 -7 5 -6 9 -166 9
-356 1 -333 3 -375 17 -443 10 -46 52 -119 81 -141 57 -41 175 -52 244 -23
113 49 162 167 164 398 1 114 -11 146 -60 155 -41 8 -71 -9 -78 -43 -3 -16 -8
-83 -11 -151 -6 -167 -29 -212 -105 -212 -46 0 -75 40 -87 120 -11 71 -9 672
2 694 12 22 8 22 143 11 71 -6 73 -5 102 24 35 35 39 77 11 112 -18 23 -26 24
-134 24 -64 0 -119 3 -123 8 -4 4 -8 67 -9 141 -2 173 -20 206 -102 184z"/>
<path d="M3236 5884 c-15 -14 -21 -35 -17 -57 1 -5 -2 -7 -6 -5 -4 2 -37 18
-73 36 -56 28 -74 32 -130 31 -76 -3 -121 -15 -172 -46 -53 -33 -96 -81 -126
-143 -24 -49 -27 -67 -27 -155 1 -117 18 -162 83 -214 39 -31 114 -67 155 -75
12 -3 59 -12 104 -21 161 -31 206 -69 218 -180 3 -25 -26 -100 -47 -122 -79
-85 -244 -73 -329 24 -45 52 -57 89 -58 184 -1 61 -50 95 -108 75 -32 -10 -41
-51 -31 -131 12 -91 12 -101 2 -182 -16 -135 1 -182 67 -186 38 -2 67 31 71
80 l2 31 36 -26 c79 -60 103 -67 220 -66 71 0 94 5 142 28 230 110 260 468 48
576 -32 16 -67 27 -240 75 -105 30 -148 55 -162 94 -25 71 -12 139 35 189 56
61 180 67 249 12 34 -26 59 -82 65 -144 9 -107 35 -144 93 -131 40 9 55 49 44
122 -9 67 -9 96 1 210 6 69 5 87 -9 108 -19 29 -75 35 -100 9z"/>
<path d="M1883 5872 c-92 -33 -179 -120 -231 -232 -66 -141 -76 -427 -22 -614
33 -113 124 -227 219 -274 74 -36 199 -41 278 -11 62 24 144 94 179 154 25 44
76 165 69 165 -3 0 0 11 5 24 21 55 29 232 16 345 -25 207 -118 367 -251 431
-69 32 -189 38 -262 12z m213 -163 c28 -17 97 -105 100 -128 0 -3 3 -13 7 -21
13 -33 29 -105 33 -159 32 -341 -95 -573 -284 -521 -126 33 -200 198 -195 430
2 105 4 125 17 190 12 54 63 153 95 184 60 58 157 69 227 25z"/>
<path d="M4689 5867 c-73 -31 -123 -70 -168 -132 -83 -113 -123 -257 -123
-440 0 -274 93 -471 257 -546 50 -23 73 -27 142 -27 69 1 91 6 141 30 99 47
173 136 206 248 21 71 15 128 -17 156 -53 45 -121 -4 -133 -98 -4 -31 -37 -94
-67 -126 -92 -100 -249 -65 -318 70 -37 73 -56 235 -30 261 9 9 88 12 288 12
324 1 303 -8 303 120 0 178 -52 321 -150 412 -86 80 -224 105 -331 60z m186
-147 c16 -6 44 -28 62 -48 34 -39 70 -131 60 -156 -4 -9 -2 -18 2 -20 11 -7 2
-54 -12 -63 -15 -9 -364 -10 -388 -1 -41 16 -13 148 50 227 55 69 144 93 226
61z"/>
<path d="M5819 5877 c-41 -16 -99 -54 -99 -67 0 -19 -26 -16 -28 4 -4 64 -9
69 -60 60 -55 -9 -91 -9 -149 1 -36 7 -45 4 -67 -18 -31 -31 -34 -75 -8 -108
15 -18 28 -22 65 -21 49 2 62 -9 73 -61 6 -28 6 -697 0 -717 -17 -59 -16 -59
-67 -57 -62 1 -81 -16 -83 -73 0 -33 4 -46 24 -62 21 -17 33 -19 80 -13 75 10
212 10 287 1 65 -7 122 10 124 37 0 6 2 20 4 31 5 27 -15 65 -39 73 -12 3 -48
7 -81 7 -59 1 -60 1 -72 36 -13 38 -13 580 1 632 36 146 133 217 233 171 40
-19 62 -51 69 -106 6 -43 6 -43 -34 -59 -97 -38 -78 -185 26 -203 44 -7 91 16
120 61 25 38 54 152 43 169 -3 6 -4 18 -3 28 6 31 -26 122 -57 164 -46 63
-108 95 -195 100 -44 2 -85 -2 -107 -10z"/>
<path d="M992 4600 c-31 -13 -64 -88 -102 -235 -50 -188 -87 -327 -98 -362 -6
-18 -9 -33 -6 -33 3 0 0 -8 -5 -18 -6 -11 -12 -30 -14 -43 -3 -13 -12 -49 -21
-80 -9 -31 -18 -65 -20 -75 -2 -11 -12 -45 -21 -78 -9 -32 -19 -66 -20 -75 -2
-9 -4 -16 -5 -16 -1 0 -3 -9 -5 -20 -10 -48 -78 -263 -95 -295 -25 -49 -42
-61 -82 -60 -18 0 -46 1 -63 1 -62 2 -89 -88 -40 -136 28 -29 50 -30 175 -11
81 12 108 12 175 2 103 -16 118 -17 145 -6 20 8 31 22 37 49 18 71 -13 106
-90 103 -31 -1 -54 3 -59 11 -14 22 -8 71 22 195 30 122 44 161 63 173 18 12
324 8 341 -4 18 -14 64 -201 71 -287 5 -75 -7 -90 -73 -88 -42 2 -56 -2 -74
-19 -31 -32 -27 -91 8 -121 25 -22 33 -23 101 -17 40 3 86 10 101 14 30 8 77
7 137 -2 145 -24 167 -21 191 25 17 33 12 88 -9 106 -18 15 -67 20 -99 11 -48
-13 -85 34 -115 146 -1 6 -7 28 -13 50 -6 22 -13 51 -16 63 -2 13 -12 49 -20
80 -8 32 -17 64 -19 72 -2 8 -17 71 -35 140 -17 69 -33 132 -35 140 -15 67
-156 622 -163 641 -21 54 -94 82 -150 59z m93 -420 c3 -14 7 -35 10 -47 12
-53 15 -69 19 -88 3 -11 10 -42 16 -70 6 -27 13 -65 16 -82 2 -18 9 -44 14
-59 6 -14 10 -38 10 -54 0 -37 -10 -39 -153 -38 -97 1 -110 3 -116 20 -4 11
13 96 41 206 26 103 50 199 53 214 8 40 35 151 42 168 5 13 26 -65 48 -170z"/>
<path d="M2314 4588 c-31 -17 -44 -40 -44 -78 0 -47 26 -72 72 -70 51 3 57 1
69 -22 12 -22 26 -298 16 -298 -3 0 -20 13 -38 30 -46 41 -106 59 -186 56 -85
-3 -153 -32 -211 -89 -40 -38 -111 -149 -116 -180 -1 -6 -5 -18 -9 -24 -5 -7
-10 -23 -13 -35 -3 -13 -10 -45 -15 -73 -17 -74 -19 -295 -4 -365 7 -33 11
-60 10 -60 -7 0 46 -125 69 -164 26 -42 90 -116 101 -116 4 0 18 -9 32 -20 34
-26 96 -43 160 -42 64 0 150 40 193 89 30 34 34 34 30 -1 -1 -10 1 -29 5 -43
6 -24 9 -25 53 -19 58 9 102 9 168 0 49 -6 53 -5 70 21 27 42 27 70 1 101 -20
23 -32 28 -63 26 -22 -1 -45 2 -52 6 -7 5 -15 35 -19 68 -6 56 -8 797 -3 1127
2 94 -1 162 -7 168 -6 6 -19 10 -29 10 -23 1 -107 -11 -112 -15 -1 -2 -27 2
-56 9 -36 9 -59 9 -72 3z m-14 -565 c91 -58 130 -185 125 -405 -4 -141 -5
-158 -24 -226 -32 -116 -97 -183 -185 -188 -59 -3 -103 20 -154 81 -25 30 -54
118 -68 205 -5 35 -5 217 0 262 18 142 94 265 180 289 32 9 98 0 126 -18z"/>
<path d="M6015 4549 c-36 -18 -58 -59 -61 -115 -4 -68 17 -107 70 -134 l40
-19 39 22 c44 24 67 66 67 121 0 99 -79 162 -155 125z"/>
<path d="M5174 4522 c-28 -18 -36 -59 -36 -171 0 -157 -2 -164 -43 -157 -40 8
-79 -9 -93 -38 -8 -19 -9 -31 -3 -83 3 -27 34 -44 78 -41 28 1 47 -3 53 -11 4
-8 8 -168 8 -357 0 -380 7 -449 54 -526 37 -59 94 -89 181 -93 103 -4 177 39
219 127 14 29 28 67 32 83 3 17 9 41 12 55 10 48 11 225 2 253 -12 34 -45 57
-73 52 -11 -2 -25 -4 -31 -4 -22 -2 -34 -57 -38 -176 -3 -66 -11 -138 -19
-160 -26 -76 -118 -92 -151 -26 -25 48 -29 113 -30 444 -1 260 1 330 12 339
14 12 44 13 107 3 56 -9 80 -7 119 9 37 15 54 56 40 98 -15 48 -30 53 -151 53
-79 0 -116 4 -121 12 -5 7 -7 66 -7 130 2 127 -6 168 -35 183 -22 12 -70 13
-86 2z"/>
<path d="M3225 4192 c-71 -25 -132 -71 -175 -132 -13 -19 -27 -37 -30 -40 -3
-3 -18 -36 -32 -75 -45 -117 -49 -142 -54 -300 -2 -71 1 -152 7 -180 6 -27 12
-59 14 -70 12 -77 77 -199 137 -257 74 -72 146 -101 248 -100 190 2 330 142
380 381 23 109 21 344 -4 436 -41 151 -127 269 -231 321 -71 34 -187 42 -260
16z m192 -155 c18 -10 44 -30 58 -45 29 -30 71 -115 79 -155 2 -15 8 -32 12
-38 11 -18 13 -259 3 -319 -12 -69 -48 -180 -58 -180 -4 0 -13 -11 -19 -24 -6
-13 -27 -36 -47 -52 -29 -22 -49 -28 -96 -30 -62 -3 -95 9 -141 49 -28 24 -83
125 -92 167 -2 14 -9 48 -15 75 -23 115 1 337 45 432 56 116 176 169 271 120z"/>
<path d="M4362 4192 c-52 -19 -79 -37 -118 -81 -24 -26 -31 -20 -29 24 2 52
-11 67 -53 59 -49 -9 -108 -9 -157 -2 -57 10 -80 1 -97 -35 -30 -64 11 -122
79 -111 16 3 37 -2 48 -10 20 -14 20 -28 20 -589 0 -472 -2 -577 -14 -590 -9
-12 -27 -17 -59 -15 -36 1 -49 -3 -64 -21 -26 -33 -23 -77 8 -108 24 -24 29
-25 92 -18 80 10 164 10 249 1 58 -7 65 -5 88 18 29 29 31 72 4 107 -13 18
-26 22 -62 21 -57 -3 -67 10 -73 90 -8 105 -9 198 -3 198 3 0 14 -9 25 -21 62
-69 190 -90 297 -49 131 50 237 211 265 404 15 104 8 336 -12 411 -41 152
-112 257 -205 304 -61 32 -161 37 -229 13z m135 -151 c20 -2 83 -61 99 -94 21
-40 43 -113 51 -167 9 -60 9 -231 0 -302 -20 -165 -111 -283 -216 -282 -139 3
-212 150 -211 424 1 236 51 371 154 415 25 11 65 13 123 6z"/>
<path d="M6823 4191 c-166 -57 -261 -205 -292 -452 -7 -58 -6 -184 2 -254 24
-196 114 -348 246 -413 68 -32 70 -33 152 -33 281 0 442 294 395 721 -35 320
-262 515 -503 431z m172 -147 c82 -32 147 -142 171 -289 9 -54 9 -211 0 -260
-4 -22 -9 -49 -11 -60 -9 -57 -55 -152 -93 -190 -76 -78 -204 -70 -276 16
-148 174 -127 638 33 757 51 38 120 48 176 26z"/>
<path d="M8037 4199 c-50 -12 -88 -32 -129 -69 l-33 -31 -3 40 c-4 56 -19 65
-84 52 -52 -10 -68 -10 -138 3 -45 9 -77 -8 -90 -49 -21 -63 16 -105 87 -100
65 5 67 -6 67 -450 0 -344 -4 -388 -37 -384 -51 6 -88 -3 -103 -26 -25 -38
-24 -72 3 -101 24 -26 26 -26 106 -19 93 10 132 9 232 0 63 -6 73 -5 94 14 45
39 19 130 -37 132 -79 3 -76 2 -87 47 -15 61 -12 522 3 592 17 77 64 155 114
187 35 24 51 28 109 27 77 0 107 -15 147 -74 43 -63 46 -98 47 -425 0 -351 -1
-358 -63 -355 -58 3 -61 2 -81 -31 -15 -24 -17 -38 -10 -61 14 -50 35 -60 114
-53 93 9 155 8 242 0 69 -7 73 -7 96 19 19 21 24 34 20 59 -7 48 -29 67 -79
67 -25 0 -49 6 -58 16 -18 17 -17 2 -20 379 -2 213 -8 311 -21 375 -23 112
-103 197 -206 219 -58 13 -148 13 -202 0z"/>
<path d="M5870 4173 c-20 -26 -24 -51 -14 -90 7 -25 31 -36 84 -39 48 -2 46
-1 57 -27 16 -34 22 -629 8 -745 -6 -54 -16 -63 -69 -60 -74 4 -110 -78 -58
-135 15 -17 25 -18 87 -12 97 9 158 9 238 0 83 -10 114 3 123 51 12 65 -19 99
-87 95 -66 -3 -64 -19 -65 499 0 256 -4 472 -8 479 -6 9 -21 10 -55 5 -55 -9
-109 -9 -173 -1 -43 5 -50 3 -68 -20z"/>
<path d="M4175 2279 c-110 -31 -165 -129 -130 -233 59 -172 373 -150 399 27
13 84 -19 151 -87 186 -47 24 -132 33 -182 20z m112 -38 c7 0 21 -10 32 -22
16 -17 19 -36 20 -110 1 -83 -1 -92 -24 -114 -31 -32 -110 -35 -145 -7 -20 17
-23 29 -25 105 -4 137 18 160 142 148z"/>
<path d="M4905 2280 l-70 -5 0 -170 0 -170 153 -1 c140 -1 153 0 163 17 11 22
19 21 -116 23 l-99 1 -2 50 c0 28 1 55 3 60 2 7 34 10 78 10 71 -1 75 0 75 20
0 21 -4 22 -71 20 -75 -2 -87 6 -83 53 1 12 2 29 3 37 1 12 19 15 102 15 90 0
100 2 97 18 -3 14 -17 18 -83 22 -44 3 -112 3 -150 0z"/>
<path d="M5347 2276 c-132 -38 -179 -183 -92 -284 62 -72 217 -84 304 -23 12
8 12 12 2 25 -11 13 -17 13 -49 -4 -68 -37 -172 -18 -186 32 -9 36 -7 144 4
172 20 54 117 68 185 27 28 -16 36 -17 45 -6 38 45 -116 89 -213 61z"/>
<path d="M5700 2280 c-61 -4 -75 -8 -78 -23 -2 -10 0 -17 5 -16 4 1 35 1 68 0
l60 -1 0 -154 0 -154 45 3 c25 1 47 3 50 4 3 0 5 69 5 151 l-1 150 68 0 c67 0
75 4 60 27 -8 13 -166 21 -282 13z"/>
<path d="M3123 2108 l2 -173 48 -1 47 0 0 73 0 73 78 0 c143 0 195 30 190 109
-2 35 -9 48 -31 65 -25 19 -44 21 -182 24 l-154 3 2 -173z m251 110 c18 -30
14 -67 -9 -84 -11 -8 -44 -14 -82 -14 l-63 0 0 60 0 60 70 0 c61 0 71 -3 84
-22z"/>
<path d="M3588 2268 c-3 -11 -3 -292 1 -324 0 -5 22 -10 49 -10 l47 1 0 70 0
70 41 3 40 3 40 -73 39 -73 63 -1 62 -1 -18 31 c-10 17 -25 42 -33 56 -8 13
-20 30 -26 38 -19 20 -16 31 10 41 34 13 49 36 52 78 5 82 -35 100 -222 102
-107 2 -142 -1 -145 -11z m246 -44 c21 -20 20 -68 0 -89 -12 -12 -32 -15 -82
-13 l-66 3 -1 50 c-1 28 1 53 3 58 7 15 130 8 146 -9z"/>
<path d="M4616 2148 c0 -73 -4 -144 -10 -157 -9 -21 -14 -23 -63 -17 -48 6
-53 4 -53 -13 0 -25 15 -30 99 -28 62 2 74 5 98 29 27 27 27 29 28 173 l2 145
-51 0 -51 0 1 -132z"/>
</g>
</svg>
